<svg width="372" height="372" xmlns="http://www.w3.org/2000/svg" xmlns:xlink="http://www.w3.org/1999/xlink" xml:space="preserve" overflow="hidden"><defs><clipPath id="clip0"><rect x="452" y="173" width="372" height="372"/></clipPath><clipPath id="clip1"><rect x="452" y="173" width="372" height="372"/></clipPath><clipPath id="clip2"><rect x="453" y="174" width="371" height="371"/></clipPath><clipPath id="clip3"><rect x="453" y="174" width="371" height="371"/></clipPath><clipPath id="clip4"><rect x="453" y="174" width="371" height="371"/></clipPath></defs><g clip-path="url(#clip0)" transform="translate(-452 -173)"><g clip-path="url(#clip1)"><g clip-path="url(#clip2)"><g clip-path="url(#clip3)"><g clip-path="url(#clip4)"><path d="M564.228 178.167C565.251 179.12 565.995 179.965 566.064 181.402 566.087 182.835 566.087 182.835 565.949 183.48 565.558 185.552 566.013 187.726 566.322 189.783 566.371 190.115 566.419 190.447 566.467 190.779 566.726 192.542 567.003 194.303 567.293 196.062 567.322 196.236 567.35 196.409 567.38 196.589 567.518 197.424 567.658 198.259 567.801 199.094 568.779 204.856 568.779 204.856 567.402 206.805 566.541 207.77 565.437 208.295 564.162 208.481 562.722 208.541 561.522 208.025 560.412 207.125 559.333 206.092 559.009 204.779 558.827 203.347 558.77 202.949 558.712 202.552 558.654 202.155 558.621 201.923 558.588 201.691 558.553 201.451 558.408 200.463 558.245 199.478 558.083 198.492 558.051 198.301 558.019 198.11 557.987 197.913 557.89 197.324 557.792 196.735 557.695 196.146 557.339 193.997 556.987 191.848 556.674 189.693 556.652 189.544 556.63 189.395 556.608 189.242 556.149 186.02 555.712 182.055 557.615 179.21 558.468 178.132 559.417 177.71 560.695 177.295 561.984 177.198 563.166 177.403 564.228 178.167Z" stroke="#FF87E0" stroke-width="0.181102" stroke-linecap="butt" stroke-linejoin="miter" stroke-miterlimit="4" stroke-opacity="1" fill="#FF87E0" fill-rule="nonzero" fill-opacity="1"/><path d="M705.526 185.231C705.69 185.312 705.854 185.392 706.022 185.474 708.338 186.62 710.517 187.856 712.591 189.398 712.694 189.473 712.797 189.548 712.903 189.626 714.472 190.771 715.904 192.037 717.301 193.383 717.396 193.474 717.492 193.566 717.59 193.66 718.862 194.885 720.015 196.158 721.105 197.55 721.289 197.776 721.472 198.002 721.655 198.228 723.568 200.609 725.235 203.146 726.902 205.702 727.07 205.618 727.238 205.534 727.41 205.447 737.778 200.254 748.096 199.111 759.228 202.75 763.374 204.166 767.545 206.016 771.104 208.6 771.281 208.726 771.458 208.852 771.641 208.981 773.003 209.973 774.233 211.063 775.451 212.223 775.589 212.349 775.726 212.474 775.867 212.604 777.994 214.614 779.656 217.102 781.067 219.65 781.145 219.788 781.223 219.927 781.303 220.069 788.745 233.329 788.698 249.482 784.871 263.852 784.644 264.653 784.402 265.448 784.146 266.241 784.091 266.417 784.035 266.593 783.977 266.775 783.638 267.776 783.235 268.541 782.547 269.347 782.283 269.661 782.283 269.661 782.335 270.192 782.645 270.508 782.645 270.508 783.065 270.809 783.222 270.928 783.379 271.047 783.541 271.169 783.711 271.295 783.881 271.421 784.056 271.551 784.229 271.681 784.402 271.81 784.579 271.945 785.598 272.706 786.633 273.436 787.69 274.143 788.985 275.012 790.097 275.985 791.211 277.076 791.445 277.296 791.445 277.296 791.684 277.521 792.608 278.409 793.402 279.345 794.168 280.369 794.76 281.158 795.398 281.885 796.065 282.61 796.622 283.228 797.142 283.873 797.664 284.521 797.964 284.886 798.266 285.245 798.577 285.601 800.918 288.281 802.633 291.282 804.257 294.437 804.35 294.617 804.443 294.797 804.539 294.983 804.725 295.346 804.912 295.709 805.098 296.072 805.685 297.2 806.322 298.236 807.052 299.278 807.47 299.933 807.697 300.599 807.877 301.35 807.919 301.503 807.96 301.656 808.002 301.814 808.293 304.084 807.514 305.88 806.165 307.679 804.963 309.038 802.772 310.101 800.977 310.26 800.567 310.275 800.159 310.276 799.748 310.272 799.612 310.273 799.476 310.275 799.336 310.276 798.646 310.274 798.024 310.222 797.355 310.046 796.377 309.823 795.431 309.799 794.431 309.803 794.129 309.804 794.129 309.804 793.821 309.805 791.013 309.841 788.221 310.149 785.429 310.431 784.11 310.564 782.79 310.691 781.47 310.819 781.257 310.84 781.257 310.84 781.039 310.862 778.394 311.119 775.749 311.336 773.096 311.495 772.933 311.504 772.77 311.514 772.602 311.524 769.162 311.719 765.714 311.748 762.27 311.813 756.505 311.923 750.744 312.066 744.982 312.277 734.738 312.65 724.616 312.772 714.381 312.014 706.435 311.426 698.499 311.028 690.529 310.958 687.917 310.935 685.306 310.906 682.694 310.877 682.193 310.872 681.691 310.867 681.19 310.861 676.386 310.81 671.585 310.722 666.782 310.589 666.575 310.583 666.575 310.583 666.364 310.577 665.44 310.552 664.515 310.525 663.591 310.498 663.465 310.495 663.338 310.491 663.208 310.487 661.866 310.448 660.523 310.406 659.181 310.357 655.321 310.221 651.465 310.19 647.603 310.193 647.437 310.193 647.272 310.193 647.101 310.193 636.069 310.194 625.045 310.444 614.031 311.091 613.259 311.136 612.487 311.18 611.715 311.225 611.577 311.233 611.438 311.24 611.296 311.249 610.584 311.29 609.873 311.33 609.161 311.371 608.876 311.387 608.59 311.404 608.305 311.42 608.094 311.432 608.094 311.432 607.878 311.445 607.059 311.492 606.241 311.539 605.422 311.588 604.908 311.618 604.394 311.648 603.879 311.678 603.537 311.698 603.196 311.719 602.854 311.74 598.794 311.976 594.741 312.063 590.674 312.045 590.041 312.042 589.408 312.041 588.774 312.04 586.769 312.036 584.763 312.03 582.757 312.022 576.696 311.999 570.648 311.987 564.596 312.377 564.028 312.413 563.461 312.447 562.894 312.481 561.976 312.538 561.058 312.598 560.14 312.66 551.784 313.215 543.496 312.69 535.232 311.313 535.073 311.288 534.913 311.262 534.749 311.236 533.185 310.957 531.473 310.496 530.472 309.185 529.263 307.396 529.229 305.252 529.446 303.162 529.967 300.98 531.51 299.286 532.994 297.677 533.584 297.011 534.126 296.313 534.671 295.61 535.214 294.911 535.771 294.226 536.341 293.549 538.096 291.474 538.096 291.474 539.591 289.213 539.511 289.139 539.43 289.064 539.348 288.988 538.539 288.213 537.921 287.422 537.349 286.462 537.264 286.319 537.179 286.176 537.091 286.029 534.443 281.496 532.443 275.957 531.801 270.735 531.763 270.437 531.763 270.437 531.723 270.132 530.281 258.673 532.823 246.571 539.953 237.245 540.252 236.872 540.554 236.503 540.859 236.135 540.945 236.029 541.031 235.923 541.119 235.814 542.247 234.425 543.365 233.178 544.844 232.15 544.943 232.08 545.042 232.01 545.144 231.938 551.362 227.574 558.167 225.119 565.677 224.36 565.804 224.347 565.931 224.334 566.062 224.321 566.778 224.25 567.493 224.207 568.213 224.179 568.336 224.174 568.458 224.169 568.584 224.164 577.801 223.838 585.281 230.091 591.876 235.822 592.309 236.197 592.734 236.541 593.212 236.86 593.253 236.717 593.295 236.574 593.338 236.427 595.043 231.709 598.43 227.526 601.726 223.817 601.842 223.685 601.958 223.553 602.078 223.418 605.664 219.599 610.958 216.843 616.218 216.563 619.304 216.486 622.512 217.547 624.914 219.469 625.155 219.651 625.396 219.832 625.638 220.013 625.642 219.817 625.642 219.817 625.646 219.617 626.056 210.381 630.578 201.351 637.331 195.142 644.283 188.941 653.248 184.731 662.231 182.514 662.423 182.467 662.614 182.42 662.812 182.371 667.19 181.31 671.685 180.503 676.18 180.159 676.313 180.149 676.446 180.139 676.583 180.128 686.46 179.406 696.584 180.848 705.526 185.231ZM643.935 198.818C643.817 198.902 643.7 198.985 643.578 199.072 635.092 205.15 630.492 214.444 627.792 224.325 627.631 224.723 627.631 224.723 627.087 225.085 626.323 225.302 625.568 225.281 624.781 225.265 624.504 225.261 624.226 225.258 623.949 225.254 623.805 225.252 623.661 225.25 623.512 225.249 621.093 225.221 618.758 225.21 616.399 225.81 616.27 225.841 616.14 225.872 616.006 225.904 610.605 227.216 606.937 231.393 604.081 235.954 597.503 246.896 594.193 261.463 596.777 274.078 597.191 276.158 597.076 277.749 595.972 279.606 594.956 281.093 593.917 281.971 592.125 282.329 590.808 282.481 589.512 282.07 588.44 281.299 587.942 280.868 587.487 280.415 587.042 279.929 586.011 278.998 584.861 278.982 583.543 279 583.355 279.002 583.167 279.003 582.974 279.005 580.74 279.044 578.522 279.274 576.301 279.497 575.336 279.592 574.371 279.671 573.405 279.743 563.534 280.486 556.826 283.402 549.769 290.424 549.624 290.568 549.479 290.713 549.33 290.861 548.075 292.12 546.914 293.439 545.807 294.829 545.714 294.944 545.622 295.06 545.526 295.179 544.771 296.13 544.044 297.101 543.32 298.076 542.556 299.101 541.756 300.095 540.941 301.08 540.849 301.192 540.756 301.304 540.661 301.419 540.581 301.515 540.501 301.612 540.419 301.711 540.004 302.242 539.617 302.792 539.229 303.343 542.59 303.587 545.959 303.575 549.328 303.58 549.484 303.581 549.64 303.581 549.801 303.582 555.39 303.593 560.935 303.39 566.506 302.93 570.181 302.639 573.858 302.594 577.543 302.616 578.292 302.62 579.042 302.622 579.792 302.624 581.921 302.63 584.05 302.638 586.178 302.649 593.135 302.686 600.038 302.545 606.985 302.108 607.779 302.059 608.574 302.013 609.369 301.968 610.399 301.909 611.428 301.849 612.458 301.788 618.781 301.411 625.102 301.145 631.435 300.988 631.644 300.983 631.854 300.977 632.069 300.972 634.97 300.899 637.871 300.847 640.773 300.814 641.186 300.809 641.6 300.804 642.013 300.799 648.971 300.71 655.911 300.879 662.865 301.093 668.133 301.256 673.4 301.375 678.67 301.436 679.108 301.441 679.546 301.447 679.984 301.452 682.579 301.483 685.175 301.513 687.771 301.534 693.825 301.583 699.862 301.711 705.907 302.061 706.106 302.073 706.106 302.073 706.309 302.085 709.542 302.273 712.771 302.498 715.999 302.751 726.247 303.548 736.522 303.222 746.781 302.838 747.459 302.812 748.137 302.787 748.815 302.762 749.068 302.752 749.068 302.752 749.326 302.743 752.043 302.643 754.76 302.571 757.479 302.514 757.665 302.51 757.852 302.506 758.044 302.502 759.848 302.465 761.652 302.43 763.457 302.398 769.221 302.295 774.962 302.074 780.702 301.51 781.32 301.449 781.939 301.391 782.557 301.332 783.751 301.219 784.945 301.104 786.139 300.988 789.64 300.649 793.128 300.351 796.646 300.263 795.235 297.121 793.68 294.168 791.393 291.568 791.223 291.37 791.054 291.171 790.884 290.973 790.237 290.213 789.585 289.456 788.933 288.701 788.651 288.373 788.368 288.046 788.087 287.718 787.995 287.612 787.904 287.506 787.809 287.397 787.296 286.798 786.802 286.191 786.32 285.567 784.692 283.535 782.883 282.085 780.739 280.624 773.952 275.98 773.952 275.98 773.119 272.411 773.025 271.397 773.269 270.407 773.64 269.467 773.918 269.154 773.918 269.154 774.217 268.89 774.664 268.434 774.725 268.243 774.752 267.591 774.742 267.344 774.729 267.098 774.715 266.852 774.647 265.49 774.883 264.367 775.293 263.07 779.146 250.79 779.447 236.565 773.391 224.926 772.233 222.773 770.799 220.874 769.111 219.107 768.935 218.91 768.935 218.91 768.755 218.71 763.762 213.353 754.764 210.149 747.554 209.845 737.953 209.462 737.953 209.462 729.39 212.58 729.051 212.96 729.051 212.96 728.737 213.48 727.979 214.572 727.207 215.058 725.946 215.412 725.396 215.492 724.959 215.436 724.411 215.348 723.712 215.243 723.712 215.243 723.106 215.552 722.826 215.879 722.596 216.202 722.374 216.571 722.254 216.75 722.134 216.929 722.011 217.114 721.287 217.208 720.903 217.236 720.313 216.786 719.665 215.914 719.764 214.895 719.837 213.854 719.927 213.584 720.021 213.316 720.12 213.05 720.276 212.443 720.223 212.264 719.905 211.709 719.616 211.329 719.325 210.961 719.019 210.595 718.628 210.12 718.308 209.658 717.992 209.132 716.14 206.158 713.895 203.367 711.504 200.811 711.347 200.641 711.189 200.471 711.027 200.297 702.757 191.608 689.646 188.809 678.095 188.48 666.242 188.364 653.582 191.863 643.935 198.818ZM550.279 239.758C550.166 239.838 550.052 239.918 549.936 240 545.526 243.408 543.129 250.29 541.606 255.405 541.554 255.577 541.502 255.749 541.449 255.927 540.807 258.165 540.611 260.386 540.621 262.708 540.621 262.828 540.622 262.948 540.622 263.071 540.639 266.786 540.986 270.448 542.127 273.996 542.174 274.143 542.22 274.29 542.269 274.441 542.815 276.131 543.438 277.782 544.154 279.408 544.212 279.54 544.27 279.673 544.33 279.809 544.951 281.287 544.951 281.287 546.169 282.204 546.913 282.142 546.957 282.094 547.428 281.576 548.059 280.914 548.728 280.367 549.464 279.827 549.652 279.688 549.652 279.688 549.844 279.546 552.011 277.957 554.178 276.576 556.619 275.445 556.823 275.349 557.028 275.252 557.238 275.152 561.982 273.006 567.059 272.466 572.19 272.025 573.324 271.928 574.457 271.827 575.59 271.725 575.771 271.709 575.771 271.709 575.956 271.693 577.771 271.529 579.569 271.312 581.369 271.03 582.923 270.793 584.536 270.642 586.1 270.826 586.245 270.843 586.39 270.859 586.54 270.877 586.649 270.89 586.759 270.903 586.872 270.917 586.868 270.679 586.864 270.441 586.86 270.197 586.751 262.648 587.203 255.234 589.298 247.934 589.456 247.375 589.548 247.034 589.408 246.461 589.078 246.067 588.724 245.722 588.346 245.374 588.01 245.06 587.733 244.748 587.449 244.389 586.845 243.666 586.121 243.108 585.386 242.523 584.924 242.15 584.481 241.765 584.041 241.366 583.417 240.807 582.78 240.281 582.112 239.775 581.728 239.48 581.352 239.181 580.977 238.876 579.521 237.707 578.024 236.693 576.399 235.773 576.23 235.677 576.062 235.582 575.888 235.483 567.865 231.053 557.241 234.668 550.279 239.758Z" stroke="#FF87E0" stroke-width="0.181102" stroke-linecap="butt" stroke-linejoin="miter" stroke-miterlimit="4" stroke-opacity="1" fill="#FF87E0" fill-rule="nonzero" fill-opacity="1"/><path d="M607.398 188.673C608.57 189.338 609.462 190.279 609.878 191.572 610.201 193.599 609.582 194.972 608.614 196.678 608.367 197.116 608.142 197.564 607.919 198.014 607.833 198.186 607.747 198.358 607.658 198.535 607.315 199.235 606.981 199.938 606.648 200.643 603.787 206.671 603.787 206.671 601.907 209.144 601.799 209.287 601.692 209.43 601.581 209.577 600.736 210.625 599.74 211.255 598.465 211.68 596.952 211.841 595.722 211.694 594.48 210.774 593.49 209.755 592.98 208.717 592.963 207.287 593.004 205.448 593.843 204.284 594.807 202.772 596.382 200.272 597.647 197.601 598.862 194.912 600.009 192.385 601.117 189.974 603.583 188.504 604.895 188.132 606.141 188.106 607.398 188.673Z" stroke="#FF87E0" stroke-width="0.181102" stroke-linecap="butt" stroke-linejoin="miter" stroke-miterlimit="4" stroke-opacity="1" fill="#FF87E0" fill-rule="nonzero" fill-opacity="1"/><path d="M518.66 197.848C519.086 198.222 519.528 198.576 519.97 198.931 520.778 199.588 521.555 200.273 522.325 200.974 522.683 201.299 523.045 201.616 523.412 201.931 524.608 202.974 525.758 204.068 526.91 205.158 527.055 205.295 527.201 205.433 527.35 205.574 529.038 207.215 530.502 208.836 530.794 211.249 530.623 212.566 530.205 213.792 529.265 214.759 527.879 215.807 526.645 216.017 524.918 215.846 523.303 215.35 522.328 214.242 521.261 213.004 520.053 211.606 518.723 210.296 517.315 209.1 516.873 208.717 516.447 208.319 516.018 207.921 515.274 207.24 514.508 206.611 513.709 205.996 511.205 204.061 508.622 202.018 508.082 198.716 508 197.616 508.361 196.703 508.92 195.772 512.079 192.783 516.068 195.54 518.66 197.848Z" stroke="#FF87E0" stroke-width="0.181102" stroke-linecap="butt" stroke-linejoin="miter" stroke-miterlimit="4" stroke-opacity="1" fill="#FF87E0" fill-rule="nonzero" fill-opacity="1"/><path d="M491.121 235.433C491.46 235.509 491.799 235.584 492.138 235.66 492.957 235.843 493.776 236.029 494.594 236.217 494.982 236.306 495.37 236.393 495.758 236.48 497.746 236.923 499.71 237.417 501.651 238.037 501.879 238.108 501.879 238.108 502.112 238.18 503.611 238.683 504.756 239.463 505.541 240.856 506.132 242.046 506.246 243.086 505.874 244.366 505.396 245.66 504.758 246.537 503.519 247.174 501.615 248.049 500.137 247.643 498.236 246.977 496.749 246.463 495.273 246.056 493.73 245.736 493.357 245.659 492.986 245.58 492.614 245.501 491.692 245.304 490.771 245.11 489.849 244.916 489.063 244.751 488.278 244.585 487.493 244.417 487.13 244.339 486.767 244.264 486.403 244.189 484.241 243.726 482.27 243.089 480.999 241.151 480.475 240.105 480.405 238.954 480.716 237.834 481.238 236.499 482.159 235.58 483.453 234.992 485.906 234.097 488.68 234.873 491.121 235.433Z" stroke="#FF87E0" stroke-width="0.181102" stroke-linecap="butt" stroke-linejoin="miter" stroke-miterlimit="4" stroke-opacity="1" fill="#FF87E0" fill-rule="nonzero" fill-opacity="1"/><path d="M497.953 271.92C498.823 271.943 499.694 271.962 500.564 271.979 501.243 271.994 501.921 272.01 502.6 272.028 502.921 272.035 503.242 272.043 503.563 272.049 507.797 272.136 507.797 272.136 509.394 273.663 510.501 274.867 510.673 275.913 510.656 277.526 510.556 278.809 509.95 279.724 509.008 280.582 507.603 281.645 505.959 281.704 504.266 281.661 504.038 281.658 503.81 281.656 503.574 281.653 502.925 281.644 502.276 281.63 501.626 281.615 501.158 281.604 500.689 281.594 500.22 281.584 498.862 281.554 497.504 281.524 496.146 281.488 492.479 281.349 492.479 281.349 488.823 281.559 488.688 281.574 488.552 281.59 488.413 281.605 487.394 281.733 486.475 282.006 485.511 282.36 484.349 282.751 483.24 282.489 482.166 281.967 481.041 281.198 480.252 280.298 479.856 278.978 479.703 277.445 479.925 276.136 480.823 274.852 483.192 272.238 487.187 272.039 490.484 271.849 492.969 271.742 495.468 271.854 497.953 271.92Z" stroke="#FF87E0" stroke-width="0.181102" stroke-linecap="butt" stroke-linejoin="miter" stroke-miterlimit="4" stroke-opacity="1" fill="#FF87E0" fill-rule="nonzero" fill-opacity="1"/><path d="M753.691 320.337C756.401 321.84 758.231 324.856 759.658 327.508 760.371 328.827 761.142 330.108 761.922 331.387 761.989 331.496 762.055 331.605 762.124 331.718 762.895 332.984 763.674 334.245 764.459 335.502 765.513 337.192 766.523 338.896 767.463 340.652 767.656 341.01 767.852 341.364 768.05 341.719 768.888 343.26 769.41 344.656 768.919 346.4 768.368 347.792 767.57 348.727 766.213 349.355 764.923 349.737 763.716 349.621 762.493 349.069 760.533 347.941 759.515 345.816 758.424 343.921 758.297 343.701 758.297 343.701 758.167 343.477 757.828 342.889 757.49 342.302 757.152 341.714 756.669 340.876 756.168 340.055 755.639 339.245 754.513 337.519 753.478 335.74 752.446 333.957 752.359 333.809 752.273 333.66 752.184 333.506 747.883 326.056 747.883 326.056 748.872 322.364 749.222 321.4 749.802 320.766 750.634 320.19 751.699 319.835 752.661 319.882 753.691 320.337Z" stroke="#FF87E0" stroke-width="0.181102" stroke-linecap="butt" stroke-linejoin="miter" stroke-miterlimit="4" stroke-opacity="1" fill="#FF87E0" fill-rule="nonzero" fill-opacity="1"/><path d="M776.312 321.764C776.453 321.828 776.594 321.892 776.739 321.959 777.157 322.151 777.572 322.347 777.987 322.545 778.16 322.627 778.16 322.627 778.336 322.71 779.819 323.423 781.001 324.272 782.154 325.443 782.272 325.562 782.39 325.68 782.511 325.802 784.482 327.897 786.01 330.457 787.544 332.879 787.756 333.211 787.972 333.539 788.191 333.867 789.264 335.518 790.204 337.374 789.943 339.392 789.603 340.852 789.048 341.837 787.77 342.653 786.701 343.164 785.572 343.203 784.43 342.897 782.327 342.048 780.923 340.168 779.754 338.305 779.579 338.032 779.404 337.758 779.229 337.485 778.98 337.095 778.731 336.705 778.482 336.315 777.535 334.835 776.528 333.447 775.386 332.111 774.025 330.495 773.237 328.817 772.587 326.813 772.515 326.605 772.444 326.397 772.37 326.182 771.301 322.943 771.301 322.943 772.009 321.458 773.13 320.093 774.999 321.158 776.312 321.764Z" stroke="#FF87E0" stroke-width="0.181102" stroke-linecap="butt" stroke-linejoin="miter" stroke-miterlimit="4" stroke-opacity="1" fill="#FF87E0" fill-rule="nonzero" fill-opacity="1"/><path d="M726.618 321.57C728.967 322.834 730.57 324.704 731.895 326.983 732.116 327.354 732.337 327.724 732.558 328.094 732.671 328.284 732.784 328.475 732.9 328.671 734.824 331.91 736.854 335.064 738.957 338.189 739.655 339.226 740.35 340.265 741.032 341.312 741.161 341.509 741.29 341.705 741.422 341.908 742.281 343.354 742.757 344.956 742.482 346.638 742.095 347.921 741.475 348.651 740.341 349.345 739.378 349.812 738.362 349.876 737.332 349.6 734.796 348.677 733.166 346.588 731.68 344.43 731.572 344.274 731.464 344.118 731.352 343.957 729.198 340.825 727.234 337.571 725.274 334.316 724.885 333.671 724.492 333.029 724.095 332.388 720.431 326.449 720.431 326.449 720.996 323.638 721.318 322.556 722.003 321.912 722.917 321.277 724.187 320.854 725.413 321.03 726.618 321.57Z" stroke="#FF87E0" stroke-width="0.181102" stroke-linecap="butt" stroke-linejoin="miter" stroke-miterlimit="4" stroke-opacity="1" fill="#FF87E0" fill-rule="nonzero" fill-opacity="1"/><path d="M699.983 323.606C701.138 324.615 701.977 325.683 702.798 326.972 702.923 327.163 703.047 327.355 703.176 327.552 704.742 329.97 706.215 332.44 707.678 334.921 708.451 336.233 709.229 337.542 710.01 338.849 710.125 339.041 710.24 339.232 710.358 339.43 710.976 340.459 711.611 341.472 712.275 342.472 713.117 343.769 713.75 345.05 713.498 346.638 713.168 347.995 712.68 349.095 711.505 349.899 710.202 350.598 708.958 350.828 707.52 350.442 705.334 349.557 704.164 347.479 702.979 345.551 702.863 345.364 702.747 345.177 702.627 344.984 701.672 343.433 700.762 341.857 699.858 340.275 698.263 337.491 696.579 334.759 694.816 332.078 693.462 330.009 692.282 327.988 692.484 325.443 692.787 324.253 693.305 323.331 694.375 322.681 696.341 321.715 698.31 322.309 699.983 323.606Z" stroke="#FF87E0" stroke-width="0.181102" stroke-linecap="butt" stroke-linejoin="miter" stroke-miterlimit="4" stroke-opacity="1" fill="#FF87E0" fill-rule="nonzero" fill-opacity="1"/><path d="M656.083 333.323C657.998 334.942 659.1 336.759 659.474 339.263 659.707 342.157 658.434 344.846 656.603 347.023 653.118 350.697 647.935 352.431 642.965 352.634 637.881 352.681 632.882 350.791 628.355 348.631 628.067 348.494 628.067 348.494 627.773 348.355 625.917 347.413 624.055 345.906 623.283 343.921 623.059 342.709 623.117 341.844 623.464 340.66 623.524 340.184 623.577 339.711 623.622 339.234 623.751 338.087 623.96 337.129 624.551 336.131 624.631 335.994 624.712 335.857 624.795 335.716 627.13 331.999 631.507 330.382 635.601 329.429 635.725 329.399 635.85 329.369 635.978 329.338 642.658 327.792 650.523 329.218 656.083 333.323ZM628.717 338.305C628.717 338.485 628.717 338.664 628.717 338.849 628.93 338.91 628.93 338.91 629.147 338.973 630.641 339.418 632.075 339.957 633.518 340.547 638.148 342.404 642.724 343.823 647.559 341.891 648.453 341.469 649.186 340.967 649.912 340.298 649.819 339.487 649.55 339.087 649.006 338.486 648.617 338.193 648.24 337.928 647.829 337.671 647.662 337.566 647.662 337.566 647.491 337.458 641.853 333.983 634.263 335.202 628.717 338.305Z" stroke="#FF87E0" stroke-width="0.181102" stroke-linecap="butt" stroke-linejoin="miter" stroke-miterlimit="4" stroke-opacity="1" fill="#FF87E0" fill-rule="nonzero" fill-opacity="1"/><path d="M796.827 351.892C797.784 352.611 798.491 353.432 799.193 354.394 800.004 355.48 800.836 356.537 801.707 357.575 803.772 360.053 805.622 362.694 807.469 365.336 807.668 365.619 807.871 365.898 808.075 366.177 809.417 368.021 810.463 369.853 810.232 372.181 809.909 373.566 809.256 374.493 808.059 375.26 806.924 375.851 805.853 375.925 804.617 375.623 802.273 374.847 801.085 372.813 799.779 370.865 798.67 369.218 797.462 367.65 796.247 366.08 795.96 365.71 795.676 365.338 795.392 364.966 794.712 364.074 794.023 363.193 793.306 362.331 789.58 357.789 789.58 357.789 789.682 355.145 789.881 353.818 790.53 352.736 791.596 351.925 793.266 350.871 795.146 350.824 796.827 351.892Z" stroke="#FF87E0" stroke-width="0.181102" stroke-linecap="butt" stroke-linejoin="miter" stroke-miterlimit="4" stroke-opacity="1" fill="#FF87E0" fill-rule="nonzero" fill-opacity="1"/><path d="M774.002 355.152C775.759 356.288 776.935 357.829 777.999 359.602 778.099 359.765 778.198 359.929 778.301 360.097 778.838 360.977 779.367 361.861 779.895 362.747 781.521 365.465 783.203 368.027 785.413 370.309 786.486 371.421 787.188 372.462 787.239 374.021 787.163 375.288 786.705 376.496 785.808 377.409 784.737 378.26 783.559 378.819 782.166 378.753 779.219 378.352 777.305 375.74 775.613 373.518 773.868 371.166 772.367 368.639 770.854 366.135 770.786 366.022 770.717 365.909 770.647 365.792 767.103 359.945 767.103 359.945 767.877 356.658 768.21 355.538 768.683 355.042 769.688 354.45 771.193 354.006 772.643 354.436 774.002 355.152Z" stroke="#FF87E0" stroke-width="0.181102" stroke-linecap="butt" stroke-linejoin="miter" stroke-miterlimit="4" stroke-opacity="1" fill="#FF87E0" fill-rule="nonzero" fill-opacity="1"/><path d="M720.169 354.711C723.68 355.989 725.596 358.427 727.636 361.436 728.478 362.673 729.362 363.881 730.244 365.09 730.506 365.451 730.768 365.812 731.029 366.174 731.831 367.278 732.649 368.365 733.497 369.436 736.768 373.573 736.768 373.573 736.504 376.347 736.12 377.812 735.212 378.811 733.945 379.596 732.707 380.042 731.2 379.985 729.994 379.483 728.753 378.884 727.95 377.938 727.163 376.845 726.973 376.586 726.783 376.327 726.592 376.068 726.495 375.935 726.397 375.802 726.297 375.665 725.806 375.002 725.301 374.35 724.797 373.698 723.941 372.583 723.11 371.453 722.299 370.305 721.961 369.826 721.617 369.35 721.272 368.877 715.943 361.577 715.943 361.577 716.215 357.87 716.433 356.601 716.888 355.662 717.845 354.79 718.595 354.415 719.385 354.469 720.169 354.711Z" stroke="#FF87E0" stroke-width="0.181102" stroke-linecap="butt" stroke-linejoin="miter" stroke-miterlimit="4" stroke-opacity="1" fill="#FF87E0" fill-rule="nonzero" fill-opacity="1"/><path d="M747.735 356.42C749.478 357.828 750.82 359.433 752.03 361.309 752.197 361.563 752.197 361.563 752.366 361.823 752.718 362.361 753.068 362.901 753.419 363.44 755.681 366.932 755.681 366.932 758.189 370.25 759.322 371.648 760.174 373.189 760.053 375.045 759.763 376.587 758.986 377.634 757.698 378.521 756.541 379.09 755.097 379.089 753.871 378.702 749.782 376.873 747.101 371.194 744.799 367.612 744.486 367.127 744.169 366.644 743.851 366.162 742.307 363.8 740.76 361.174 741.032 358.232 741.287 357.215 741.707 356.42 742.481 355.696 744.242 354.691 746.179 355.31 747.735 356.42Z" stroke="#FF87E0" stroke-width="0.181102" stroke-linecap="butt" stroke-linejoin="miter" stroke-miterlimit="4" stroke-opacity="1" fill="#FF87E0" fill-rule="nonzero" fill-opacity="1"/><path d="M632.16 360.225C634.908 362.357 636.583 365.293 637.135 368.718 637.465 371.554 636.631 374.349 635.058 376.709 632.576 379.825 629.246 381.659 625.276 382.144 621.73 382.456 617.822 381.034 615.086 378.838 613.692 377.556 612.8 375.711 612.708 373.811 612.777 372.344 613.292 371.122 614.226 370.007 614.409 369.893 614.409 369.893 614.597 369.776 615.103 369.328 615.131 368.908 615.267 368.252 615.762 366.138 616.755 364.025 618.211 362.398 618.323 362.267 618.436 362.136 618.551 362.001 621.958 358.293 627.897 357.38 632.16 360.225ZM621.472 368.195C621.026 368.785 620.609 369.389 620.204 370.007 621.121 371.449 621.85 372.071 623.501 372.454 624.679 372.646 625.686 372.435 626.694 371.786 627.22 371.374 627.575 370.992 627.812 370.369 627.787 369.533 627.571 368.887 627.042 368.241 626.796 368.039 626.796 368.039 626.544 367.833 626.376 367.669 626.208 367.504 626.034 367.335 624.477 366.236 622.696 366.849 621.472 368.195Z" stroke="#FF87E0" stroke-width="0.181102" stroke-linecap="butt" stroke-linejoin="miter" stroke-miterlimit="4" stroke-opacity="1" fill="#FF87E0" fill-rule="nonzero" fill-opacity="1"/><path d="M575.821 368.92C575.984 369.036 576.148 369.153 576.316 369.273 580.625 372.561 582.459 377.914 583.188 383.105 583.757 387.673 583.269 392.219 580.361 395.957 580.119 396.246 579.874 396.533 579.625 396.817 579.529 396.931 579.433 397.044 579.334 397.161 577.713 398.935 574.946 400.493 572.561 400.803 572.602 401.096 572.602 401.096 572.645 401.395 572.768 402.382 572.802 403.37 572.839 404.363 572.846 404.566 572.854 404.769 572.862 404.978 572.887 405.636 572.911 406.293 572.934 406.951 572.942 407.173 572.95 407.396 572.959 407.626 573.056 410.341 573.14 413.054 573.138 415.77 573.138 416.009 573.138 416.248 573.138 416.494 573.133 417.394 573.109 418.218 572.923 419.099 575.256 419.059 577.589 419.018 579.922 418.976 581.006 418.957 582.091 418.937 583.175 418.919 590.696 418.791 598.213 418.618 605.711 417.99 606.178 417.952 606.644 417.914 607.111 417.877 609.861 417.654 612.607 417.402 615.354 417.137 615.877 417.087 616.399 417.037 616.922 416.988 617.273 416.954 617.623 416.921 617.973 416.888 618.146 416.871 618.32 416.854 618.498 416.837 619.351 416.756 620.203 416.673 621.055 416.587 624.435 416.247 627.796 415.957 631.195 415.944 631.327 415.943 631.459 415.941 631.594 415.94 634.595 415.921 637.644 416.278 639.949 418.375 641.256 419.719 641.648 421.385 641.627 423.225 641.621 423.468 641.621 423.468 641.614 423.717 641.609 424.08 641.604 424.443 641.599 424.806 641.594 425.088 641.594 425.088 641.589 425.376 641.529 429.06 641.652 432.675 642.018 436.339 642.177 437.932 642.326 439.525 642.475 441.119 642.5 441.384 642.525 441.649 642.55 441.914 642.562 442.046 642.575 442.178 642.588 442.314 642.662 443.103 642.737 443.893 642.814 444.682 642.85 445.059 642.887 445.435 642.922 445.812 642.967 446.277 643.012 446.743 643.058 447.208 643.167 448.352 643.234 449.471 643.21 450.62 643.393 450.614 643.393 450.614 643.579 450.608 649.291 450.431 654.29 452.148 658.554 456.09 660.947 458.394 662.189 461.474 662.593 464.75 662.63 465.032 662.63 465.032 662.667 465.321 663.232 470.925 660.955 476.911 657.521 481.291 657.282 481.576 657.041 481.859 656.796 482.14 656.672 482.284 656.548 482.428 656.42 482.577 656.009 483.043 655.59 483.498 655.166 483.952 655.046 484.081 655.046 484.081 654.923 484.214 653.038 486.228 651.001 487.687 648.565 488.979 648.416 489.058 648.268 489.137 648.115 489.218 646.76 489.914 645.353 490.467 643.935 491.017 643.86 491.808 643.786 492.6 643.712 493.392 643.688 493.659 643.662 493.927 643.637 494.195 643.318 497.562 643.176 500.904 643.176 504.287 643.176 504.893 643.173 505.498 643.169 506.104 643.16 509.633 643.383 513.109 643.957 516.593 644.192 518.131 644.368 519.644 644.376 521.201 644.378 521.348 644.38 521.495 644.381 521.646 644.357 523.379 643.871 524.893 642.667 526.16 641.276 527.454 639.804 527.922 637.914 527.862 637.203 527.787 636.57 527.611 635.894 527.39 633.845 526.757 631.75 526.362 629.646 525.956 629.442 525.917 629.238 525.877 629.027 525.836 626.035 525.254 623.067 524.736 620.022 524.53 619.826 524.514 619.629 524.498 619.426 524.481 616.562 524.274 613.687 524.304 610.818 524.303 610.671 524.303 610.525 524.303 610.375 524.303 604.354 524.3 598.356 524.501 592.345 524.831 591.48 524.878 590.616 524.924 589.751 524.969 583.15 525.311 576.562 525.786 569.973 526.304 564.135 526.763 558.303 527.17 552.453 527.428 552.249 527.437 552.046 527.446 551.837 527.456 550.374 527.521 548.911 527.583 547.448 527.643 547.258 527.651 547.068 527.659 546.871 527.667 538.923 527.988 531.426 527.123 523.701 525.302 521.425 524.768 519.156 524.329 516.845 523.986 516.713 523.966 516.582 523.946 516.447 523.925 512.463 523.317 509.276 524.18 505.648 525.787 502.673 527.094 499.84 528.023 496.654 526.931 495.204 526.321 494.299 525.375 493.578 523.986 493.106 522.651 492.926 521.303 492.797 519.899 492.65 518.45 492.486 517.009 492.266 515.569 491.626 511.356 491.124 507.134 490.672 502.897 490.624 502.445 490.575 501.992 490.526 501.54 489.864 495.381 489.864 495.381 489.774 492.466 489.617 492.477 489.459 492.488 489.297 492.5 484.159 492.807 478.071 489.474 474.195 486.307 474.039 486.181 473.883 486.054 473.722 485.925 470.136 482.873 468.09 478.377 467.703 473.721 467.693 473.57 467.684 473.419 467.673 473.264 467.664 473.122 467.654 472.98 467.644 472.834 467.444 467.024 470.032 461.243 473.915 457.037 477.49 453.236 481.947 450.44 487.23 449.875 487.371 449.859 487.512 449.843 487.657 449.827 488 449.788 488.344 449.751 488.687 449.714 488.698 449.488 488.698 449.488 488.708 449.257 488.777 447.814 488.848 446.37 488.924 444.927 488.962 444.186 488.999 443.444 489.034 442.703 489.201 439.113 489.488 435.653 490.317 432.142 490.348 432.009 490.379 431.875 490.41 431.737 490.574 431.029 490.757 430.329 490.951 429.629 491.025 429.351 491.025 429.351 491.099 429.067 491.956 425.922 491.956 425.922 492.879 424.777 493.321 424.22 493.27 423.919 493.216 423.22 493.169 421.642 493.656 420.533 494.717 419.372 495.802 418.418 497.035 418.184 498.436 418.115 498.689 418.102 498.943 418.089 499.196 418.076 499.33 418.069 499.464 418.063 499.602 418.056 501.426 417.964 503.248 417.872 505.066 417.687 512.067 416.978 519.033 417.227 526.036 417.777 527.432 417.886 528.827 417.991 530.223 418.096 530.456 418.114 530.456 418.114 530.694 418.132 534.263 418.401 537.832 418.665 541.402 418.918 541.613 418.933 541.823 418.948 542.04 418.963 542.316 418.983 542.316 418.983 542.599 419.003 542.749 419.013 542.9 419.024 543.056 419.035 544.448 419.124 545.839 419.19 547.233 419.229 547.407 419.233 547.581 419.238 547.76 419.243 549.584 419.29 551.408 419.299 553.233 419.3 553.581 419.301 553.929 419.301 554.276 419.302 557.714 419.307 561.152 419.296 564.59 419.28 564.575 419.173 564.56 419.066 564.544 418.956 564.254 416.87 563.966 414.787 563.763 412.691 563.741 412.464 563.719 412.237 563.696 412.003 563.398 408.821 563.277 405.625 563.141 402.433 562.974 402.412 562.808 402.392 562.637 402.371 558.119 401.774 554.159 399.362 551.303 395.788 549.32 393.16 548.31 390.251 547.743 387.035 547.681 386.691 547.681 386.691 547.619 386.34 546.771 380.854 547.784 375.236 551.06 370.697 553.443 367.641 556.458 365.655 560.312 365.014 565.539 364.382 571.542 365.836 575.821 368.92ZM558.793 375.441C556.673 378.17 556.453 381.833 556.857 385.146 557.121 386.861 557.555 388.347 558.612 389.752 558.724 389.917 558.836 390.081 558.951 390.251 559.502 390.833 560.124 391.294 560.786 391.745 560.974 391.899 560.974 391.899 561.166 392.057 561.979 392.416 562.715 392.275 563.582 392.175 563.75 392.16 563.919 392.145 564.092 392.129 565.044 392.03 565.736 391.852 566.583 391.383 567.459 391.178 568.284 391.135 569.153 391.383 570.068 391.623 570.683 391.613 571.527 391.159 572.807 390.348 573.517 389.571 573.912 388.094 574.514 384.92 573.604 380.836 571.836 378.159 570.061 375.718 566.704 374.858 563.865 374.354 561.875 374.06 560.341 374.059 558.793 375.441ZM621.979 426.144C621.212 426.217 620.445 426.288 619.678 426.36 618.416 426.477 617.156 426.595 615.895 426.714 600.019 428.213 600.019 428.213 592.211 428.431 592.004 428.436 592.004 428.436 591.793 428.442 588.334 428.538 584.875 428.574 581.414 428.61 580.187 428.622 578.96 428.635 577.733 428.649 577.58 428.651 577.426 428.653 577.268 428.654 575.123 428.679 572.98 428.724 570.836 428.781 566.439 428.898 562.044 428.921 557.647 428.925 556.775 428.926 555.904 428.928 555.032 428.932 549.077 428.96 543.174 428.793 537.236 428.338 537.061 428.325 536.887 428.311 536.707 428.298 534.332 428.117 531.958 427.923 529.584 427.723 528.233 427.61 526.883 427.498 525.532 427.386 525.072 427.347 524.613 427.309 524.153 427.27 521.71 427.065 519.263 426.875 516.81 426.839 516.657 426.837 516.504 426.835 516.346 426.832 515.848 426.827 515.35 426.823 514.852 426.821 514.678 426.82 514.504 426.819 514.324 426.818 510.106 426.808 505.931 427.214 501.739 427.638 500.168 427.794 498.597 427.903 497.02 427.976 497.292 429.536 497.62 431.079 497.968 432.624 498.405 434.596 498.505 436.467 498.503 438.482 498.503 438.694 498.503 438.694 498.503 438.91 498.502 441.482 498.401 444.045 498.252 446.612 497.94 452.007 497.882 457.4 497.88 462.802 497.88 462.981 497.88 463.159 497.88 463.343 497.878 469.129 498.008 474.878 498.386 480.653 498.47 481.94 498.54 483.227 498.608 484.514 498.967 491.234 499.528 497.914 500.281 504.603 500.323 504.979 500.364 505.355 500.406 505.731 500.818 509.415 501.266 513.088 501.911 516.74 502.661 516.638 503.293 516.37 503.982 516.074 508.293 514.23 512.579 513.692 517.219 514.317 517.338 514.333 517.457 514.349 517.58 514.365 521.296 514.859 524.946 515.662 528.591 516.524 530.076 516.871 531.568 517.162 533.069 517.431 533.278 517.468 533.487 517.506 533.701 517.545 538.589 518.397 543.577 518.228 548.511 517.983 549.057 517.956 549.603 517.93 550.149 517.905 551.883 517.824 553.617 517.737 555.351 517.646 555.564 517.635 555.778 517.624 555.998 517.612 560.454 517.378 564.899 517.039 569.345 516.661 577.365 515.979 585.389 515.475 593.427 515.076 593.659 515.064 593.659 515.064 593.896 515.052 599.519 514.771 605.141 514.527 610.772 514.532 610.955 514.533 611.138 514.533 611.326 514.533 614.659 514.537 617.969 514.652 621.291 514.929 621.482 514.943 621.674 514.958 621.872 514.973 626.076 515.306 630.209 516.26 634.333 517.103 634.213 515.076 634.213 515.076 634.055 513.052 633.828 510.373 633.751 507.709 633.745 505.022 633.744 504.867 633.743 504.711 633.742 504.551 633.716 499.08 634.233 493.623 634.732 488.18 635.435 480.606 635.435 480.606 635.649 473.007 635.647 472.616 635.649 472.225 635.651 471.833 635.66 465.665 634.909 459.514 634.286 453.387 632.318 434.037 632.318 434.037 632.114 428.825 632.1 428.504 632.086 428.183 632.072 427.863 632.039 427.115 632.008 426.368 631.979 425.621 628.619 425.517 625.317 425.822 621.979 426.144ZM643.935 456.598C644.041 458.464 644.182 460.324 644.351 462.186 644.891 468.182 644.933 474.133 644.659 480.147 645.693 479.614 646.556 479.07 647.399 478.268 647.492 478.181 647.584 478.093 647.679 478.003 647.942 477.753 648.203 477.501 648.463 477.249 648.587 477.134 648.711 477.02 648.839 476.902 651.258 474.613 653.129 470.869 653.391 467.545 653.442 464.772 652.376 462.269 650.615 460.153 648.866 458.344 646.415 456.988 643.935 456.598ZM481.803 462.576C481.637 462.725 481.47 462.875 481.299 463.029 478.722 465.467 477.138 468.68 477.037 472.245 477.084 474.635 477.887 476.63 479.497 478.401 481.63 480.423 486.233 483.046 489.23 483.046 489.208 482.431 489.186 481.816 489.163 481.2 489.151 480.888 489.151 480.888 489.139 480.57 489.089 479.243 489.03 477.917 488.963 476.59 488.678 470.833 488.577 465.078 488.506 459.315 486.091 459.315 483.525 461.028 481.803 462.576Z" stroke="#FF87E0" stroke-width="0.181102" stroke-linecap="butt" stroke-linejoin="miter" stroke-miterlimit="4" stroke-opacity="1" fill="#FF87E0" fill-rule="nonzero" fill-opacity="1"/><path d="M767.605 387.533C769.545 388.786 770.904 390.306 772.283 392.12 772.757 392.734 773.25 393.331 773.742 393.93 774.458 394.805 775.156 395.688 775.837 396.591 776.729 397.761 777.706 398.826 778.712 399.897 780.331 401.624 781.339 402.864 781.309 405.3 781.177 406.546 780.633 407.52 779.663 408.309 778.456 409.105 777.33 409.453 775.887 409.237 774.332 408.875 773.315 407.866 772.191 406.781 772.039 406.636 771.887 406.491 771.73 406.342 770.646 405.286 769.684 404.164 768.749 402.977 768.589 402.774 768.428 402.572 768.268 402.369 767.299 401.144 766.343 399.91 765.394 398.67 765.088 398.27 764.779 397.874 764.467 397.478 762.515 394.995 760.395 391.759 760.626 388.429 760.806 387.506 761.211 386.949 761.865 386.311 763.748 385.221 765.955 386.559 767.605 387.533Z" stroke="#FF87E0" stroke-width="0.181102" stroke-linecap="butt" stroke-linejoin="miter" stroke-miterlimit="4" stroke-opacity="1" fill="#FF87E0" fill-rule="nonzero" fill-opacity="1"/><path d="M746.104 387.216C747.038 387.91 747.661 388.639 748.244 389.639 748.401 389.898 748.558 390.157 748.715 390.416 748.793 390.547 748.871 390.678 748.952 390.813 750.747 393.818 752.712 396.705 754.868 399.463 755.573 400.368 756.248 401.296 756.925 402.222 757.432 402.914 757.94 403.603 758.465 404.281 759.637 405.804 760.485 407.061 760.427 409.045 760.256 410.32 759.723 411.371 758.732 412.201 757.384 413.125 756.244 413.277 754.619 413.121 752.123 412.429 750.691 409.779 749.259 407.808 748.759 407.12 748.246 406.444 747.724 405.773 738.608 393.981 738.608 393.981 739.04 389.209 739.366 388.146 739.864 387.234 740.851 386.673 742.715 385.791 744.406 386.108 746.104 387.216Z" stroke="#FF87E0" stroke-width="0.181102" stroke-linecap="butt" stroke-linejoin="miter" stroke-miterlimit="4" stroke-opacity="1" fill="#FF87E0" fill-rule="nonzero" fill-opacity="1"/><path d="M817.136 387.62C818.441 388.545 819.429 389.814 820.446 391.032 820.725 391.365 821.007 391.696 821.289 392.025 822.22 393.114 822.22 393.114 822.481 393.441 822.732 393.749 822.732 393.749 823.052 394.034 824.136 395.152 824.156 396.289 824.144 397.762 824.138 398.074 824.131 398.386 824.125 398.697 824.122 399.02 824.12 399.343 824.119 399.665 824.114 400.51 824.102 401.354 824.088 402.198 824.075 403.061 824.069 403.925 824.063 404.788 824.049 406.479 824.028 408.17 824.001 409.86 823.797 409.686 823.593 409.512 823.389 409.338 823.276 409.241 823.162 409.144 823.045 409.044 821.489 407.697 820.193 406.083 818.94 404.46 818.829 404.316 818.718 404.173 818.603 404.026 818.022 403.274 817.453 402.517 816.902 401.742 816.147 400.688 815.304 399.716 814.461 398.732 813.96 398.143 813.473 397.543 812.987 396.942 812.712 396.606 812.433 396.274 812.15 395.945 810.848 394.416 809.978 392.963 810.015 390.917 810.139 389.461 810.755 388.346 811.864 387.397 813.483 386.396 815.558 386.698 817.136 387.62Z" stroke="#FF87E0" stroke-width="0.181102" stroke-linecap="butt" stroke-linejoin="miter" stroke-miterlimit="4" stroke-opacity="1" fill="#FF87E0" fill-rule="nonzero" fill-opacity="1"/><path d="M793.566 388.847C795.316 389.837 796.39 391.243 797.552 392.832 799.178 395.027 800.783 397.184 802.744 399.095 802.883 399.23 802.883 399.23 803.025 399.369 803.493 399.827 803.964 400.281 804.441 400.731 805.757 401.994 806.591 403.132 806.689 404.992 806.617 406.472 806.072 407.591 804.979 408.592 803.718 409.493 802.508 409.632 800.994 409.498 799.438 409.184 798.405 408.169 797.314 407.085 796.986 406.759 796.655 406.438 796.323 406.116 795.01 404.834 793.787 403.523 792.661 402.071 792.502 401.871 792.342 401.672 792.183 401.474 791.021 400.019 789.91 398.534 788.856 396.999 788.748 396.84 788.639 396.682 788.527 396.519 787.385 394.747 786.79 392.771 787.045 390.658 787.267 389.727 787.763 389.094 788.494 388.484 790.146 387.689 791.986 388.051 793.566 388.847Z" stroke="#FF87E0" stroke-width="0.181102" stroke-linecap="butt" stroke-linejoin="miter" stroke-miterlimit="4" stroke-opacity="1" fill="#FF87E0" fill-rule="nonzero" fill-opacity="1"/><path d="M612.613 444.172C616.513 447.653 618.471 453.928 618.78 459.015 618.925 462.73 618.3 466.328 615.754 469.199 615.488 469.469 615.221 469.737 614.95 470.003 614.853 470.113 614.755 470.223 614.654 470.337 612.098 473.163 607.633 474.849 603.889 475.1 598.386 475.339 593.931 473.105 589.77 469.641 589.621 469.517 589.473 469.394 589.319 469.266 588.318 468.355 587.712 467.331 587.084 466.149 586.748 465.521 586.439 464.975 585.932 464.466 584.013 462.415 583.376 458.231 583.41 455.565 583.511 453.41 583.962 451.306 584.879 449.352 584.955 449.185 585.031 449.019 585.109 448.848 586.803 445.45 589.697 443.361 593.212 442.105 594.159 441.791 595.116 441.529 596.086 441.294 596.436 441.209 596.784 441.116 597.132 441.023 602.547 439.763 608.283 440.596 612.613 444.172ZM593.937 452.431C592.828 453.717 592.718 455.474 592.536 457.096 592.494 457.45 592.437 457.801 592.378 458.152 592.314 458.737 592.299 459.119 592.487 459.677 593.134 460.345 593.884 460.805 594.661 461.308 594.931 461.543 595.196 461.784 595.454 462.032 597.231 463.645 599.827 465.462 602.293 465.478 604.592 465.339 606.734 464.827 608.402 463.143 609.517 461.872 609.431 460.674 609.368 459.04 609.176 456.447 608.263 453.231 606.436 451.344 603.203 449.184 596.865 449.911 593.937 452.431Z" stroke="#FF87E0" stroke-width="0.181102" stroke-linecap="butt" stroke-linejoin="miter" stroke-miterlimit="4" stroke-opacity="1" fill="#FF87E0" fill-rule="nonzero" fill-opacity="1"/><path d="M549.373 449.714C550.013 450.225 550.604 450.767 551.185 451.344 551.374 451.524 551.374 451.524 551.567 451.708 553.803 453.992 554.97 457.557 555.034 460.708 554.966 465.665 553.243 470.122 549.871 473.751 546.839 476.606 542.719 478.476 538.527 478.384 535.342 478.23 532.306 476.669 529.99 474.532 529.827 474.383 529.663 474.234 529.495 474.081 527.321 472.008 525.798 469.647 525.066 466.712 524.848 465.957 524.531 465.252 524.208 464.536 523.084 461.613 524.059 457.941 525.206 455.164 527.07 451.073 529.768 448.619 533.887 446.914 538.87 445.301 545.182 446.699 549.373 449.714ZM532.263 459.619C531.388 460.623 531.388 460.623 531.077 461.851 531.29 461.937 531.503 462.023 531.722 462.111 533.019 462.765 533.671 463.999 534.405 465.202 535.425 466.823 536.667 468.095 538.504 468.735 539.808 468.948 541.106 468.414 542.21 467.737 544.051 466.386 544.976 464.766 545.524 462.576 545.717 460.501 545.717 460.501 545.025 458.59 543.473 456.806 541.415 456.171 539.117 456.008 535.964 455.912 534.262 457.31 532.263 459.619Z" stroke="#FF87E0" stroke-width="0.181102" stroke-linecap="butt" stroke-linejoin="miter" stroke-miterlimit="4" stroke-opacity="1" fill="#FF87E0" fill-rule="nonzero" fill-opacity="1"/><path d="M562.065 490.076C562.234 490.076 562.403 490.076 562.577 490.076 563.849 490.085 565.102 490.177 566.367 490.292 568.775 490.5 571.176 490.508 573.591 490.507 573.872 490.507 573.872 490.507 574.158 490.507 576.134 490.507 578.097 490.474 580.068 490.334 581.067 490.268 582.065 490.251 583.067 490.246 583.258 490.243 583.449 490.239 583.645 490.235 585.461 490.226 586.625 490.627 587.961 491.891 588.926 492.945 589.278 494.122 589.227 495.545 588.999 496.99 588.377 498.123 587.278 499.084 585.933 499.988 584.269 499.968 582.705 500.074 582.486 500.09 582.267 500.106 582.041 500.122 576.384 500.535 570.787 500.498 565.133 500.074 564.935 500.059 564.737 500.045 564.533 500.03 558.861 499.602 558.861 499.602 556.8 497.345 555.976 496.376 555.809 495.483 555.839 494.237 555.983 492.93 556.671 492.109 557.666 491.295 559.061 490.329 560.407 490.075 562.065 490.076Z" stroke="#FF87E0" stroke-width="0.181102" stroke-linecap="butt" stroke-linejoin="miter" stroke-miterlimit="4" stroke-opacity="1" fill="#FF87E0" fill-rule="nonzero" fill-opacity="1"/></g></g></g></g></g></svg>