<svg width="370" height="370" xmlns="http://www.w3.org/2000/svg" xmlns:xlink="http://www.w3.org/1999/xlink" xml:space="preserve" overflow="hidden"><defs><clipPath id="clip0"><rect x="856" y="174" width="370" height="370"/></clipPath><clipPath id="clip1"><rect x="856" y="174" width="370" height="370"/></clipPath><clipPath id="clip2"><rect x="857" y="175" width="369" height="369"/></clipPath><clipPath id="clip3"><rect x="857" y="175" width="369" height="369"/></clipPath><clipPath id="clip4"><rect x="857" y="175" width="369" height="369"/></clipPath></defs><g clip-path="url(#clip0)" transform="translate(-856 -174)"><g clip-path="url(#clip1)"><g clip-path="url(#clip2)"><g clip-path="url(#clip3)"><g clip-path="url(#clip4)"><path d="M1003.66 203.674C1005.47 205.352 1007.22 207.082 1008.71 209.053 1008.78 209.147 1008.85 209.241 1008.93 209.338 1010.98 212.001 1012.76 214.886 1014.29 217.882 1014.95 217.786 1015.49 217.583 1016.09 217.302 1025.53 212.853 1036.93 213.062 1046.73 216.08 1046.97 216.154 1046.97 216.154 1047.22 216.229 1055.43 218.702 1063.26 223.431 1069.56 229.22 1069.82 229.461 1070.09 229.699 1070.36 229.933 1072.68 231.961 1074.97 234.15 1076.81 236.62 1076.97 236.818 1077.12 237.016 1077.27 237.213 1084.03 246.058 1086.41 257.013 1085.1 267.971 1084.4 272.865 1083.09 277.592 1081.48 282.261 1081.43 282.393 1081.39 282.524 1081.34 282.66 1080.85 284.101 1080.36 285.37 1079.34 286.529 1079.16 286.768 1078.97 287.008 1078.8 287.25 1078.99 287.269 1079.18 287.289 1079.38 287.31 1080.39 287.436 1081.37 287.679 1082.36 287.91 1084.29 288.349 1086.22 288.729 1088.17 289.072 1088.3 289.095 1088.43 289.118 1088.57 289.142 1089.11 289.238 1089.65 289.333 1090.2 289.428 1099.58 291.069 1108.54 293.122 1117.35 296.799 1117.47 296.847 1117.59 296.895 1117.71 296.945 1121.19 298.397 1124.6 299.981 1127.98 301.664 1128.14 301.743 1128.3 301.822 1128.47 301.903 1132.43 303.876 1135.51 306.191 1137.35 310.312 1138.06 312.643 1137.77 315.519 1136.63 317.646 1136.15 318.443 1135.63 319.163 1135.01 319.861 1134.9 320.01 1134.78 320.158 1134.66 320.311 1133.35 321.899 1131.53 322.822 1129.61 323.465 1129.12 323.485 1128.63 323.494 1128.14 323.495 1127.99 323.496 1127.84 323.497 1127.69 323.497 1127.2 323.499 1126.71 323.499 1126.22 323.499 1126.05 323.499 1125.88 323.499 1125.7 323.499 1123.09 323.496 1120.49 323.414 1117.88 323.257 1117.59 323.24 1117.31 323.223 1117.02 323.206 1116.87 323.197 1116.73 323.189 1116.58 323.18 1115.05 323.092 1113.52 323.04 1111.99 322.987 1102.93 322.672 1093.92 321.927 1084.89 321.14 1076.82 320.436 1068.74 319.815 1060.65 319.235 1059.49 319.152 1058.33 319.067 1057.17 318.982 1054.69 318.801 1052.21 318.628 1049.73 318.464 1049.28 318.434 1048.83 318.404 1048.38 318.374 1035.79 317.531 1023.19 316.946 1010.59 316.323 1007.42 316.166 1004.25 316.008 1001.07 315.844 995.503 315.557 989.934 315.292 984.361 315.07 984.075 315.059 983.788 315.048 983.501 315.036 981.643 314.962 979.785 314.893 977.926 314.83 977.548 314.817 977.171 314.803 976.793 314.79 970.404 314.56 964.009 314.6 957.618 314.602 957.153 314.603 956.687 314.603 956.222 314.603 947.947 314.602 939.679 314.631 931.408 314.921 929.379 314.991 927.351 315.039 925.322 315.082 924.996 315.089 924.67 315.096 924.345 315.103 923.852 315.113 923.36 315.123 922.868 315.134 917.389 315.25 911.912 315.407 906.436 315.627 906.231 315.635 906.231 315.635 906.022 315.644 900.273 315.873 894.535 316.193 888.8 316.65 875.912 317.673 875.912 317.673 870.693 317.519 870.552 317.516 870.412 317.512 870.267 317.509 866.746 317.41 866.746 317.41 865.288 316.438 865.288 316.319 865.288 316.2 865.288 316.078 865.169 316.078 865.05 316.078 864.928 316.078 864.928 315.959 864.928 315.84 864.928 315.717 864.749 315.658 864.571 315.598 864.387 315.537 863.504 314.275 863.455 312.897 863.667 311.393 863.83 311.024 864.018 310.675 864.211 310.32 864.502 309.713 864.588 309.079 864.703 308.42 865.597 303.998 868.507 301.344 872.154 298.91 872.429 298.729 872.429 298.729 872.709 298.544 872.894 298.42 873.08 298.296 873.27 298.168 875.877 296.438 875.877 296.438 876.639 296.438 876.601 296.34 876.563 296.242 876.524 296.14 873.2 287.463 871.671 278.129 875.445 269.356 876.895 266.115 878.974 263.404 881.324 260.764 881.432 260.642 881.541 260.519 881.653 260.394 885.434 256.403 890.867 253.464 896.098 251.935 896.371 251.849 896.371 251.849 896.649 251.761 898.159 251.353 899.654 251.339 901.211 251.327 901.429 251.325 901.648 251.322 901.873 251.319 903.08 251.326 904.011 251.421 905.107 251.935 905.07 251.748 905.033 251.561 904.995 251.368 902.762 239.896 908.086 228.062 914.389 218.679 915.261 217.405 916.194 216.188 917.179 214.999 917.262 214.898 917.346 214.797 917.432 214.693 919.578 212.109 921.863 209.653 924.386 207.432 924.476 207.351 924.566 207.271 924.66 207.188 934.112 198.813 946.821 193.226 959.34 191.756 959.488 191.738 959.637 191.719 959.79 191.7 975.129 189.85 992.003 193.063 1003.66 203.674ZM932.674 211.756C932.554 211.838 932.433 211.921 932.31 212.006 928.607 214.557 925.195 217.592 922.404 221.125 922.249 221.316 922.093 221.507 921.938 221.697 920.597 223.354 919.407 225.096 918.26 226.891 918.188 227.003 918.116 227.116 918.042 227.232 914.035 233.564 910.478 241.155 910.479 248.763 910.479 249.172 910.475 249.581 910.472 249.99 910.467 251.354 910.517 252.648 910.789 253.991 911.011 255.237 911.07 256.442 910.332 257.521 909.78 257.797 909.32 257.742 908.71 257.701 908.215 257.442 908.215 257.442 907.81 257.16 907.631 257.101 907.453 257.041 907.269 256.98 907.269 257.099 907.269 257.218 907.269 257.34 906.648 257.606 906.057 257.784 905.395 257.915 900.06 259.026 895.512 261.118 891.414 264.728 891.314 264.815 891.214 264.902 891.112 264.992 890.479 265.552 889.863 266.127 889.251 266.709 888.999 266.945 888.999 266.945 888.741 267.185 886.06 269.754 884.278 272.845 883.306 276.439 883.258 276.614 883.258 276.614 883.21 276.793 881.924 281.808 883.593 288.129 885.817 292.677 886.224 293.614 886.278 294.485 886.29 295.493 886.292 295.635 886.295 295.778 886.298 295.926 886.275 297.247 885.856 298.143 885.005 299.145 884.828 299.316 884.648 299.483 884.466 299.648 884.365 299.739 884.265 299.831 884.162 299.925 883.196 300.77 882.126 301.379 881.006 301.998 879.503 302.835 878.159 303.831 876.819 304.907 876.711 304.993 876.603 305.08 876.491 305.169 875.234 306.18 874.025 307.225 873.036 308.51 873.036 308.57 873.036 308.629 873.036 308.69 874.555 308.604 876.064 308.462 877.576 308.294 887.047 307.246 896.57 306.34 906.095 306.004 906.615 305.985 907.134 305.966 907.653 305.946 911.375 305.809 915.099 305.723 918.823 305.639 919.876 305.615 920.928 305.591 921.981 305.566 922.305 305.559 922.629 305.551 922.953 305.544 925.125 305.495 927.296 305.437 929.467 305.369 937.981 305.104 946.488 305.03 955.006 305.041 956.216 305.042 957.426 305.042 958.636 305.04 967.226 305.03 975.8 305.113 984.384 305.447 984.737 305.461 985.09 305.474 985.443 305.487 987.344 305.56 989.244 305.642 991.145 305.73 991.612 305.752 992.08 305.774 992.548 305.795 1001.97 306.226 1011.4 306.714 1020.82 307.2 1020.95 307.206 1021.08 307.213 1021.21 307.22 1021.34 307.226 1021.47 307.233 1021.6 307.24 1021.73 307.246 1021.85 307.253 1021.98 307.259 1022.24 307.273 1022.49 307.286 1022.75 307.299 1024.43 307.386 1026.12 307.472 1027.8 307.557 1042.04 308.276 1056.27 309.141 1070.48 310.301 1072.25 310.445 1074.02 310.583 1075.78 310.716 1076.02 310.734 1076.26 310.752 1076.5 310.77 1076.98 310.806 1077.45 310.842 1077.93 310.878 1081.34 311.135 1084.75 311.405 1088.15 311.704 1088.46 311.732 1088.77 311.759 1089.09 311.786 1089.24 311.8 1089.4 311.813 1089.56 311.827 1094.88 312.295 1100.21 312.744 1105.55 313.06 1105.91 313.082 1106.28 313.104 1106.65 313.126 1109.52 313.296 1112.39 313.413 1115.27 313.493 1117.24 313.548 1119.19 313.645 1121.15 313.772 1122.05 313.829 1122.94 313.878 1123.84 313.916 1123.98 313.922 1124.13 313.928 1124.28 313.934 1124.72 313.951 1125.17 313.962 1125.61 313.971 1125.75 313.977 1125.88 313.982 1126.02 313.988 1126.68 313.995 1127.01 313.972 1127.54 313.552 1127.62 313.434 1127.71 313.316 1127.8 313.195 1127.13 312.457 1126.45 311.988 1125.57 311.517 1125.38 311.412 1125.38 311.412 1125.19 311.305 1124.92 311.161 1124.66 311.018 1124.39 310.875 1124.07 310.697 1123.74 310.514 1123.41 310.33 1113.46 304.797 1102.39 301.538 1091.24 299.515 1091.05 299.48 1091.05 299.48 1090.86 299.445 1089.57 299.211 1088.28 298.979 1086.99 298.751 1084.36 298.288 1081.74 297.796 1079.13 297.227 1078.9 297.177 1078.67 297.127 1078.43 297.075 1066.73 294.481 1066.73 294.481 1063.66 290.358 1063.08 289.415 1062.89 288.734 1062.88 287.621 1062.88 287.408 1062.88 287.194 1062.88 286.974 1062.95 286.289 1063.15 285.864 1063.48 285.268 1063.54 285.089 1063.6 284.911 1063.66 284.727 1063.99 284.537 1063.99 284.537 1064.38 284.367 1064.5 284.303 1064.62 284.24 1064.74 284.174 1066.71 283.196 1068.32 283.736 1070.33 284.367 1070.57 284.428 1070.81 284.488 1071.05 284.547 1071.05 284.387 1071.05 284.227 1071.05 284.062 1071.11 282.309 1071.48 280.852 1072.09 279.213 1072.35 278.525 1072.59 277.832 1072.84 277.139 1072.91 276.933 1072.91 276.933 1072.98 276.723 1074.21 273.233 1074.97 269.635 1075.55 265.989 1075.57 265.862 1075.59 265.736 1075.61 265.605 1076.69 258.076 1074.4 249.779 1069.89 243.719 1068.51 241.896 1066.98 240.266 1065.37 238.647 1065.29 238.559 1065.2 238.471 1065.11 238.38 1063.91 237.169 1062.65 236.06 1061.32 234.999 1061.1 234.814 1060.88 234.629 1060.66 234.443 1057.18 231.557 1053.14 229.369 1049.07 227.431 1048.88 227.339 1048.68 227.247 1048.49 227.153 1045.24 225.683 1041.74 224.727 1038.26 224.008 1037.94 223.941 1037.94 223.941 1037.63 223.873 1033.84 223.2 1029.93 223.669 1026.19 224.368 1026.03 224.396 1025.88 224.424 1025.73 224.453 1022.97 224.987 1018.64 225.901 1016.98 228.345 1016.62 229.047 1016.34 229.747 1016.1 230.494 1015.98 230.494 1015.86 230.494 1015.73 230.494 1015.63 230.631 1015.52 230.767 1015.41 230.907 1014.68 231.802 1013.64 232.348 1012.49 232.535 1011.03 232.671 1009.79 232.569 1008.53 231.755 1008.35 231.696 1008.17 231.636 1007.99 231.575 1007.99 231.456 1007.99 231.337 1007.99 231.215 1007.87 231.215 1007.75 231.215 1007.63 231.215 1007.58 231.089 1007.53 230.962 1007.48 230.832 1007.28 230.31 1007.28 230.31 1006.99 229.849 1006.65 229.042 1006.66 228.364 1006.68 227.499 1006.68 227.27 1006.68 227.27 1006.68 227.037 1006.7 225.907 1006.7 225.907 1006.83 225.439 1006.96 224.815 1006.59 224.276 1006.32 223.726 1006.26 223.592 1006.19 223.459 1006.12 223.321 1004.36 219.748 1002.23 216.448 999.581 213.474 999.337 213.195 999.102 212.91 998.867 212.623 998.515 212.207 998.177 211.858 997.762 211.508 997.38 211.183 997.001 210.859 996.632 210.518 984.274 199.101 964.017 199.187 932.674 211.756Z" stroke="#FF87E0" stroke-width="0.180157" stroke-linecap="butt" stroke-linejoin="miter" stroke-miterlimit="4" stroke-opacity="1" fill="#FF87E0" fill-rule="nonzero" fill-opacity="1"/><path d="M1184.86 415.816C1185.12 415.816 1185.12 415.816 1185.39 415.817 1189 415.833 1192.32 416.317 1195.81 417.22 1196.88 417.482 1197.88 417.581 1198.97 417.606 1201.16 417.666 1202.78 418.258 1204.36 419.813 1205.45 420.983 1206.14 422.145 1206.2 423.787 1206.11 425.396 1205.57 426.59 1204.39 427.688 1203.36 428.465 1202.35 428.727 1201.08 428.705 1200.88 428.702 1200.69 428.7 1200.49 428.697 1200.28 428.692 1200.28 428.692 1200.06 428.687 1199.99 428.801 1199.93 428.914 1199.86 429.031 1197.41 433.439 1194.77 437.875 1191.41 441.66 1191.33 441.752 1191.24 441.844 1191.16 441.938 1190.68 442.477 1190.19 443.006 1189.7 443.531 1189.39 443.854 1189.09 444.18 1188.8 444.507 1187.27 446.161 1185.68 447.716 1184.02 449.227 1183.77 449.455 1183.77 449.455 1183.52 449.687 1181.67 451.377 1179.69 452.919 1177.71 454.452 1177.58 454.556 1177.45 454.66 1177.31 454.767 1169.77 460.622 1157.4 468.686 1147.44 468.686 1147.44 468.786 1147.43 468.887 1147.43 468.99 1147.31 470.545 1146.75 471.719 1145.64 472.83 1144.75 473.438 1144 473.747 1142.94 473.911 1142.94 474.052 1142.94 474.193 1142.95 474.339 1142.96 475.789 1142.89 477.218 1142.77 478.663 1142.55 481.638 1142.41 484.606 1142.35 487.589 1142.26 491.989 1142.11 496.322 1141.36 500.667 1141.34 500.793 1141.32 500.919 1141.3 501.048 1141.01 502.767 1140.66 504.607 1139.28 505.801 1137.91 506.775 1136.67 507.002 1135.01 506.883 1134.14 506.681 1133.43 506.261 1132.67 505.802 1132.67 505.683 1132.67 505.564 1132.67 505.442 1132.55 505.442 1132.43 505.442 1132.31 505.442 1131.98 505.026 1131.98 505.026 1131.6 504.462 1131.48 504.28 1131.35 504.098 1131.22 503.911 1130.46 502.651 1130.24 501.315 1130.12 499.868 1130.1 499.621 1130.1 499.621 1130.08 499.37 1129.97 498.084 1129.9 496.797 1129.85 495.507 1129.82 494.887 1129.74 494.28 1129.65 493.665 1129.38 491.623 1129.37 489.59 1129.37 487.532 1129.37 486.92 1129.37 486.309 1129.36 485.697 1129.35 483.407 1129.49 481.215 1129.9 478.962 1130 478.421 1130.07 477.878 1130.15 477.335 1129.96 477.404 1129.77 477.474 1129.57 477.546 1125.23 479.091 1120.52 479.729 1115.91 479.497 1115.71 479.487 1115.71 479.487 1115.5 479.477 1111.04 479.243 1107.01 478.043 1102.94 476.254 1102.79 476.187 1102.63 476.12 1102.48 476.051 1100.02 474.966 1097.69 473.647 1095.37 472.29 1095.22 472.203 1095.08 472.116 1094.92 472.026 1090.9 469.657 1087.2 466.883 1083.84 463.641 1083.74 463.54 1083.63 463.438 1083.52 463.333 1082.29 462.14 1081.12 460.932 1080.06 459.584 1079.73 459.177 1079.39 458.797 1079.03 458.416 1071.65 450.185 1067.54 439.821 1068.05 428.79 1068.06 428.424 1068.08 428.058 1068.09 427.692 1068.11 427.331 1068.13 426.97 1068.15 426.61 1068.2 425.375 1068.19 424.558 1067.63 423.462 1067.4 421.857 1067.56 420.462 1068.53 419.138 1068.91 418.708 1069.31 418.377 1069.79 418.057 1069.89 417.987 1069.99 417.916 1070.09 417.844 1074.28 415.353 1081.65 417.317 1086 418.417 1088.18 418.976 1090.34 419.588 1092.49 420.219 1092.62 420.258 1092.76 420.297 1092.89 420.337 1099.09 422.156 1105.04 424.504 1110.88 427.26 1111.23 427.424 1111.57 427.589 1111.92 427.753 1121.97 432.475 1130.77 438.099 1137.89 446.705 1137.96 446.573 1137.96 446.573 1138.03 446.439 1141.39 439.94 1145.53 433.901 1151.41 429.408 1151.63 429.232 1151.85 429.056 1152.08 428.879 1154.88 426.675 1157.86 424.698 1160.96 422.921 1161.14 422.814 1161.14 422.814 1161.33 422.705 1165.58 420.262 1169.96 418.375 1174.7 417.088 1174.91 417.03 1175.12 416.972 1175.33 416.913 1178.49 416.087 1181.61 415.794 1184.86 415.816ZM1167.8 430.309C1167.68 430.372 1167.56 430.436 1167.43 430.501 1164.06 432.265 1160.86 434.401 1157.89 436.795 1157.74 436.912 1157.59 437.029 1157.43 437.15 1154.87 439.142 1152.57 441.544 1150.69 444.182 1150.61 444.286 1150.54 444.39 1150.46 444.498 1147.41 448.761 1145.14 453.798 1145.28 459.137 1155.43 458.094 1165.92 451.522 1173.6 445.171 1173.89 444.935 1174.18 444.702 1174.47 444.469 1175.6 443.564 1176.66 442.604 1177.72 441.617 1178.12 441.238 1178.54 440.871 1178.96 440.511 1180.46 439.217 1181.9 437.778 1183.17 436.263 1183.4 435.989 1183.64 435.722 1183.88 435.458 1185.09 434.104 1186.11 432.639 1187.12 431.131 1187.22 430.978 1187.22 430.978 1187.32 430.823 1188.33 429.308 1189.26 427.756 1190.15 426.165 1183.82 422.853 1173.47 427.299 1167.8 430.309ZM1077.9 426.885C1077.67 427.59 1077.68 428.301 1077.68 429.033 1077.68 429.173 1077.68 429.314 1077.68 429.458 1077.67 429.755 1077.67 430.053 1077.67 430.35 1077.67 430.795 1077.67 431.24 1077.66 431.685 1077.64 434.323 1078.02 436.732 1078.92 439.227 1078.98 439.403 1079.05 439.579 1079.11 439.761 1079.67 441.301 1080.35 442.748 1081.14 444.182 1081.2 444.288 1081.25 444.393 1081.31 444.502 1082.78 447.243 1084.6 449.708 1086.59 452.09 1086.82 452.368 1087.05 452.649 1087.27 452.931 1088.24 454.137 1089.27 455.255 1090.36 456.344 1090.53 456.509 1090.69 456.674 1090.86 456.844 1092.12 458.079 1093.41 459.19 1094.83 460.218 1095.03 460.365 1095.22 460.512 1095.42 460.66 1102.83 466.176 1111.96 470.923 1121.42 469.542 1124.59 469.025 1127.69 468.043 1130.33 466.164 1130.44 466.086 1130.56 466.008 1130.68 465.928 1131.23 465.532 1131.4 465.316 1131.53 464.643 1131.55 464.431 1131.57 464.22 1131.59 464.002 1131.76 463.637 1131.94 463.276 1132.13 462.921 1132.13 462.801 1132.13 462.683 1132.13 462.56 1132.25 462.56 1132.37 462.56 1132.49 462.56 1132.58 462.43 1132.67 462.3 1132.76 462.166 1133.39 461.455 1134.15 461.143 1135.01 460.758 1134.9 459.959 1134.59 459.309 1134.21 458.607 1134.12 458.43 1134.12 458.43 1134.02 458.249 1133.31 456.968 1132.47 455.796 1131.59 454.632 1131.51 454.528 1131.43 454.425 1131.35 454.318 1130.78 453.572 1130.2 452.838 1129.61 452.11 1129.52 452.008 1129.44 451.906 1129.35 451.8 1127.19 449.156 1124.81 446.736 1122.04 444.723 1121.86 444.589 1121.68 444.455 1121.49 444.317 1113.93 438.927 1104.99 434.877 1096.27 431.75 1096.06 431.674 1095.85 431.598 1095.63 431.52 1092.39 430.366 1089.11 429.405 1085.79 428.507 1085.6 428.457 1085.42 428.406 1085.23 428.354 1081.61 427.272 1081.61 427.272 1077.9 426.885Z" stroke="#FF87E0" stroke-width="0.180157" stroke-linecap="butt" stroke-linejoin="miter" stroke-miterlimit="4" stroke-opacity="1" fill="#FF87E0" fill-rule="nonzero" fill-opacity="1"/><path d="M1009.7 330.266C1010.25 330.595 1010.76 330.954 1011.23 331.393 1011.23 331.512 1011.23 331.63 1011.23 331.753 1011.35 331.753 1011.47 331.753 1011.59 331.753 1011.66 331.879 1011.72 332.006 1011.79 332.136 1012.18 332.725 1012.58 333.016 1013.15 333.407 1014.37 334.361 1015.17 335.434 1015.93 336.775 1016.03 336.947 1016.13 337.119 1016.23 337.296 1017.08 338.778 1017.91 340.276 1018.74 341.771 1020.82 345.488 1023.13 349.068 1025.44 352.645 1027.04 355.133 1028.59 357.646 1030.12 360.179 1030.79 361.297 1031.48 362.409 1032.16 363.52 1033.07 364.982 1033.96 366.445 1034.86 367.912 1034.96 368.081 1035.06 368.25 1035.17 368.425 1035.68 369.273 1036.2 370.122 1036.71 370.971 1039.16 375.016 1041.73 378.97 1044.36 382.894 1044.72 383.425 1045.07 383.958 1045.42 384.491 1046.72 386.459 1048.07 388.368 1049.48 390.256 1049.98 390.934 1050.48 391.618 1050.97 392.303 1051.07 392.437 1051.16 392.57 1051.26 392.708 1051.74 393.372 1052.22 394.038 1052.7 394.705 1053.75 396.175 1054.82 397.625 1055.93 399.06 1057 400.46 1058.04 401.879 1059.04 403.328 1059.46 403.931 1059.9 404.519 1060.34 405.107 1061.44 406.639 1061.7 407.886 1061.5 409.769 1061.33 410.316 1061.1 410.744 1060.78 411.21 1060.68 411.366 1060.59 411.523 1060.49 411.683 1059.36 412.811 1058.31 413.301 1056.72 413.316 1055.03 413.28 1053.88 412.784 1052.63 411.627 1052.03 410.988 1051.6 410.31 1051.17 409.552 1050.07 407.707 1048.69 406.015 1047.4 404.304 1046.55 403.176 1045.72 402.037 1044.9 400.89 1044.19 399.91 1043.48 398.938 1042.76 397.968 1039.11 393.02 1035.57 387.976 1032.35 382.735 1032.02 382.197 1031.68 381.664 1031.34 381.131 1030.2 379.338 1029.09 377.531 1027.99 375.716 1027.59 375.055 1027.18 374.394 1026.78 373.734 1026.68 373.56 1026.57 373.387 1026.46 373.208 1025.54 371.701 1024.62 370.199 1023.69 368.697 1023.06 367.677 1022.44 366.654 1021.82 365.627 1020.24 363.019 1018.64 360.439 1016.98 357.878 1016.41 356.983 1015.83 356.085 1015.26 355.187 1015.16 355.03 1015.06 354.874 1014.96 354.712 1014.3 353.676 1013.66 352.629 1013.03 351.572 1012.98 353.184 1013.15 354.758 1013.32 356.359 1013.58 358.83 1013.81 361.301 1013.98 363.779 1013.99 363.989 1014.01 364.198 1014.02 364.414 1014.3 368.784 1014.3 368.784 1013 370.716 1011.97 371.72 1010.77 372.311 1009.33 372.36 1007.94 372.342 1006.99 371.936 1005.95 371.034 1004.57 369.618 1004.32 367.971 1004.2 366.055 1004.19 365.874 1004.17 365.694 1004.16 365.508 1004.13 365.121 1004.1 364.734 1004.08 364.347 1004.01 363.32 1003.93 362.293 1003.85 361.266 1003.84 361.058 1003.82 360.85 1003.81 360.635 1003.63 358.273 1003.41 355.916 1003.18 353.558 1003.16 353.408 1003.15 353.257 1003.13 353.102 1003.11 352.829 1003.08 352.557 1003.05 352.285 1002.82 349.834 1002.73 347.396 1002.71 344.936 1002.71 344.78 1002.71 344.623 1002.71 344.462 1002.71 343.638 1002.7 342.813 1002.7 341.989 1002.7 341.312 1002.69 340.635 1002.68 339.958 1002.68 339.132 1002.67 338.307 1002.67 337.481 1002.67 337.169 1002.67 336.857 1002.66 336.546 1002.64 334.835 1002.65 333.395 1003.66 331.933 1003.78 331.755 1003.9 331.576 1004.02 331.393 1004.14 331.393 1004.26 331.393 1004.38 331.393 1004.38 331.274 1004.38 331.155 1004.38 331.032 1004.64 330.885 1004.9 330.739 1005.16 330.593 1005.31 330.512 1005.45 330.43 1005.6 330.346 1006.8 329.714 1008.47 329.669 1009.7 330.266ZM1012.67 351.032C1012.85 351.392 1012.85 351.392 1012.85 351.392Z" stroke="#FF87E0" stroke-width="0.180157" stroke-linecap="butt" stroke-linejoin="miter" stroke-miterlimit="4" stroke-opacity="1" fill="#FF87E0" fill-rule="nonzero" fill-opacity="1"/><path d="M1033.75 327.789C1036.1 327.66 1037.13 328.091 1038.87 329.626 1040.11 330.97 1040.93 332.517 1041.73 334.152 1042.02 334.753 1042.31 335.352 1042.61 335.95 1042.7 336.129 1042.7 336.129 1042.79 336.311 1043.63 338.003 1044.54 339.655 1045.46 341.302 1045.59 341.527 1045.59 341.527 1045.72 341.756 1047.36 344.701 1049.13 347.575 1050.89 350.453 1051.34 351.194 1051.79 351.934 1052.24 352.676 1052.31 352.78 1052.37 352.885 1052.44 352.993 1053.46 354.68 1054.45 356.385 1055.44 358.099 1056.31 359.623 1057.22 361.128 1058.13 362.627 1059.2 364.384 1060.26 366.151 1061.31 367.923 1062.23 369.483 1063.15 371.04 1064.13 372.57 1064.7 373.478 1065.25 374.399 1065.8 375.322 1066.61 376.681 1067.44 378.025 1068.3 379.356 1069.01 380.467 1069.67 381.601 1070.33 382.743 1070.31 375.599 1070.31 375.599 1069.22 368.588 1068.86 367.157 1069.19 366.039 1069.79 364.725 1070.06 364.305 1070.06 364.305 1070.33 364.004 1070.45 364.004 1070.57 364.004 1070.69 364.004 1070.69 363.885 1070.69 363.767 1070.69 363.644 1070.95 363.497 1071.21 363.351 1071.47 363.205 1071.61 363.123 1071.75 363.042 1071.9 362.958 1072.9 362.432 1073.91 362.421 1075.01 362.563 1075.77 362.858 1076.47 363.226 1077.17 363.644 1077.17 363.763 1077.17 363.882 1077.17 364.004 1077.29 364.004 1077.41 364.004 1077.54 364.004 1077.54 364.123 1077.54 364.242 1077.54 364.365 1077.65 364.365 1077.77 364.365 1077.9 364.365 1078.81 365.8 1079.16 367.011 1079.34 368.689 1079.37 368.943 1079.39 369.197 1079.42 369.451 1079.64 371.377 1079.79 373.297 1079.89 375.232 1079.9 375.375 1079.9 375.519 1079.91 375.666 1080.08 378.909 1080.13 382.155 1080.18 385.401 1080.21 387.453 1080.26 389.5 1080.36 391.549 1080.42 392.981 1080.45 394.41 1080.44 395.844 1080.44 396.231 1080.44 396.618 1080.44 397.005 1080.45 401.541 1080.45 401.541 1078.95 403.163 1077.53 404.472 1076.37 404.645 1074.49 404.6 1073.1 404.524 1072.34 403.904 1071.38 402.939 1070.79 402.268 1070.31 401.524 1069.82 400.771 1069.66 400.52 1069.66 400.52 1069.49 400.264 1068.63 398.949 1067.79 397.622 1066.96 396.283 1066.7 395.849 1066.43 395.417 1066.16 394.984 1065.26 393.551 1064.38 392.117 1063.53 390.659 1061.82 387.742 1060.07 384.851 1058.25 382.011 1057.2 380.384 1056.21 378.729 1055.23 377.062 1054.33 375.547 1053.43 374.041 1052.51 372.54 1051.64 371.104 1050.77 369.664 1049.92 368.211 1049.28 367.119 1048.63 366.035 1047.98 364.95 1047.03 363.387 1046.11 361.817 1045.19 360.241 1044.25 358.642 1043.31 357.049 1042.33 355.48 1039.04 350.207 1035.95 344.828 1033.16 339.275 1033.09 339.144 1033.02 339.014 1032.96 338.879 1031.91 336.808 1031.13 335.11 1031.14 332.755 1031.13 332.58 1031.13 332.405 1031.12 332.224 1031.12 330.908 1031.45 329.992 1032.13 328.87 1032.25 328.87 1032.37 328.87 1032.49 328.87 1032.55 328.692 1032.61 328.513 1032.67 328.33 1033.03 328.27 1033.38 328.211 1033.75 328.149 1033.75 328.03 1033.75 327.912 1033.75 327.789Z" stroke="#FF87E0" stroke-width="0.180157" stroke-linecap="butt" stroke-linejoin="miter" stroke-miterlimit="4" stroke-opacity="1" fill="#FF87E0" fill-rule="nonzero" fill-opacity="1"/><path d="M1219.51 509.226C1223.62 509.328 1223.62 509.328 1225.1 510.848 1225.37 511.259 1225.59 511.672 1225.82 512.109 1225.09 512.353 1224.54 512.182 1223.84 511.929 1223.33 511.669 1222.87 511.366 1222.4 511.05 1221.46 510.434 1220.53 509.892 1219.51 509.406 1219.51 509.347 1219.51 509.287 1219.51 509.226Z" stroke="#FF87E0" stroke-width="0.180157" stroke-linecap="butt" stroke-linejoin="miter" stroke-miterlimit="4" stroke-opacity="1" fill="#FF87E0" fill-rule="nonzero" fill-opacity="1"/><path d="" stroke="#FF87E0" stroke-width="0.180157" stroke-linecap="butt" stroke-linejoin="miter" stroke-miterlimit="4" stroke-opacity="1" fill="none" fill-rule="nonzero"/></g></g></g></g></g></svg>