<?xml version="1.0" encoding="UTF-8"?>
<svg version="1.1" xmlns="http://www.w3.org/2000/svg" width="2048" height="2048">
<path d="M0 0 C19.92636543 18.74081509 31.8180873 48.89672065 33.01757812 75.94238281 C33.55393822 95.9250668 31.74180983 114.8593177 27.21875 134.3203125 C26.95711563 135.44747177 26.69548126 136.57463104 26.42591858 137.73594666 C23.60607823 149.67880297 20.25947135 161.45049144 16.83203125 173.23046875 C16.14472556 175.61373028 15.45814456 177.9972009 14.7722168 180.38085938 C12.8937592 186.90273386 11.00730697 193.42226184 9.11877441 199.94122314 C-26.0993126 316.08750455 -26.0993126 316.08750455 -48.10546875 435.16796875 C-48.2226123 436.12316406 -48.33975586 437.07835937 -48.46044922 438.0625 C-55.8252163 498.55645604 -42.86372506 562.89461857 -5.04296875 611.66796875 C0.61610785 618.80663805 6.54379091 625.63354676 12.89453125 632.16796875 C13.44109375 632.73499512 13.98765625 633.30202148 14.55078125 633.88623047 C21.94211763 641.52710695 29.48700096 648.63939409 37.89453125 655.16796875 C39.28063866 656.26996507 40.66599557 657.37290574 42.05078125 658.4765625 C112.26041838 714.14542822 190.13981236 733.47263249 277.89453125 739.16796875 C278.61765503 739.21709412 279.34077881 739.26621948 280.08581543 739.3168335 C295.38572738 740.33994486 310.69006119 740.40994464 326.01953125 740.41796875 C326.68754887 740.41855789 327.35556648 740.41914703 328.04382706 740.41975403 C351.01978546 740.43400053 373.81364678 739.71555605 396.68170166 737.39257812 C398.85810182 737.17166646 401.03513918 736.95831013 403.21240234 736.74609375 C413.13601481 735.76465247 423.01826624 734.54405093 432.89453125 733.16796875 C433.62782654 733.0665155 434.36112183 732.96506226 435.11663818 732.86053467 C473.36878769 727.52449614 511.12561519 719.13948524 548.89453125 711.16796875 C550.01077377 710.93249329 550.01077377 710.93249329 551.14956665 710.69226074 C566.39510016 707.47591226 581.63604131 704.23832339 596.87109375 700.97265625 C597.97419891 700.73698944 599.07730408 700.50132263 600.21383667 700.2585144 C605.62329269 699.09957954 611.02604447 697.91761076 616.42089844 696.69238281 C617.46378021 696.45802521 618.50666199 696.2236676 619.58114624 695.98220825 C621.52519203 695.54418443 623.46775188 695.09948327 625.40835571 694.64645386 C630.70516065 693.45836884 635.46532931 692.95238008 640.89453125 693.16796875 C641.02283234 704.61527726 640.83477626 716.03845057 640.45703125 727.48046875 C640.41779541 728.73754639 640.37855957 729.99462402 640.33813477 731.28979492 C640.29615967 732.4832251 640.25418457 733.67665527 640.2109375 734.90625 C640.17427979 735.96884033 640.13762207 737.03143066 640.09985352 738.1262207 C639.89272431 741.19473773 639.41954163 744.13980651 638.89453125 747.16796875 C627.6602331 750.9713984 616.21433784 753.41247083 604.62890625 755.87109375 C602.54843725 756.31663696 600.46805581 756.76258919 598.38775635 757.20892334 C594.02457442 758.14374761 589.66057249 759.07460934 585.29589844 760.00244141 C579.83476333 761.16352761 574.37542695 762.3328117 568.91663456 763.50485611 C498.8754553 778.53567049 498.8754553 778.53567049 464.95703125 783.91796875 C464.08250305 784.05827515 463.20797485 784.19858154 462.3069458 784.34313965 C418.55349904 791.33829972 374.71431445 794.76497866 330.41133499 794.55469131 C327.71089814 794.54270858 325.01048462 794.53578275 322.31002808 794.52987671 C294.41450642 794.45929257 266.67791983 793.86063196 238.89453125 791.16796875 C237.50726837 791.03714905 237.50726837 791.03714905 236.09197998 790.90368652 C204.14081622 787.88524456 172.68792444 783.53905615 141.89453125 774.16796875 C141.14026855 773.94173828 140.38600586 773.71550781 139.60888672 773.48242188 C125.99338676 769.3465227 112.92872623 763.84630017 99.89453125 758.16796875 C99.11722656 757.83039551 98.33992188 757.49282227 97.5390625 757.14501953 C84.49177225 751.41454984 72.18049647 744.36200155 59.89453125 737.16796875 C58.91049316 736.59208008 57.92645508 736.01619141 56.91259766 735.42285156 C43.72957146 727.66098424 31.07186052 719.43164923 18.89453125 710.16796875 C18.26224609 709.68730957 17.62996094 709.20665039 16.97851562 708.71142578 C8.38566261 702.13975334 0.07604423 695.24300924 -8.10546875 688.16796875 C-8.92144531 687.46542969 -9.73742188 686.76289062 -10.578125 686.0390625 C-22.34473369 675.6868041 -33.51292401 664.57151561 -43.10546875 652.16796875 C-43.98103526 651.08038767 -44.8587596 649.99454132 -45.73828125 648.91015625 C-73.87953214 614.02487927 -91.79654242 572.23366291 -100.35546875 528.35546875 C-100.50669189 527.58106445 -100.65791504 526.80666016 -100.8137207 526.00878906 C-101.29147688 523.40068813 -101.70834845 520.78962092 -102.10546875 518.16796875 C-102.28352051 517.00612061 -102.46157227 515.84427246 -102.64501953 514.6472168 C-104.47661144 501.67122525 -104.50313003 488.68915267 -104.48046875 475.60546875 C-104.47965302 473.83059586 -104.47965302 473.83059586 -104.4788208 472.01986694 C-104.43298121 450.19527332 -103.14789711 428.77601801 -100.10546875 407.16796875 C-99.95271484 406.07301086 -99.95271484 406.07301086 -99.796875 404.95593262 C-96.18548401 379.35762756 -90.2655605 354.25431014 -84.10546875 329.16796875 C-83.89212891 328.29611938 -83.67878906 327.42427002 -83.45898438 326.52600098 C-73.03264869 283.96574652 -60.664994 241.94011094 -48.4498291 199.86791992 C-21.07764004 124.97290492 -21.07764004 124.97290492 -31.10546875 50.16796875 C-38.20087779 37.59433792 -48.65824584 30.72736192 -62.29296875 26.29296875 C-92.26868581 19.22483092 -127.86683668 34.04675275 -153.10546875 49.16796875 C-158.34528251 52.53355002 -163.25859485 56.26484075 -168.10546875 60.16796875 C-169.07355469 60.92722656 -170.04164062 61.68648437 -171.0390625 62.46875 C-177.42327591 67.5670651 -183.45511398 73.03354867 -189.42529297 78.60546875 C-191.26021322 80.31187526 -193.10621603 82.00579886 -194.953125 83.69921875 C-203.46756278 91.5111181 -203.46756278 91.5111181 -211.23828125 100.046875 C-213.89042406 103.05966485 -216.75066547 105.84829659 -219.60546875 108.66796875 C-223.68840766 112.70956726 -227.65413808 116.77390151 -231.375 121.15625 C-233.52080149 123.65080478 -235.75132552 126.06015857 -237.98046875 128.48046875 C-242.05086931 132.94319707 -245.90723784 137.53054875 -249.69921875 142.23046875 C-252.40326262 145.53150932 -255.186764 148.7554552 -257.98046875 151.98046875 C-262.94477857 157.73051929 -267.68111071 163.62607211 -272.33984375 169.625 C-274.6529668 172.60171048 -277.01077939 175.53927373 -279.38208008 178.46972656 C-286.54509247 187.33358348 -293.36904318 196.43797404 -300.17333984 205.57861328 C-302.08748913 208.14387324 -304.01070493 210.70204065 -305.9375 213.2578125 C-312.45064983 221.90047042 -318.884282 230.58936105 -325.1940918 239.3815918 C-329.85491425 245.85988652 -334.63508504 252.2442912 -339.43603516 258.61914062 C-343.81974371 264.44296815 -348.16345096 270.2945509 -352.48046875 276.16796875 C-356.85610596 282.12097538 -361.25828384 288.05150163 -365.703125 293.953125 C-368.22835717 297.31973605 -370.7161503 300.7136513 -373.20703125 304.10571289 C-378.96549454 311.94625885 -384.76718601 319.73964919 -390.74365234 327.41601562 C-392.29200731 329.40794736 -393.83349774 331.40510459 -395.375 333.40234375 C-402.68106583 342.85245929 -410.1093792 352.19016043 -417.68164062 361.42822266 C-418.95773179 362.98745202 -420.22734256 364.55197975 -421.49609375 366.1171875 C-429.02623148 375.39442553 -436.75282508 384.51552021 -444.79296875 393.35546875 C-447.70902731 396.56209543 -450.46931732 399.83933318 -453.16796875 403.23046875 C-458.02783604 409.25774188 -463.34510802 414.8280614 -468.69750977 420.41821289 C-469.36709717 421.11938232 -470.03668457 421.82055176 -470.7265625 422.54296875 C-471.32911865 423.16945313 -471.9316748 423.7959375 -472.55249023 424.44140625 C-474.29264347 426.29271669 -474.29264347 426.29271669 -476.10546875 429.16796875 C-476.76546875 429.16796875 -477.42546875 429.16796875 -478.10546875 429.16796875 C-478.30873779 429.69793457 -478.51200684 430.22790039 -478.72143555 430.77392578 C-480.69602929 434.18949576 -483.45024824 436.73716077 -486.25 439.47265625 C-486.85680099 440.07425568 -487.46360199 440.6758551 -488.08879089 441.29568481 C-490.0271526 443.2162671 -491.97205714 445.13003869 -493.91796875 447.04296875 C-495.85232419 448.94957679 -497.78515541 450.85766699 -499.7150116 452.76882935 C-500.91427774 453.95598169 -502.11620624 455.14045276 -503.32124329 456.32174683 C-506.81870668 459.77796107 -509.99359002 463.36133536 -513.10546875 467.16796875 C-514.19803061 468.18320317 -515.321445 469.16682275 -516.48046875 470.10546875 C-520.75397463 473.7371363 -524.6645708 477.68449788 -528.60546875 481.66796875 C-533.00350809 486.1046533 -537.38768037 490.4741939 -542.1640625 494.5078125 C-544.63991872 496.62499337 -547.02208143 498.83578704 -549.41796875 501.04296875 C-553.88069707 505.11336931 -558.46804875 508.96973784 -563.16796875 512.76171875 C-566.46901069 515.46576375 -569.6929249 518.24929736 -572.91796875 521.04296875 C-579.24923927 526.50800989 -585.76268002 531.70052096 -592.37304688 536.82226562 C-594.6408728 538.58385758 -596.896504 540.36066636 -599.15185547 542.13818359 C-616.26141721 555.61889017 -633.46898598 568.94363733 -651.10546875 581.73046875 C-651.76804687 582.21201416 -652.430625 582.69355957 -653.11328125 583.18969727 C-687.18713024 607.7693476 -722.61219354 630.37971268 -759.10546875 651.16796875 C-759.86134277 651.60061035 -760.6172168 652.03325195 -761.39599609 652.47900391 C-815.99063479 683.72348501 -872.62114042 708.01432562 -932.10546875 728.16796875 C-932.77213562 728.39419922 -933.43880249 728.62042969 -934.12567139 728.85351562 C-1015.08363384 756.27270265 -1099.50034116 770.85166963 -1196.10546875 779.41796875 C-1196.85803326 779.48386829 -1197.61059776 779.54976784 -1198.38596725 779.61766434 C-1224.16822007 781.87270734 -1249.69763254 783.35688989 -1275.58862305 783.35327148 C-1279.11964963 783.35316866 -1282.65048055 783.3669885 -1286.18146038 783.38404369 C-1289.59753894 783.3978638 -1293.01358139 783.39725144 -1296.4296875 783.3984375 C-1297.6849675 783.40562302 -1298.9402475 783.41280853 -1300.23356628 783.42021179 C-1306.55012369 783.40373356 -1312.06569269 783.06058506 -1318.10546875 781.16796875 C-1318.13073567 773.78068773 -1318.14830035 766.39341777 -1318.16040039 759.00610352 C-1318.16544238 756.4907998 -1318.17227578 753.97549903 -1318.1809082 751.46020508 C-1318.19297969 747.853671 -1318.19869824 744.24717552 -1318.203125 740.640625 C-1318.20828629 739.50834976 -1318.21344757 738.37607452 -1318.21876526 737.20948792 C-1318.21884079 736.16848434 -1318.21891632 735.12748077 -1318.21899414 734.05493164 C-1318.22121475 733.13337784 -1318.22343536 732.21182404 -1318.22572327 731.26234436 C-1318.10546875 729.16796875 -1318.10546875 729.16796875 -1317.10546875 728.16796875 C-1314.64178495 728.25615602 -1312.20687759 728.40426004 -1309.75 728.58984375 C-1300.09462354 729.23285798 -1290.4680192 729.41127478 -1280.79296875 729.41796875 C-1279.89430084 729.41864349 -1278.99563293 729.41931824 -1278.06973267 729.42001343 C-1256.6655014 729.39500767 -1235.42332437 727.99028223 -1214.10546875 726.16796875 C-1212.52620605 726.0336142 -1212.52620605 726.0336142 -1210.91503906 725.89654541 C-1116.32387767 717.80345679 -1024.1274392 701.26442396 -830.83911133 627.03799438 C-828.55966831 625.89405971 -826.26939917 624.77306042 -823.9765625 623.65625 C-812.11650809 617.8541996 -800.61591795 611.51827066 -789.17529297 604.93164062 C-786.00304446 603.10912406 -782.82247422 601.30178962 -779.640625 599.49609375 C-748.78039167 581.92516437 -718.82813657 562.36593149 -690.03759766 541.56298828 C-687.88159963 540.00633264 -685.71828514 538.46013614 -683.5546875 536.9140625 C-674.60018523 530.4999237 -665.79612343 523.93473805 -657.10546875 517.16796875 C-655.50272771 515.93509103 -653.89766759 514.70527652 -652.29248047 513.47558594 C-646.03733635 508.68129153 -639.82894503 503.82937601 -633.640625 498.94921875 C-631.30202223 497.10570522 -628.95556207 495.2730264 -626.6015625 493.44921875 C-619.96780682 488.29796487 -613.49435456 483.00874926 -607.14672852 477.50805664 C-603.66429302 474.49170839 -600.13613166 471.55291404 -596.54296875 468.66796875 C-591.18531891 464.32179262 -586.15606372 459.66696497 -581.1171875 454.9609375 C-578.10579553 452.15249738 -575.00825612 449.45458246 -571.88671875 446.76953125 C-569.31245799 444.45495469 -566.92776122 441.96830148 -564.55078125 439.453125 C-563.10546875 438.16796875 -563.10546875 438.16796875 -561.10546875 438.16796875 C-561.10546875 437.50796875 -561.10546875 436.84796875 -561.10546875 436.16796875 C-559.67407227 434.75561523 -559.67407227 434.75561523 -557.671875 433.1015625 C-552.89215337 429.03516934 -548.46726012 424.6772756 -544.04296875 420.23046875 C-543.27919922 419.47056641 -542.51542969 418.71066406 -541.72851562 417.92773438 C-537.57809762 413.77021556 -533.61971308 409.51907751 -529.78735352 405.06811523 C-527.0348074 401.95836542 -524.07162055 399.07209466 -521.10546875 396.16796875 C-516.86533302 391.97164868 -512.72396199 387.76717739 -508.8671875 383.2109375 C-507.01453161 381.06251393 -505.09653533 378.98147273 -503.16650391 376.90258789 C-498.35148618 371.71510619 -493.79151255 366.39911407 -489.3515625 360.8828125 C-487.01716285 358.0612338 -484.58556277 355.36206163 -482.10546875 352.66796875 C-478.04241599 348.24806852 -474.20573987 343.69969722 -470.4375 339.02734375 C-468.40069104 336.52994985 -466.32216819 334.0758041 -464.22070312 331.6328125 C-458.91799514 325.45769906 -453.92150682 319.09268057 -449.01049805 312.60253906 C-445.47316098 307.93340024 -441.85750757 303.34243835 -438.16796875 298.79296875 C-433.12168534 292.54812025 -428.34116133 286.13157109 -423.60668945 279.64819336 C-419.1019716 273.4886812 -414.49800234 267.41161179 -409.85546875 261.35546875 C-405.07242543 255.10776686 -400.35917088 248.83041304 -395.82226562 242.40185547 C-390.63600223 235.05894938 -385.26379276 227.85204928 -379.91992188 220.62353516 C-377.55902466 217.42844578 -375.20246945 214.23017062 -372.84643555 211.03149414 C-371.68417137 209.45361173 -370.52157273 207.87597562 -369.35864258 206.29858398 C-366.42441194 202.31843219 -363.49390962 198.3356267 -360.5703125 194.34765625 C-353.3500835 184.50715067 -346.02952608 174.75338741 -338.58105469 165.08447266 C-337.20359135 163.29541125 -335.8295799 161.50377073 -334.45703125 159.7109375 C-332.01512756 156.52327995 -329.56338195 153.34329562 -327.10546875 150.16796875 C-326.67024902 149.60513184 -326.2350293 149.04229492 -325.78662109 148.46240234 C-320.34394219 141.43725329 -314.79080652 134.53562216 -309.01757812 127.77905273 C-306.33940284 124.6415838 -303.72414138 121.46793533 -301.16796875 118.23046875 C-293.83386595 108.98769576 -286.03356375 100.11787431 -278.10546875 91.3828125 C-276.30943346 89.39384373 -274.54593572 87.38233681 -272.79296875 85.35546875 C-262.91296956 74.05598064 -252.46186919 63.33793798 -241.85083008 52.72802734 C-239.53763583 50.41263075 -237.23259802 48.08931084 -234.92773438 45.765625 C-227.29200294 38.10120495 -219.66085214 30.80663457 -211.10546875 24.16796875 C-210.03024394 23.2704134 -208.9601146 22.36666522 -207.8984375 21.453125 C-151.14152843 -26.96468798 -61.4829642 -53.49816366 0 0 Z " fill="#000000" transform="translate(1386.10546875,827.83203125)"/>
<path d="M0 0 C3.43535508 0.00461665 6.87035482 -0.00225361 10.30566406 -0.02050781 C33.11333625 -0.14042912 55.50645641 0.71266301 78.17431641 3.31567383 C79.56804474 3.47270279 79.56804474 3.47270279 80.9899292 3.63290405 C85.87735679 4.19363339 90.74485902 4.84565637 95.61181641 5.56567383 C96.66597244 5.71957581 96.66597244 5.71957581 97.74142456 5.87658691 C146.61649371 13.06034537 195.14066651 25.8517787 240.17431641 46.31567383 C241.17672363 46.76942383 242.17913086 47.22317383 243.21191406 47.69067383 C269.18666361 59.54367897 293.09647045 74.18901691 315.17431641 92.31567383 C315.96588135 92.95279297 315.96588135 92.95279297 316.7734375 93.6027832 C325.15394767 100.36447649 332.85582316 107.79116372 340.48681641 115.37817383 C341.40591797 116.28801025 342.32501953 117.19784668 343.27197266 118.13525391 C349.3300821 124.2212683 354.86362476 130.57048868 360.17431641 137.31567383 C360.75463623 138.04729736 361.33495605 138.7789209 361.93286133 139.53271484 C374.11771296 155.01236511 384.54746512 171.13942103 394.17431641 188.31567383 C394.55942383 188.99259277 394.94453125 189.66951172 395.34130859 190.36694336 C427.25083257 246.68035306 439.90361982 312.2689689 439.62094498 376.42309952 C439.6116414 378.67044745 439.60726954 380.91776695 439.60360718 383.16513062 C439.5455056 408.84109275 438.33660602 434.25311397 435.4588623 459.78198242 C435.18862325 462.18828093 434.92837456 464.59542883 434.67138672 467.00317383 C432.7571147 484.75808872 430.1772861 502.41676984 427.54931641 520.07739258 C427.43102919 520.87256916 427.31274197 521.66774574 427.19087029 522.48701859 C426.82664502 524.9351266 426.46229197 527.38321556 426.09790039 529.83129883 C425.97582183 530.65153219 425.85374327 531.47176556 425.72796535 532.31685448 C425.60535367 533.1406592 425.48274199 533.96446392 425.35641479 534.81323242 C425.17213991 536.05147263 425.17213991 536.05147263 424.9841423 537.31472778 C424.73633332 538.97928266 424.48836074 540.6438132 424.24022293 542.30831909 C420.52247047 567.25494861 417.10170674 592.15514302 415.17431641 617.31567383 C415.07699219 618.51756348 414.97966797 619.71945312 414.87939453 620.95776367 C411.69052763 662.14729443 418.40129318 699.88953016 438.17431641 736.31567383 C438.73763672 737.35852539 439.30095703 738.40137695 439.88134766 739.47583008 C447.3860676 752.8156016 456.50209911 764.39374352 467.17431641 775.31567383 C467.72321533 775.88721191 468.27211426 776.45875 468.83764648 777.04760742 C490.50079554 799.26606622 521.09699738 813.70280765 550.17431641 823.31567383 C551.00737305 823.59330566 551.84042969 823.8709375 552.69873047 824.15698242 C566.72549993 828.77042944 580.96780871 832.33023533 595.34472656 835.65136719 C596.04048798 835.81420197 596.73624939 835.97703674 597.45309448 836.14480591 C599.35740667 836.58986246 601.26337302 837.02782394 603.16943359 837.46533203 C606.17431641 838.31567383 606.17431641 838.31567383 609.17431641 840.31567383 C609.53507996 842.56826782 609.53507996 842.56826782 609.51489258 845.40795898 C609.51466599 846.46890778 609.51443939 847.52985657 609.51420593 848.62295532 C609.49872208 849.77194305 609.48323822 850.92093079 609.46728516 852.10473633 C609.46304031 853.27829681 609.45879547 854.4518573 609.454422 855.66098022 C609.43758616 859.42110837 609.39992418 863.1807068 609.36181641 866.94067383 C609.34677595 869.48493694 609.33308644 872.02920842 609.32080078 874.57348633 C609.28766658 880.82106388 609.23741847 887.06833102 609.17431641 893.31567383 C604.37146032 893.40085145 600.04021426 893.29016859 595.32275391 892.28442383 C593.69829346 891.94060669 593.69829346 891.94060669 592.04101562 891.58984375 C590.88875488 891.33436768 589.73649414 891.0788916 588.54931641 890.81567383 C587.32873535 890.54795166 586.1081543 890.28022949 584.85058594 890.00439453 C526.33714829 876.92478868 472.25757806 855.88331457 428.17431641 814.31567383 C427.39056641 813.58606445 426.60681641 812.85645508 425.79931641 812.10473633 C419.1850679 805.7503333 413.6727973 798.6285547 408.17431641 791.31567383 C407.75005371 790.75750977 407.32579102 790.1993457 406.88867188 789.62426758 C375.75413841 748.45222332 359.41155726 698.2405771 359.73681641 646.81567383 C359.73952545 645.7956427 359.7422345 644.77561157 359.74502563 643.72467041 C359.83592165 620.79277826 361.61436657 598.09298356 364.17431641 575.31567383 C364.30516632 574.14875 364.30516632 574.14875 364.43865967 572.95825195 C366.30708835 556.49566248 368.74224363 540.11522731 371.22205544 523.73544502 C372.21089203 517.20040198 373.19391368 510.66448693 374.17431641 504.12817383 C374.2842757 503.39596493 374.394235 502.66375603 374.5075264 501.90935898 C378.55910317 474.89573138 381.7951547 447.87380101 383.98724365 420.63754272 C384.15399094 418.567945 384.32887297 416.49900636 384.50488281 414.43017578 C385.38877649 403.00942172 385.41775501 391.57781217 385.42431641 380.12817383 C385.42499115 379.06531158 385.42566589 378.00244934 385.42636108 376.90737915 C385.40955041 360.19270069 384.82634612 343.85110473 382.17431641 327.31567383 C381.99739258 326.2007959 381.82046875 325.08591797 381.63818359 323.93725586 C376.02482685 289.57362375 366.65625646 256.57418331 351.17431641 225.31567383 C350.75005371 224.45474121 350.32579102 223.59380859 349.88867188 222.70678711 C338.08467806 198.97425558 323.04318909 176.83598498 304.56542969 157.80395508 C303.15601881 156.29609816 301.84280694 154.73839065 300.53759766 153.13989258 C298.59121769 150.81388808 296.73252531 148.88390953 294.42431641 146.94067383 C292.32764679 145.15850465 290.2444281 143.38031681 288.22119141 141.51489258 C263.31588734 118.55828597 231.79888208 101.03203434 200.17431641 89.31567383 C199.5630188 89.08877869 198.95172119 88.86188354 198.32189941 88.62811279 C152.99553916 71.86942125 106.2110633 61.39918213 58.17431641 56.31567383 C57.37382874 56.22847076 56.57334106 56.1412677 55.74859619 56.05142212 C39.25900551 54.2949046 22.87304244 53.95473903 6.29931641 54.00317383 C4.35143219 54.00590805 4.35143219 54.00590805 2.36419678 54.00869751 C-17.568347 54.05571762 -37.04937727 54.75830755 -56.82568359 57.31567383 C-58.30403387 57.49574744 -59.78255766 57.67440095 -61.26123047 57.85180664 C-106.4077389 63.29060789 -150.65226588 72.97920358 -193.82568359 87.31567383 C-195.20877509 87.77138145 -196.59191486 88.2269426 -197.97509766 88.68237305 C-227.98529494 98.59161835 -257.07968945 110.15305567 -285.82568359 123.31567383 C-286.42552063 123.59002258 -287.02535767 123.86437134 -287.64337158 124.14703369 C-313.929558 136.1772438 -339.83054162 148.75312733 -364.82568359 163.31567383 C-365.64633301 163.78763184 -366.46698242 164.25958984 -367.3125 164.74584961 C-389.78353663 177.683443 -411.20893387 192.61158021 -431.82568359 208.31567383 C-432.59589844 208.901875 -433.36611328 209.48807617 -434.15966797 210.09204102 C-442.92336335 216.78582813 -451.52497451 223.62840288 -459.89208984 230.81176758 C-462.62936742 233.14811236 -465.40311374 235.42714815 -468.20068359 237.69067383 C-478.49407464 246.08121092 -488.42780017 254.87686584 -498.18115234 263.88598633 C-502.35146302 267.71749776 -506.62971029 271.41933801 -510.91552734 275.12036133 C-514.69494469 278.40007917 -518.32769858 281.73237211 -521.82568359 285.31567383 C-522.50501953 285.98469727 -523.18435547 286.6537207 -523.88427734 287.34301758 C-527.4292025 290.84011912 -530.90755393 294.33672582 -534.13818359 298.12817383 C-537.20071398 301.70469533 -540.47872873 305.00929123 -543.82568359 308.31567383 C-547.68767974 312.13574951 -551.405465 315.99574611 -554.92724609 320.13598633 C-556.94537905 322.45310194 -559.02872144 324.69733764 -561.1262207 326.94238281 C-566.10277304 332.27082039 -570.85721888 337.69300712 -575.42333984 343.38208008 C-578.27529934 346.8647168 -581.23410485 350.24328676 -584.20068359 353.62817383 C-589.8122428 360.05795026 -595.14328597 366.65751144 -600.35400391 373.41430664 C-601.9367735 375.45919874 -603.53247884 377.49351703 -605.13037109 379.52661133 C-615.27226036 392.4527443 -625.03863674 405.63663561 -634.6171875 418.98461914 C-640.63094667 427.36271471 -646.81655257 435.59052052 -653.09033203 443.77563477 C-657.19688178 449.14451687 -661.21158079 454.55926756 -665.10864258 460.08154297 C-670.2921558 467.42010853 -675.66142165 474.62268737 -681.00244141 481.84692383 C-682.80861622 484.29256385 -684.61084001 486.74106019 -686.41162109 489.19067383 C-693.38898525 498.68057982 -700.41214047 508.13371815 -707.49560547 517.54467773 C-708.72966349 519.18782327 -709.95762208 520.83554487 -711.18505859 522.48364258 C-716.47885265 529.58896544 -721.91593662 536.56951575 -727.40966797 543.52026367 C-728.82885741 545.31969801 -730.24226115 547.12352147 -731.65380859 548.92895508 C-736.58777681 555.23718966 -741.56588249 561.50056577 -746.65771484 567.68286133 C-748.09882732 569.43296909 -749.53377763 571.18816995 -750.96240234 572.94848633 C-755.67791634 578.75610321 -760.49884653 584.46039551 -765.38574219 590.12353516 C-768.41130623 593.63766678 -771.36271709 597.19674315 -774.26318359 600.81567383 C-778.85735999 606.48098789 -783.82022391 611.76740108 -788.81005859 617.08129883 C-791.16398729 619.5919626 -793.45562574 622.14405254 -795.70068359 624.75317383 C-798.32684779 627.79978303 -801.11106804 630.62484509 -803.98216248 633.43971252 C-805.77098001 635.26000764 -807.4362667 637.13866868 -809.09545898 639.07714844 C-812.58445136 643.08819174 -816.24510613 646.88026099 -820.00927734 650.63208008 C-820.66847672 651.29223618 -821.32767609 651.95239227 -822.0068512 652.6325531 C-823.38965194 654.01602889 -824.77369435 655.39826466 -826.15893555 656.77929688 C-828.25798702 658.87299052 -830.35164299 660.97197257 -832.44482422 663.0715332 C-833.79932145 664.42536954 -835.15412891 665.77889558 -836.50927734 667.13208008 C-837.12411484 667.7489418 -837.73895233 668.36580353 -838.37242126 669.00135803 C-842.12165054 672.73080612 -845.98672415 676.27392868 -849.99530029 679.72340393 C-852.95342401 682.29670721 -855.78651532 685.00079358 -858.63818359 687.69067383 C-863.63459343 692.3657475 -868.73782972 696.82039073 -874.08349609 701.09692383 C-876.49822912 703.05072491 -878.85471917 705.05777229 -881.20141602 707.09228516 C-915.74648023 736.91757665 -955.92283026 762.35675067 -995.82568359 784.31567383 C-996.91558594 784.91814941 -998.00548828 785.520625 -999.12841797 786.14135742 C-1086.81632371 834.45532847 -1178.76658411 849.86864879 -1276.41552734 822.50317383 C-1345.06826276 802.51974849 -1345.06826276 802.51974849 -1360.82568359 782.31567383 C-1361.62841011 779.40173242 -1361.87187058 776.47287422 -1362.13427734 773.46801758 C-1362.22615326 772.59112274 -1362.31802917 771.71422791 -1362.41268921 770.8107605 C-1362.60873945 768.93224048 -1362.79741338 767.05293867 -1362.97940063 765.17300415 C-1363.45381154 760.29181131 -1363.98515918 755.41701675 -1364.52099609 750.54223633 C-1364.62638199 749.57786148 -1364.73176788 748.61348663 -1364.84034729 747.61988831 C-1366.17573168 735.72827101 -1368.35145458 724.0217207 -1370.82568359 712.31567383 C-1367.29119247 712.85596125 -1364.98545459 713.60743629 -1362.13818359 715.76489258 C-1361.45022705 716.27632812 -1360.76227051 716.78776367 -1360.0534668 717.31469727 C-1359.31829834 717.87189453 -1358.58312988 718.4290918 -1357.82568359 719.00317383 C-1347.72601567 726.47173058 -1337.36011974 733.47673347 -1326.82568359 740.31567383 C-1326.16536133 740.7486377 -1325.50503906 741.18160156 -1324.82470703 741.62768555 C-1281.14825545 770.05371751 -1224.87108205 781.81450737 -1173.32568359 781.69067383 C-1172.46127655 781.69013 -1171.59686951 781.68958618 -1170.70626831 781.68902588 C-1155.43890978 781.64520604 -1140.8080149 780.43620662 -1125.82568359 777.31567383 C-1124.75833984 777.0960498 -1123.69099609 776.87642578 -1122.59130859 776.65014648 C-1052.12390437 761.76222152 -984.79809121 718.43678085 -928.82568359 674.31567383 C-927.70151012 673.44741514 -926.57648394 672.58025955 -925.45068359 671.71411133 C-914.00119222 662.86940331 -903.10488801 653.39146202 -892.40356445 643.65820312 C-890.72660203 642.13434155 -889.04463725 640.61596073 -887.35693359 639.10400391 C-878.75169053 631.32945735 -870.53935612 623.18211974 -862.35131836 614.97167969 C-860.00341304 612.61838083 -857.65016392 610.27051993 -855.29638672 607.9230957 C-853.77848763 606.40453625 -852.26089853 604.88566687 -850.74365234 603.36645508 C-850.05184372 602.67667068 -849.3600351 601.98688629 -848.64726257 601.27619934 C-844.73862139 597.34893183 -841.00295874 593.32348379 -837.39213562 589.12023926 C-834.82995075 586.16858152 -832.13221694 583.3459438 -829.45068359 580.50317383 C-824.82745507 575.56298793 -820.43595528 570.5130987 -816.20458984 565.22973633 C-813.29881222 561.67027803 -810.28609151 558.21315461 -807.26318359 554.75317383 C-802.95891141 549.81733675 -798.75553938 544.83136586 -794.70068359 539.68676758 C-792.68844034 537.1421183 -790.63618231 534.63388744 -788.57568359 532.12817383 C-779.9870923 521.64743162 -771.54254076 511.05972743 -763.32763672 500.28295898 C-761.55508949 497.96124481 -759.77613218 495.64449322 -757.99755859 493.32739258 C-751.7304953 485.1492234 -745.48508425 476.96958412 -739.54345703 468.55102539 C-734.3570265 461.20752102 -728.98435444 454.00022351 -723.64013672 446.77124023 C-720.69773664 442.78918157 -717.76204957 438.80218275 -714.82568359 434.81567383 C-713.65772031 433.23103439 -712.48975155 431.64639897 -711.32177734 430.06176758 C-708.9991288 426.90983309 -706.67902582 423.75604795 -704.36083984 420.60083008 C-697.67822561 411.5104816 -690.94050835 402.46487777 -684.15454102 393.45141602 C-680.6029543 388.72215638 -677.11055207 383.96046065 -673.70068359 379.12817383 C-668.45437521 371.69919077 -662.91297239 364.50276497 -657.35693359 357.30395508 C-655.97567426 355.51043211 -654.60179986 353.71165414 -653.23193359 351.90942383 C-647.08645359 343.84846954 -640.73057578 335.97384749 -634.30957031 328.1315918 C-633.01935165 326.55267662 -631.73632771 324.96788756 -630.45458984 323.38208008 C-621.92866721 312.85373892 -613.00783387 302.64727468 -603.90771484 292.61254883 C-602.54414222 291.10826983 -601.18709402 289.59804468 -599.83740234 288.08129883 C-587.51969324 274.25577223 -574.64176327 260.96342466 -561.53173828 247.89135742 C-559.29519364 245.66025811 -557.06416059 243.42374436 -554.83349609 241.18676758 C-553.38329637 239.7372275 -551.93278709 238.28799704 -550.48193359 236.83911133 C-549.82970825 236.18486176 -549.17748291 235.53061218 -548.50549316 234.85653687 C-544.66251241 231.03283137 -540.70990417 227.39054525 -536.60139465 223.85327148 C-534.01213487 221.61121765 -531.51944052 219.27517328 -529.01318359 216.94067383 C-524.31193174 212.59242721 -519.45319025 208.50296164 -514.46240234 204.48754883 C-511.90148331 202.37811034 -509.45444905 200.18679735 -507.01318359 197.94067383 C-502.58288537 193.90293368 -497.9488831 190.21403874 -493.21362305 186.54711914 C-489.11631388 183.36321579 -485.13658707 180.07140776 -481.20068359 176.69067383 C-475.27261716 171.62316179 -469.13500942 166.90122691 -462.82568359 162.31567383 C-462.16439453 161.83372559 -461.50310547 161.35177734 -460.82177734 160.85522461 C-456.26055163 157.53467712 -451.6841949 154.23581855 -447.09863281 150.94897461 C-444.97226001 149.42100103 -442.85351734 147.88300625 -440.73583984 146.34301758 C-422.89173302 133.45452366 -403.98201945 122.13149377 -384.82568359 111.31567383 C-384.1028418 110.90542969 -383.38 110.49518555 -382.63525391 110.07250977 C-377.39306198 107.10216952 -372.12137666 104.18949011 -366.82568359 101.31567383 C-365.61477051 100.65776855 -365.61477051 100.65776855 -364.37939453 99.98657227 C-336.34665083 84.85040536 -307.23741877 71.53844479 -277.82568359 59.31567383 C-277.20959229 59.05888855 -276.59350098 58.80210327 -275.95874023 58.53753662 C-238.90758595 43.12364928 -200.72805424 30.17420242 -161.82568359 20.31567383 C-161.17547241 20.15021057 -160.52526123 19.98474731 -159.85534668 19.81427002 C-132.95968194 12.99266061 -105.84003302 8.03337101 -78.32568359 4.56567383 C-77.13437836 4.41409821 -77.13437836 4.41409821 -75.91900635 4.25946045 C-70.22793564 3.54321867 -64.53082947 2.90870802 -58.82568359 2.31567383 C-57.50963135 2.17423447 -57.50963135 2.17423447 -56.16699219 2.02993774 C-37.46072021 0.07694154 -18.78544659 -0.027275 0 0 Z " fill="#000000" transform="translate(1421.82568359375,253.684326171875)"/>
<path d="M0 0 C1.41718079 0.13169014 2.83450816 0.26180942 4.25195312 0.390625 C69.26267529 6.31541956 133.28082353 17.37930399 182.96875 63.21484375 C184.8768145 65.04445938 184.8768145 65.04445938 187 66 C187 66.66 187 67.32 187 68 C187.53753906 68.20496094 188.07507812 68.40992188 188.62890625 68.62109375 C191.96163835 70.55923944 194.3584748 73.24581057 196.9375 76.0625 C197.50307617 76.67810791 198.06865234 77.29371582 198.65136719 77.92797852 C233.59962552 116.59999406 245.80183902 163.24520674 251 214 C251.08776199 214.80550293 251.17552399 215.61100586 251.26594543 216.44091797 C252.21308914 226.12985707 252.16405648 235.80667493 252.16796875 245.53125 C252.17119725 247.44893415 252.17456239 249.36661807 252.17805481 251.28430176 C252.18402619 255.31209884 252.18589763 259.33987459 252.18530273 263.36767578 C252.18522274 267.39864719 252.19195963 271.42950186 252.20581055 275.46044922 C252.32925778 312.01054157 251.84362966 348.63615734 247.8125 385 C247.59592216 387.03132003 247.37945491 389.06265185 247.16308594 391.09399414 C243.38614292 425.97717397 238.27675971 460.66194441 232.79138184 495.31155396 C230.23872411 511.4690788 227.89706457 527.62671012 226 543.875 C225.89999695 544.73023254 225.7999939 545.58546509 225.69696045 546.46661377 C219.30121219 601.67464792 225.41841538 649.70401346 260 695 C260.68715088 695.90105469 260.68715088 695.90105469 261.38818359 696.8203125 C282.99457436 724.65059682 311.16135846 744.65214349 342 761 C342.64195313 761.34095703 343.28390625 761.68191406 343.9453125 762.03320312 C365.45529503 773.35069393 387.9818455 782.27422187 411 790 C411.8137207 790.27569824 412.62744141 790.55139648 413.46582031 790.83544922 C452.52721735 803.87058419 498.52631625 807.80666088 539.33984375 802.44921875 C543.95870095 801.8823366 548.35564373 801.77527308 553 802 C554.90871069 803.90871069 554.12904615 806.7209442 554.13894653 809.26036072 C554.1369223 810.14252762 554.13489807 811.02469452 554.1328125 811.93359375 C554.13376923 812.84069595 554.13472595 813.74779816 554.13571167 814.68238831 C554.13639417 816.6117459 554.13453505 818.54110576 554.13037109 820.47045898 C554.12507916 823.3937717 554.13028465 826.31692683 554.13671875 829.24023438 C554.13605689 831.11718783 554.13477352 832.9941412 554.1328125 834.87109375 C554.13584885 836.16701698 554.13584885 836.16701698 554.13894653 837.48912048 C554.11676584 843.37802367 553.68363905 849.15164579 553 855 C504.76049547 871.07983484 432.43160962 855.83276744 386 840 C385.06961914 839.68836914 384.13923828 839.37673828 383.18066406 839.05566406 C344.89817016 826.13993513 306.86674909 807.56042255 274 784 C273.33613281 783.52836426 272.67226562 783.05672852 271.98828125 782.57080078 C261.55747543 775.12346771 252.16692351 766.943567 243 758 C241.99356445 757.03223633 241.99356445 757.03223633 240.96679688 756.04492188 C232.41356496 747.81354253 224.43102737 739.45269631 217.38916016 729.88525391 C215.8836234 727.84206325 214.35366954 725.81830872 212.82421875 723.79296875 C205.0115875 713.33347291 198.14469177 702.51831304 192 691 C191.40493652 689.8860083 191.40493652 689.8860083 190.79785156 688.74951172 C180.20919828 668.55296475 173.26461241 646.54614906 170 624 C169.81824219 622.77410156 169.63648438 621.54820312 169.44921875 620.28515625 C165.95356176 590.86277097 168.67231334 560.81546297 172.18359375 531.546875 C172.34372798 530.20237683 172.34372798 530.20237683 172.50709724 528.83071709 C174.78449555 509.81753402 177.63246594 490.90612507 180.59136963 471.98904419 C186.87315779 431.78296932 192.61631958 391.58700832 195.8125 351 C195.89954193 349.89762497 195.89954193 349.89762497 195.98834229 348.77297974 C197.84817853 324.59959421 198.20962837 300.36512264 198.24023438 276.13110352 C198.2446204 273.17394693 198.25856606 270.21708185 198.28125 267.26000977 C198.70806151 210.34755779 193.27541508 150.96165512 151.61376953 108.59082031 C111.12498138 68.67781826 55.29285311 60.59709548 1.0625 55.125 C0.03804779 55.02154266 -0.98640442 54.91808533 -2.04190063 54.81149292 C-20.41322767 52.98273241 -38.72166309 51.76498974 -57.1875 51.75 C-58.33862274 51.74898788 -58.33862274 51.74898788 -59.51300049 51.74795532 C-115.21011893 51.82449576 -169.38212383 65.17869258 -220 88 C-220.93134766 88.41749512 -221.86269531 88.83499023 -222.82226562 89.26513672 C-250.45648619 101.75005967 -276.61806266 117.84205498 -301.12988281 135.64746094 C-302.92860983 136.94836795 -304.73854817 138.23136065 -306.5546875 139.5078125 C-319.97204116 148.95196531 -332.99128213 158.88582962 -345.40087891 169.62304688 C-347.05370522 171.04624388 -348.71860024 172.45414322 -350.38671875 173.859375 C-363.14605217 184.63528064 -375.17073661 196.08895041 -387 207.875 C-388.32656616 209.19455688 -388.32656616 209.19455688 -389.67993164 210.54077148 C-394.10070255 214.97246099 -398.37964736 219.4639513 -402.45800781 224.21289062 C-404.69822373 226.80921433 -407.03767956 229.30321454 -409.375 231.8125 C-413.64198604 236.4308677 -417.67565887 241.18766951 -421.62109375 246.0859375 C-424.35905042 249.43982202 -427.17216465 252.7219289 -430 256 C-434.29881165 260.98777989 -438.5029534 266.03902969 -442.65234375 271.15234375 C-445.40947827 274.49668828 -448.23148879 277.78071045 -451.0625 281.0625 C-455.12783297 285.77757559 -459.08211576 290.55511122 -462.94140625 295.44140625 C-465.40811854 298.50724411 -467.94879722 301.50443055 -470.5 304.5 C-474.43304732 309.12091076 -478.27744917 313.79776051 -482.05078125 318.55078125 C-487.87283889 325.86627252 -493.85999114 333.03923297 -499.91333008 340.16333008 C-503.56246751 344.46448578 -507.13623023 348.8231941 -510.6953125 353.19921875 C-513.22033005 356.26775703 -515.79481587 359.29042592 -518.375 362.3125 C-522.26337942 366.8713367 -526.01188786 371.51819215 -529.6875 376.25 C-533.32079575 380.92592688 -537.06828628 385.42219463 -541.05078125 389.80859375 C-544.00833273 393.13361656 -546.78520904 396.60060907 -549.58984375 400.0546875 C-552.1541814 403.18841617 -554.75603004 406.28695389 -557.375 409.375 C-557.83479248 409.91721191 -558.29458496 410.45942383 -558.76831055 411.01806641 C-560.64977869 413.23498503 -562.53293145 415.4504697 -564.41601562 417.66601562 C-565.81980812 419.31833569 -567.2227522 420.97136884 -568.625 422.625 C-569.08519531 423.16769531 -569.54539062 423.71039062 -570.01953125 424.26953125 C-572.84301998 427.60784414 -575.62156089 430.97842182 -578.375 434.375 C-583.01619433 440.07514776 -587.83273893 445.61420627 -592.66015625 451.15625 C-595.88054737 454.85487997 -599.06695995 458.58173568 -602.25 462.3125 C-606.4286583 467.20324411 -610.67636796 472.02144024 -615 476.78515625 C-616.79603529 478.77412502 -618.55953303 480.78563194 -620.3125 482.8125 C-624.84760818 488.01178878 -629.54948846 493.05673038 -634.24534607 498.11018372 C-635.36868631 499.32005572 -636.49098808 500.53089327 -637.61195374 501.7429657 C-647.5995753 512.5381217 -657.85771618 523.044023 -668.25708008 533.44238281 C-670.85980019 536.04734086 -673.45434661 538.66027669 -676.04882812 541.2734375 C-677.7052425 542.93277761 -679.36212511 544.59165049 -681.01953125 546.25 C-681.79335648 547.03101074 -682.5671817 547.81202148 -683.36445618 548.61669922 C-684.07667831 549.32584473 -684.78890045 550.03499023 -685.52270508 550.765625 C-686.1480867 551.39243164 -686.77346832 552.01923828 -687.4178009 552.66503906 C-689 554 -689 554 -691 554 C-691 554.66 -691 555.32 -691 556 C-692.45776367 557.44970703 -692.45776367 557.44970703 -694.48046875 559.1328125 C-698.90943945 562.89846034 -703.10922559 566.86117984 -707.3125 570.875 C-712.88584892 576.16244296 -718.51254405 581.21509912 -724.52734375 585.99609375 C-727.10201604 588.0826765 -729.55201386 590.26654786 -732 592.5 C-736.30206867 596.42087271 -740.7627983 600.09612692 -745.2890625 603.75390625 C-747.8929162 605.91127783 -750.38772833 608.14743919 -752.875 610.4375 C-757.02879204 614.21843197 -761.37063026 617.67992876 -765.84472656 621.06713867 C-769.37602905 623.74213601 -772.84990596 626.47386504 -776.29101562 629.26391602 C-799.06119366 647.7146713 -823.35270811 664.18384079 -848 680 C-848.79696289 680.51240234 -849.59392578 681.02480469 -850.41503906 681.55273438 C-890.41724966 707.2158228 -931.58219159 731.12763118 -973.859375 752.8359375 C-978.31315045 755.12290068 -982.74173614 757.4505458 -987.1550293 759.81445312 C-1050.78946901 793.79760932 -1118.17499226 813.37821731 -1189.08203125 825.17529297 C-1193.06444447 825.83932271 -1197.04197151 826.5283549 -1201.01847839 827.22677612 C-1269.34808841 839.20460348 -1340.08500163 841.11345796 -1408 825.375 C-1408.83660156 825.18115723 -1409.67320313 824.98731445 -1410.53515625 824.78759766 C-1412.7124329 824.25100256 -1414.85134958 823.64013647 -1417 823 C-1418.155 822.70351562 -1419.31 822.40703125 -1420.5 822.1015625 C-1423.47979541 819.59667199 -1423.47418083 818.95643068 -1423.87109375 815.203125 C-1423.9546371 812.80315252 -1423.99023578 810.40140627 -1424 808 C-1424.01954094 806.33007633 -1424.03924674 804.66015458 -1424.05908203 802.99023438 C-1424.10861244 797.24316935 -1424.08751219 791.49713991 -1424.0625 785.75 C-1424.05747471 783.73307403 -1424.05291362 781.71614684 -1424.04882812 779.69921875 C-1424.03790468 774.79944878 -1424.02069684 769.89973804 -1424 765 C-1418.84534114 765.56951892 -1413.98586731 766.39287791 -1408.95703125 767.70703125 C-1407.63393111 768.04816831 -1406.31076785 768.38906067 -1404.98754883 768.72973633 C-1403.96584091 768.99531845 -1403.96584091 768.99531845 -1402.92349243 769.26626587 C-1314.9947985 792.01843352 -1226.5781282 779.52608146 -1050 729 C-1048.40841064 728.29061279 -1048.40841064 728.29061279 -1046.78466797 727.56689453 C-1033.49275058 721.61526082 -1020.46763571 715.30742514 -1007.64550781 708.40722656 C-1003.44409681 706.17236748 -999.20943125 704.00255893 -994.97851562 701.82421875 C-984.06361299 696.20120768 -973.21129361 690.50288471 -962.53466797 684.43896484 C-960.68125501 683.38675756 -958.82582716 682.33809719 -956.96923828 681.29150391 C-933.33127864 667.96397789 -910.11126274 654.00673647 -887.22998047 639.41503906 C-884.92186872 637.95042163 -882.60485762 636.50087112 -880.28515625 635.0546875 C-856.63463408 620.28760288 -834.02616417 604.08328481 -812 587 C-811.37609375 586.51789062 -810.7521875 586.03578125 -810.109375 585.5390625 C-802.10662559 579.34890163 -794.30298521 572.96318083 -786.61767578 566.38378906 C-783.87702046 564.03938303 -781.1265431 561.70660928 -778.375 559.375 C-777.83278809 558.91464355 -777.29057617 558.45428711 -776.73193359 557.97998047 C-773.38186012 555.14328175 -769.98663718 552.37233115 -766.5625 549.625 C-761.54824976 545.54908898 -756.81957713 541.21147206 -752.12133789 536.77978516 C-749.16293964 533.99107059 -746.17197255 531.25911761 -743.1015625 528.59375 C-738.82353722 524.87314725 -734.68390141 521.01761699 -730.5625 517.125 C-729.81750244 516.42318604 -729.07250488 515.72137207 -728.30493164 514.99829102 C-723.75850886 510.70221206 -719.29939546 506.33580232 -714.91015625 501.87890625 C-712.3436592 499.35439688 -709.62892269 497.02441855 -706.90234375 494.67578125 C-702.53062499 490.82471894 -698.54008967 486.67027085 -694.75 482.25 C-691.37574326 478.32856649 -687.73631718 474.70605579 -684.05664062 471.07617188 C-680.74000367 467.78698295 -677.64031158 464.37865071 -674.609375 460.828125 C-672.97413566 458.97062012 -671.26518207 457.23393991 -669.5 455.5 C-665.30166921 451.35727624 -661.49566702 446.92151134 -657.66650391 442.43896484 C-656.15307 440.66730033 -654.63913529 438.89606512 -653.125 437.125 C-652.60550781 436.51672363 -652.08601562 435.90844727 -651.55078125 435.28173828 C-648.52152659 431.74413682 -645.44871166 428.25629109 -642.3125 424.8125 C-638.55850824 420.67572196 -635.02853544 416.39278769 -631.515625 412.05078125 C-628.57074948 408.47943376 -625.54279913 404.9878836 -622.5 401.5 C-618.00479267 396.34435937 -613.61376336 391.12488576 -609.30859375 385.80859375 C-606.58655511 382.49701036 -603.79845801 379.24699898 -601 376 C-595.90075439 370.0780899 -590.93042756 364.06341012 -586 358 C-578.80184692 349.18944253 -571.55495641 340.43139824 -564.12011719 331.81933594 C-560.66512745 327.80671504 -557.33774965 323.70960018 -554.0546875 319.5546875 C-551.60811491 316.51275124 -549.09163683 313.53583923 -546.5625 310.5625 C-542.49262309 305.77616385 -538.47911112 300.95011132 -534.51171875 296.078125 C-531.35389844 292.20819902 -528.17707836 288.3541192 -525 284.5 C-521.15927055 279.83933954 -517.32120402 275.17669746 -513.5 270.5 C-512.00030305 268.66641876 -510.50026653 266.83311523 -509 265 C-508.49001465 264.37657715 -507.9800293 263.7531543 -507.45458984 263.11083984 C-500.78405646 254.96266883 -494.06909111 246.86315225 -487.19042969 238.88964844 C-483.47367523 234.57462364 -479.85794327 230.18495179 -476.265625 225.765625 C-472.38288476 221.02600416 -468.41417026 216.36000975 -464.44140625 211.69580078 C-462.99800384 209.99765154 -461.56118577 208.29409807 -460.125 206.58984375 C-453.74272398 199.04531044 -447.13110564 191.75927082 -440.3515625 184.5703125 C-437.46017763 181.50300111 -434.63195151 178.38369378 -431.8125 175.25 C-426.78746391 169.75386677 -421.56970185 164.46137855 -416.3125 159.1875 C-415.51626221 158.38666992 -414.72002441 157.58583984 -413.8996582 156.76074219 C-409.65394825 152.52606464 -405.33006749 148.45033306 -400.78442383 144.53930664 C-398.36847071 142.45522067 -396.03100767 140.28991999 -393.6875 138.125 C-389.27646827 134.10619407 -384.76264642 130.27134676 -380.1171875 126.52734375 C-377.78762058 124.64952084 -375.48742603 122.73975883 -373.1953125 120.81640625 C-357.53634112 107.70972098 -341.07831084 95.84990386 -324.14599609 84.44921875 C-322.24245711 83.16373441 -320.34812567 81.86618032 -318.45703125 80.5625 C-259.08614835 39.90467476 -190.59883117 10.46979528 -119 1 C-117.91750977 0.84901855 -116.83501953 0.69803711 -115.71972656 0.54248047 C-77.85622989 -4.54587288 -37.96123171 -3.84417536 0 0 Z " fill="#000000" transform="translate(1486,426)"/>
<path d="M0 0 C0.69029297 0.28584961 1.38058594 0.57169922 2.09179688 0.86621094 C14.35346403 6.03861344 24.76431122 12.52198324 35 21 C35.66193359 21.53705566 36.32386719 22.07411133 37.00585938 22.62744141 C37.64845703 23.15901855 38.29105469 23.6905957 38.953125 24.23828125 C39.53739258 24.71950439 40.12166016 25.20072754 40.72363281 25.6965332 C42 27 42 27 42 29 C42.57234375 29.2371875 43.1446875 29.474375 43.734375 29.71875 C48.38531933 32.34893921 51.56545371 36.98352062 55 41 C55.65226562 41.7425 56.30453125 42.485 56.9765625 43.25 C74.5764196 64.1090899 85.84173812 90.9291839 89 118 C89.16435547 119.18335938 89.16435547 119.18335938 89.33203125 120.390625 C94.98945519 168.36558005 77.99782073 211.49198366 58 254 C57.70506653 254.62708862 57.41013306 255.25417725 57.10626221 255.90026855 C56.67491974 256.81733582 56.67491974 256.81733582 56.23486328 257.75292969 C35.90618648 300.97983737 22.18907216 342.43869636 17 390 C16.81993408 391.61140869 16.81993408 391.61140869 16.63623047 393.25537109 C13.35967496 423.94561157 12.04995061 457.59969843 18 488 C18.24943359 489.33780518 18.24943359 489.33780518 18.50390625 490.70263672 C22.30159242 510.59477621 28.17161348 530.44147676 38.01318359 548.21484375 C38.99773697 549.99590616 39.94735159 551.79258805 40.89453125 553.59375 C48.47286221 567.72247934 58.94367269 579.50391158 70 591 C70.46937988 591.49129395 70.93875977 591.98258789 71.42236328 592.48876953 C77.08098927 598.38523619 82.95782013 603.75741153 89.3515625 608.84375 C91.81692685 610.85094929 94.12246141 612.94805143 96.4375 615.125 C104.42960569 622.39401041 113.28874736 628.63148229 122 635 C123.10553223 635.81138428 123.10553223 635.81138428 124.23339844 636.63916016 C207.48783604 697.48489057 302.81873981 711.24650969 419 716 C420.24094421 716.0438382 420.24094421 716.0438382 421.50695801 716.08856201 C447.7476321 717.0163765 447.7476321 717.0163765 474 717 C475.32016113 716.98114746 475.32016113 716.98114746 476.66699219 716.96191406 C497.1667288 716.6147011 518.0565479 714.87458241 538.29248047 711.44140625 C543.20625561 710.85638679 548.05804377 710.91957033 553 711 C552.76471363 718.04801658 552.5150541 725.09541853 552.25537109 732.14257812 C552.16872009 734.54024698 552.0853664 736.93803736 552.00537109 739.3359375 C551.88984937 742.78162262 551.76249608 746.22669743 551.6328125 749.671875 C551.59938751 750.74491882 551.56596252 751.81796265 551.53152466 752.92352295 C551.49163422 753.92425842 551.45174377 754.9249939 551.41064453 755.95605469 C551.36401169 757.27509796 551.36401169 757.27509796 551.31643677 758.62078857 C550.9775698 761.16864728 550.38017399 762.83843601 549 765 C546.8840332 765.77319336 546.8840332 765.77319336 544.23828125 766.15234375 C543.24779785 766.29913574 542.25731445 766.44592773 541.23681641 766.59716797 C540.16866699 766.73010254 539.10051758 766.86303711 538 767 C536.92282715 767.13680176 535.8456543 767.27360352 534.73583984 767.41455078 C531.22269224 767.8321906 527.70702319 768.20274344 524.1875 768.5625 C523.03830078 768.68818359 521.88910156 768.81386719 520.70507812 768.94335938 C502.61172082 770.81847128 484.42869852 771.20746618 466.25 771.1875 C465.29366669 771.18722809 464.33733337 771.18695618 463.35202026 771.18667603 C365.53490779 771.06224324 259.59857083 768.75858822 151 718 C150.20948242 717.60603027 149.41896484 717.21206055 148.60449219 716.80615234 C105.48270906 695.16890526 66.75202896 664.19231631 32 631 C31.06027344 630.1028125 30.12054687 629.205625 29.15234375 628.28125 C23.27782286 622.54292356 18.06798514 616.45526588 13 610 C11.98979054 608.75373826 10.97936049 607.50765531 9.96875 606.26171875 C1.3690618 595.50919401 -5.57178708 584.16154672 -12 572 C-12.40702148 571.24058105 -12.81404297 570.48116211 -13.23339844 569.69873047 C-53.13644478 494.2575561 -47.43678128 386.14733549 -23.375 306.3125 C-15.89022148 282.3832437 -5.75662668 259.84299196 5.01887512 237.27165222 C24.83000656 195.72160181 44.54881359 152.68555986 29.83203125 106.3203125 C21.32926449 82.93082466 4.73628281 62.90208085 -18 52.21484375 C-30.66571718 47.08588797 -43.60480064 46.26836408 -57 48.375 C-58.14662109 48.55216553 -59.29324219 48.72933105 -60.47460938 48.91186523 C-139.070208 61.88430854 -218.51570586 95.120376 -282 143 C-282.72268066 143.54398438 -283.44536133 144.08796875 -284.18994141 144.6484375 C-289.15489024 148.39606665 -294.08462102 152.1876785 -299 156 C-299.62390625 156.48210937 -300.2478125 156.96421875 -300.890625 157.4609375 C-313.01588941 166.83988134 -324.66338658 176.68053787 -336 187 C-337.66575617 188.50101105 -339.33243095 190.00100325 -341 191.5 C-342.17828369 192.56287231 -342.17828369 192.56287231 -343.38037109 193.6472168 C-344.97240178 195.07707698 -346.56985812 196.50096645 -348.17700195 197.91381836 C-355.15714903 204.0861447 -361.75735323 210.60432934 -368.33276367 217.20239258 C-370.19142108 219.06643244 -372.05539614 220.92503512 -373.91992188 222.78320312 C-379.29802998 228.15830655 -384.63034623 233.52053565 -389.56079102 239.31567383 C-391.90932184 242.06419192 -394.40222432 244.67623158 -396.875 247.3125 C-401.33504356 252.1064914 -405.56309553 257.02510996 -409.6640625 262.1328125 C-412.33873806 265.41577548 -415.10186487 268.61283049 -417.875 271.8125 C-422.38541855 277.0311779 -426.69839464 282.36974359 -430.92529297 287.81958008 C-434.0226362 291.79830375 -437.22001632 295.67083408 -440.5 299.5 C-444.69009826 304.3956042 -448.70768892 309.39866806 -452.66186523 314.48608398 C-456.37754989 319.24973188 -460.20577575 323.91261508 -464.0625 328.5625 C-469.88047837 335.58715271 -475.48669397 342.73411986 -481 350 C-482.66323023 352.16931613 -484.33164058 354.33462738 -486 356.5 C-486.83342766 357.58326077 -487.66676112 358.66659402 -488.5 359.75 C-493.5 366.25 -498.5 372.75 -503.5 379.25 C-503.91217773 379.78584717 -504.32435547 380.32169434 -504.74902344 380.8737793 C-505.5855491 381.96123001 -506.42213803 383.04863207 -507.25878906 384.13598633 C-509.29379288 386.78093787 -511.32756533 389.42681112 -513.359375 392.07421875 C-515.90231821 395.38586212 -518.44947991 398.69419067 -521 402 C-521.52609863 402.68223633 -522.05219727 403.36447266 -522.59423828 404.06738281 C-529.39295772 412.87450248 -536.25808239 421.61568446 -543.3046875 430.22607422 C-546.86752382 434.58465431 -550.35666956 438.99377312 -553.8125 443.4375 C-557.40553405 448.04889086 -561.12804051 452.48882743 -565.05859375 456.81640625 C-567.17575245 459.1976773 -569.18331671 461.6479604 -571.1875 464.125 C-576.41189738 470.55916349 -581.851011 476.79710885 -587.29736328 483.04296875 C-588.99384818 484.99292902 -590.68358247 486.94852113 -592.37109375 488.90625 C-598.10383356 495.55357429 -603.88897775 502.13406039 -609.8203125 508.60546875 C-611.66245032 510.62917929 -613.46488137 512.67624279 -615.25 514.75 C-620.25631648 520.50667773 -625.52116069 526.0320311 -630.74755859 531.58813477 C-632.39571748 533.35294743 -634.03250003 535.12840343 -635.66259766 536.90991211 C-646.68213027 548.91097519 -658.21626107 560.40372023 -669.73583984 571.92114258 C-672.69989235 574.88509174 -675.65690121 577.85596934 -678.6123848 580.82845974 C-680.90286364 583.13000436 -683.19781929 585.42704324 -685.49410248 587.72279549 C-686.58818966 588.81806262 -687.68065589 589.91495147 -688.77146149 591.01348686 C-690.28079517 592.53254866 -691.79624667 594.04522722 -693.31347656 595.55639648 C-694.17281799 596.41716293 -695.03215942 597.27792938 -695.9175415 598.16477966 C-698 600 -698 600 -700 600 C-700 600.66 -700 601.32 -700 602 C-701.38085938 603.35742188 -701.38085938 603.35742188 -703.34375 604.96875 C-708.69548452 609.51960875 -713.570958 614.50024003 -718.5 619.5 C-723.92480553 625.00263631 -729.34236177 630.40790487 -735.21289062 635.43554688 C-737.94359924 637.82603606 -740.47002578 640.40052099 -743 643 C-746.82556412 646.93066203 -750.78989811 650.60351756 -754.93847656 654.19238281 C-758.33131696 657.16734614 -761.59728814 660.27445089 -764.875 663.375 C-837.58175841 731.79210148 -919.82679779 785.08056243 -1196 853 C-1197.12116211 853.10151367 -1198.24232422 853.20302734 -1199.39746094 853.30761719 C-1245.0950397 857.31263031 -1292.28287022 856.23563882 -1338 853 C-1339.11613678 852.92362305 -1339.11613678 852.92362305 -1340.25482178 852.84570312 C-1396.13737916 849.00775303 -1396.13737916 849.00775303 -1413 836 C-1413.70263672 833.18286133 -1413.70263672 833.18286133 -1413.8046875 829.76953125 C-1413.85077148 828.51736816 -1413.89685547 827.26520508 -1413.94433594 825.97509766 C-1413.96270508 824.66331543 -1413.98107422 823.3515332 -1414 822 C-1414.02610352 820.73075684 -1414.05220703 819.46151367 -1414.07910156 818.15380859 C-1414.1327204 814.33078568 -1414.13672205 810.51084282 -1414.125 806.6875 C-1414.12886719 805.37587891 -1414.13273437 804.06425781 -1414.13671875 802.71289062 C-1414.13542969 801.47087891 -1414.13414063 800.22886719 -1414.1328125 798.94921875 C-1414.13168457 797.82862061 -1414.13055664 796.70802246 -1414.12939453 795.5534668 C-1414 793 -1414 793 -1413 792 C-1410.87282159 792.03984628 -1408.74714483 792.16091823 -1406.625 792.3125 C-1405.95436523 792.36027588 -1405.28373047 792.40805176 -1404.59277344 792.45727539 C-1399.46561267 792.84187116 -1394.36003782 793.37355069 -1389.25 793.9375 C-1378.26095028 795.13979327 -1367.24922566 795.92145922 -1356.22314453 796.69824219 C-1352.3075568 796.97599655 -1348.39298818 797.26672791 -1344.47843933 797.55871582 C-1257.7090291 804.02931532 -1174.48419215 799.39462364 -1085 779 C-1083.87872711 778.74473541 -1083.87872711 778.74473541 -1082.73480225 778.48431396 C-994.63855556 758.40231655 -913.75393704 717.73187031 -834.70458984 651.45019531 C-832.97880671 649.98196961 -831.24925728 648.51826467 -829.51953125 647.0546875 C-822.5292453 641.12182916 -815.7112035 635.03967097 -809.00390625 628.7890625 C-806.42739187 626.38864375 -803.81613264 624.03088869 -801.1875 621.6875 C-791.85500113 613.31727188 -782.63574958 604.77905904 -773.85888672 595.82592773 C-772.05912235 594.05807408 -770.2005444 592.41765966 -768.28125 590.78125 C-763.98383517 587.04522699 -759.98567646 583.06352171 -756 579 C-754.6692679 577.64327703 -753.3359398 576.28909535 -752 574.9375 C-751.4225 574.34839844 -750.845 573.75929688 -750.25 573.15234375 C-748.43611986 571.41719104 -746.59706139 569.80405096 -744.68579102 568.18139648 C-737.80506038 562.19283786 -731.46855256 555.61195772 -725.02734375 549.16015625 C-723.57595649 547.70944381 -722.12442092 546.25887975 -720.67274475 544.80845642 C-717.64112391 541.77830417 -714.61130433 538.74636547 -711.58276367 535.71313477 C-707.7174191 531.84209345 -703.84760175 527.9755596 -699.97641659 524.11036015 C-696.98132263 521.11889448 -693.98863271 518.12503289 -690.99664497 515.13046074 C-689.57134779 513.70450056 -688.14531872 512.2792715 -686.71851921 510.85481453 C-677.25802076 501.48353886 -677.25802076 501.48353886 -668.35133362 491.59288025 C-665.688319 488.45386015 -662.82260595 485.49496392 -660 482.5 C-655.23351137 477.41404329 -650.52408507 472.30409974 -646 467 C-645.12522728 465.9789719 -644.25020301 464.95815929 -643.375 463.9375 C-641.85725997 462.16713979 -640.33988897 460.39647082 -638.82373047 458.62475586 C-635.06589631 454.23520182 -631.28789611 449.86362455 -627.5 445.5 C-618.19670035 434.77493824 -608.93757539 424.03368427 -600 413 C-598.9925056 411.76276174 -597.98467062 410.52580075 -596.9765625 409.2890625 C-593.6438694 405.19850627 -590.31950621 401.10126324 -587 397 C-586.49033691 396.3704541 -585.98067383 395.7409082 -585.45556641 395.09228516 C-579.11043118 387.24201522 -572.89826828 379.30203424 -566.78735352 371.26806641 C-563.37931052 366.79032333 -559.92988103 362.34969288 -556.4375 357.9375 C-552.61065109 353.09721406 -548.87521081 348.19703255 -545.1875 343.25 C-539.11901556 335.11208304 -532.90118322 327.09538872 -526.64453125 319.1015625 C-525.13582674 317.17357432 -523.63004649 315.24334395 -522.125 313.3125 C-516.77443118 306.4613849 -511.33018831 299.69262596 -505.83349609 292.95825195 C-502.36073479 288.69669387 -498.94176015 284.39844852 -495.5625 280.0625 C-489.7086391 272.56001395 -483.64293431 265.23607588 -477.57470703 257.90673828 C-475.47508831 255.36440925 -473.39353488 252.80755092 -471.3125 250.25 C-467.62216996 245.73122853 -463.86230077 241.27518526 -460.08081055 236.83276367 C-457.20762011 233.45091991 -454.40110545 230.02500515 -451.625 226.5625 C-446.99722783 220.86934143 -442.00608975 215.54957238 -436.98828125 210.203125 C-434.79539746 207.86386908 -432.65168627 205.49547641 -430.5625 203.0625 C-421.20285616 192.28199456 -411.20381013 182.10316189 -401.125 172 C-400.63322266 171.50563446 -400.14144531 171.01126892 -399.63476562 170.50192261 C-394.49585757 165.34168105 -389.31618589 160.27862826 -383.78320312 155.53808594 C-381.01036864 153.14640231 -378.35765933 150.62988182 -375.6875 148.125 C-370.81548522 143.58776335 -365.80018291 139.30838989 -360.60546875 135.140625 C-358.03021118 133.02482118 -355.57615082 130.82024279 -353.125 128.5625 C-348.5066882 124.36403473 -343.64642668 120.55569733 -338.671875 116.79296875 C-336.01374744 114.78186621 -333.38391622 112.73848097 -330.765625 110.67578125 C-311.14372129 95.22760924 -290.65522514 80.76047918 -269.05371094 68.19677734 C-267.6192137 67.36083994 -266.18780754 66.51958551 -264.75878906 65.67431641 C-205.98739894 30.92600375 -139.2101315 6.94258163 -72 -5 C-70.82920898 -5.21390381 -70.82920898 -5.21390381 -69.63476562 -5.43212891 C-47.2090175 -9.3917734 -21.23798773 -8.85779488 0 0 Z " fill="#000000" transform="translate(1483,611)"/>
</svg>
