<?xml version="1.0" encoding="UTF-8"?>
<svg version="1.1" xmlns="http://www.w3.org/2000/svg" width="2048" height="2048">
<path d="M0 0 C5.65104454 5.26097243 9.75754565 9.92924038 10.13671875 17.859375 C10.26212949 25.76989872 10.26212949 25.76989872 9.50341797 29.33032227 C7.34675492 40.76733026 9.85850912 52.77051101 11.5625 64.125 C11.83014072 65.95736964 12.09730235 67.78980931 12.36401367 69.62231445 C13.7934869 79.35810515 15.31986787 89.07632247 16.921875 98.78515625 C17.0800621 99.74528625 17.23824921 100.70541626 17.40122986 101.69464111 C18.16332239 106.30608231 18.9360864 110.91535344 19.72680664 115.52197266 C25.12383608 147.33266586 25.12383608 147.33266586 17.5234375 158.08984375 C12.76955303 163.4182498 6.6777739 166.31847003 -0.359375 167.34375 C-8.30939189 167.67271622 -14.93782896 164.8246026 -21.06005859 159.85498047 C-27.0216613 154.15446986 -28.80745358 146.90572398 -29.8125 139 C-30.12750305 136.80690139 -30.44550872 134.61423309 -30.765625 132.421875 C-30.94931641 131.13990234 -31.13300781 129.85792969 -31.32226562 128.53710938 C-32.12308551 123.08179364 -33.02389539 117.64314594 -33.921875 112.203125 C-34.09607468 111.14710083 -34.27027435 110.09107666 -34.44975281 109.00305176 C-34.98672367 105.75193308 -35.52451841 102.50095157 -36.0625 99.25 C-38.0251957 87.38896616 -39.96714129 75.52675441 -41.6953125 63.62890625 C-41.81644913 62.80718933 -41.93758575 61.98547241 -42.06239319 61.13885498 C-44.59566575 43.35019712 -47.00748991 21.46432086 -36.5 5.7578125 C-31.79557176 -0.18806208 -26.553586 -2.52008455 -19.5 -4.8125 C-12.38564518 -5.34607661 -5.85941262 -4.21325151 0 0 Z " fill="#000000" transform="translate(614,23)"/>
<path d="M0 0 C0.90347168 0.44214844 1.80694336 0.88429688 2.73779297 1.33984375 C15.52294487 7.66280713 27.55136796 14.48903417 39 23 C39.5686377 23.41459473 40.13727539 23.82918945 40.72314453 24.25634766 C49.38005858 30.57802469 57.28444215 37.56784189 65 45 C65.52513184 45.50321777 66.05026367 46.00643555 66.59130859 46.52490234 C73.61456364 53.2871507 79.9809914 60.31492982 86 68 C87.01078204 69.24815498 88.02257108 70.49549489 89.03515625 71.7421875 C99.59610994 84.88773056 108.797618 98.89009984 118 113 C118.92578857 112.53601807 119.85157715 112.07203613 120.80541992 111.59399414 C178.03659229 82.92871676 234.99554378 76.61670971 296.4453125 96.70703125 C319.33008221 104.52342868 342.35827206 114.73330096 362 129 C362.97839844 129.69480469 363.95679688 130.38960937 364.96484375 131.10546875 C372.48821404 136.57613055 379.27808763 142.59728459 386 149 C386.75796875 149.69351563 387.5159375 150.38703125 388.296875 151.1015625 C400.03670613 162.19870214 409.21338316 175.93077473 417 190 C417.43022461 190.76231934 417.86044922 191.52463867 418.30371094 192.31005859 C459.38721544 265.51100825 459.12812433 354.67793783 438 434 C436.74920253 438.42426039 435.40998682 442.81149317 434 447.1875 C433.6920752 448.16170898 433.38415039 449.13591797 433.06689453 450.13964844 C431.19346098 455.66574326 428.96977031 459.88767473 425.171875 464.3371582 C423.71196946 466.06965507 423.71196946 466.06965507 424 469 C425.71368762 470.7439032 425.71368762 470.7439032 428.03125 472.40625 C428.89693604 473.06214111 429.76262207 473.71803223 430.65454102 474.39379883 C431.59354248 475.08884521 432.53254395 475.7838916 433.5 476.5 C434.45382568 477.21760498 435.40765137 477.93520996 436.39038086 478.67456055 C442.01479185 482.87792903 447.72663495 486.91011761 453.5625 490.8125 C460.7101051 495.6088018 466.84656428 500.97842362 473 507 C474.29164063 508.21623047 474.29164063 508.21623047 475.609375 509.45703125 C480.71237922 514.36193748 485.09124528 519.52908698 489.31860352 525.17871094 C492.58705073 529.53321922 496.11084365 533.54622839 499.79296875 537.55078125 C502.86722074 540.96238478 505.73879424 544.52360485 508.62109375 548.09765625 C510.27561395 550.11622523 511.94200798 552.09649938 513.66015625 554.05859375 C526.58273243 568.8540402 536.04985667 585.42275212 545.015625 602.8359375 C545.52826904 603.83157715 546.04091309 604.8272168 546.5690918 605.85302734 C547.60009412 607.8554982 548.63021592 609.85842268 549.65942383 611.86181641 C552.89662251 618.09185714 556.41355705 623.81208754 560.4453125 629.55859375 C562.74893502 633.17609143 564.00192748 636.85283659 565 641 C565.226875 641.845625 565.45375 642.69125 565.6875 643.5625 C567.29372143 656.09102715 562.9959681 666.00537587 555.546875 675.9375 C548.91405298 683.44129865 536.81941813 689.30946109 526.90722656 690.18481445 C524.64261273 690.26755034 522.39090944 690.27308227 520.125 690.25 C519.37347656 690.25773438 518.62195312 690.26546875 517.84765625 690.2734375 C514.03777563 690.26036758 510.60477579 689.97677179 506.91601562 689.00439453 C501.51738623 687.77118789 496.29537122 687.64244075 490.7734375 687.6640625 C489.10612076 687.66848862 489.10612076 687.66848862 487.40512085 687.67300415 C471.90188698 687.87435168 456.4934134 689.57352206 441.07965088 691.12835693 C433.79695411 691.86012155 426.51160475 692.56547618 419.2265625 693.2734375 C418.04748196 693.38837681 418.04748196 693.38837681 416.8445816 693.50563812 C402.2455197 694.92520401 387.6434271 696.12708944 373 697 C372.09966034 697.05373779 371.19932068 697.10747559 370.271698 697.1628418 C351.28429212 698.24148174 332.24908156 698.39725091 313.23794556 698.75909424 C281.41503287 699.36655726 249.60920352 700.15574435 217.8015337 701.31700993 C161.2532637 703.37994765 105.37772334 704.05039798 48.88189697 699.8661499 C5.01338959 696.62245089 -38.7945028 694.42295647 -82.78839111 694.0378418 C-97.20498043 693.91038653 -111.62130368 693.74928263 -126.03759766 693.59249496 C-128.80606639 693.56256954 -131.57454134 693.53328044 -134.34301758 693.50405884 C-160.86050531 693.22137514 -187.36615391 692.73509746 -213.875 692 C-215.01778601 691.96836195 -215.01778601 691.96836195 -216.1836586 691.93608475 C-221.28660459 691.79423772 -226.38943474 691.64863077 -231.4921875 691.5 C-232.19025702 691.47968468 -232.88832653 691.45936935 -233.60754967 691.43843842 C-241.01724894 691.221543 -248.42588952 690.98845507 -255.83398438 690.72143555 C-277.14232938 689.96731504 -298.42955293 689.80005923 -319.75 689.8125 C-320.66375523 689.81261959 -321.57751045 689.81273918 -322.51895523 689.8128624 C-383.41937195 689.82287196 -444.27269946 691.20192459 -505.07263184 694.77026367 C-509.33504536 695.0195989 -513.59765961 695.26524621 -517.86035156 695.50976562 C-518.62317507 695.55354277 -519.38599857 695.59731991 -520.17193794 695.64242363 C-524.1003979 695.86778795 -528.02887763 696.09280549 -531.95736694 696.31765747 C-533.53228908 696.40787212 -535.10720973 696.49811256 -536.68212891 696.58837891 C-537.84964093 696.65528522 -537.84964093 696.65528522 -539.04073906 696.72354317 C-543.55955962 696.98307667 -548.07810466 697.24684957 -552.59642601 697.51493073 C-555.43537173 697.68305359 -558.2744457 697.84894809 -561.11353683 698.01459503 C-563.00058686 698.12550051 -564.88746184 698.2393729 -566.77432251 698.35345459 C-589.18812956 699.65664574 -611.55956154 700.13771789 -634.00915074 700.03553081 C-637.50474114 700.02140518 -641.00034508 700.01528811 -644.49595642 700.00868225 C-655.5676846 699.98647948 -666.63937752 699.95490636 -677.71104711 699.91248703 C-711.17303285 699.78461794 -744.55595589 699.71737925 -777.96754837 701.86987686 C-781.09886588 702.07035241 -784.23100794 702.25706428 -787.36303711 702.44604492 C-792.43146806 702.75816341 -797.49812257 703.09218757 -802.56460571 703.43426514 C-848.68893132 706.49651389 -894.44055215 703.5967186 -940.0625 696 C-940.94139893 695.85828369 -941.82029785 695.71656738 -942.72583008 695.57055664 C-951.3609951 694.02961832 -960.81182518 691.4862641 -966.3359375 684.25 C-973.00931071 674.37495062 -973.19669269 662.54221346 -972 651 C-969.12330716 638.95802999 -960.60535392 629.60359248 -952.4140625 620.72265625 C-949.15696467 617.04919802 -946.16667216 613.19356717 -943.15917969 609.31542969 C-940.15935104 605.45432619 -937.08863944 601.67639116 -933.9375 597.9375 C-924.25054874 586.48256694 -924.25054874 586.48256694 -916 574 C-916.4429541 573.58967529 -916.8859082 573.17935059 -917.34228516 572.7565918 C-921.80777088 568.47961157 -925.21620335 564.11512407 -928.375 558.8125 C-928.84558838 558.02407715 -929.31617676 557.2356543 -929.80102539 556.42333984 C-944.41687572 531.3993447 -955.45946712 500.82571188 -959 472 C-959.21342041 470.35185303 -959.21342041 470.35185303 -959.43115234 468.67041016 C-967.39240549 405.41556601 -953.36062585 338.60873018 -914 287.125 C-912.34810585 285.06807411 -910.68430715 283.02956505 -909 281 C-908.525625 280.41492676 -908.05125 279.82985352 -907.5625 279.22705078 C-901.33814686 271.55804797 -895.16507737 264.67269878 -887 259 C-886.45408203 258.61344238 -885.90816406 258.22688477 -885.34570312 257.82861328 C-851.01862444 233.74188733 -813.45431561 220.18928199 -772 216 C-771.29907227 215.92797363 -770.59814453 215.85594727 -769.87597656 215.78173828 C-765.91896652 215.39182903 -761.97291693 215.15052383 -758 215 C-757.32340332 214.97276855 -756.64680664 214.94553711 -755.94970703 214.91748047 C-705.06947047 213.1185128 -663.77888983 247.63469558 -627.37646484 279.26953125 C-624.98276703 281.34334727 -622.64003771 283.23997486 -620 285 C-619.77054688 284.21109375 -619.54109375 283.4221875 -619.3046875 282.609375 C-609.89088852 256.56641016 -591.19505857 233.47532653 -573 213 C-572.35933594 212.27296875 -571.71867187 211.5459375 -571.05859375 210.796875 C-551.25973443 189.71352592 -522.03695557 174.50530737 -493.00073242 172.95581055 C-475.9664375 172.53385059 -458.25671548 178.38948935 -445 189 C-443.66887315 190.00293523 -442.33621689 191.00385633 -441 192 C-440.97873047 190.91912109 -440.97873047 190.91912109 -440.95703125 189.81640625 C-438.69245384 138.83281213 -413.72977479 88.9818788 -376.45605469 54.71044922 C-338.07612138 20.47820323 -288.58931049 -2.76518416 -239 -15 C-237.94167969 -15.26119629 -236.88335938 -15.52239258 -235.79296875 -15.79150391 C-211.62646467 -21.64862518 -186.81446897 -26.10385893 -162 -28 C-161.26604004 -28.05639648 -160.53208008 -28.11279297 -159.77587891 -28.17089844 C-105.24795649 -32.15930739 -49.36135702 -24.19694332 0 0 Z M-340 75 C-340.6487207 75.46229004 -341.29744141 75.92458008 -341.96582031 76.40087891 C-388.81547103 109.95293627 -414.20361385 161.25712385 -429.11328125 215.8046875 C-430 218 -430 218 -433 220 C-437.21841754 221.19698591 -441.38590218 221.08294771 -445.73046875 220.9921875 C-447.26260108 220.97190501 -448.79474736 220.95265594 -450.3269043 220.93432617 C-451.12156097 220.92388275 -451.91621765 220.91343933 -452.73495483 220.90267944 C-466.0890128 220.75196544 -478.97920429 220.68827566 -492 224 C-492.71591309 224.17160645 -493.43182617 224.34321289 -494.16943359 224.52001953 C-523.9836088 231.76476699 -544.23667679 254.82172266 -560 280 C-596.30965477 340.40082254 -614.5824978 420.81413662 -600.32128906 490.45385742 C-598.03379799 501.93563565 -598.66727349 510.71488463 -604.765625 520.96875 C-610.37109564 529.17833692 -616.10640584 534.02128117 -626 536 C-633.26987434 536.83883166 -640.42610613 534.5672471 -646.34375 530.31640625 C-649.09245288 527.93180393 -651.60443789 525.4315223 -654.0625 522.75 C-659.7491488 517.61367205 -666.09753784 517.52049496 -673.375 517.625 C-674.41172852 517.63297607 -675.44845703 517.64095215 -676.51660156 517.64916992 C-688.84830999 517.86312416 -701.0916606 519.13610336 -713.35325623 520.36512756 C-718.67739364 520.8909605 -724.00479652 521.32769209 -729.33984375 521.7265625 C-783.82931548 525.82361109 -820.85573192 541.92160474 -859.8125 580.6875 C-860.61308838 581.48333496 -861.41367676 582.27916992 -862.23852539 583.09912109 C-869.16782754 590.04791393 -875.57479656 597.32777215 -881.6875 605 C-882.19804932 605.63881104 -882.70859863 606.27762207 -883.23461914 606.93579102 C-887.40543494 612.18525505 -891.41998881 617.54235875 -895.41308594 622.92749023 C-899.63338805 628.58653171 -904.0484644 634.07105297 -908.54858398 639.50952148 C-909.05719971 640.12641846 -909.56581543 640.74331543 -910.08984375 641.37890625 C-910.53191162 641.9107251 -910.97397949 642.44254395 -911.42944336 642.99047852 C-913.72029998 645.92162119 -915.85436085 648.96162967 -918 652 C-899.44385495 653.34600063 -880.8444464 653.28368445 -862.25 653.3125 C-861.38834984 653.31438702 -860.52669968 653.31627403 -859.6389389 653.31821823 C-828.78521125 653.37964633 -798.17384148 652.26040466 -767.42037964 649.7230835 C-747.1363558 648.11262557 -726.83614933 647.86897835 -706.49847603 647.98596573 C-702.35973455 648.00860099 -698.22104443 648.02257846 -694.08226013 648.03366089 C-682.33008202 648.0663985 -670.57798002 648.10734439 -658.82592773 648.17138672 C-620.42585309 648.37627751 -582.31561618 647.59668249 -543.97230911 645.18463135 C-539.58513172 644.91211243 -535.19688339 644.65972399 -530.80834961 644.41015625 C-525.12439964 644.08555896 -519.44088593 643.75488476 -513.7578125 643.4152832 C-478.85187358 641.33918986 -443.95950188 639.86898683 -409 639 C-407.84487915 638.97077454 -406.6897583 638.94154907 -405.49963379 638.91143799 C-389.485058 638.50995759 -373.47077628 638.22157723 -357.45220947 638.03967285 C-355.17024969 638.01344853 -352.8883066 637.98572419 -350.60638428 637.9564209 C-312.19893775 637.46489641 -273.88691176 638.39715286 -235.50054932 639.58340454 C-206.41776616 640.47843545 -177.3448788 641.13898351 -148.25089312 641.47590256 C-145.83469014 641.50396611 -143.41849465 641.53260882 -141.00230026 641.56140137 C-126.67323769 641.73165991 -112.34414715 641.89884967 -98.01452637 642.0145874 C-64.59292645 642.2856185 -31.27016217 642.9915626 2.1015625 644.92578125 C3.20104198 644.98939193 3.20104198 644.98939193 4.32273316 645.05428767 C22.16710586 646.09221548 39.99302196 647.33446009 57.81262207 648.73422241 C114.37983732 653.13365941 171.10062823 651.33573183 227.73413086 649.2109375 C231.4763763 649.07097824 235.21864337 648.93162036 238.9609375 648.79296875 C240.35808455 648.74117525 240.35808455 648.74117525 241.7834568 648.68833542 C256.78302368 648.13756033 271.78270654 647.73765563 286.7890625 647.42578125 C287.81760471 647.40432289 288.84614693 647.38286453 289.90585709 647.36075592 C299.86647849 647.15461633 309.82729539 646.96179999 319.78847313 646.78463078 C351.60751831 646.21347885 383.30114733 644.99619849 414.98526001 641.88317871 C418.39860226 641.54790356 421.81279315 641.22265597 425.22729492 640.89941406 C431.81895301 640.27401956 438.40960438 639.63854424 445 639 C464.32516938 637.12824856 483.5787283 635.48452794 503 635 C495.21139712 617.65353136 486.62458577 601.3536957 474 587 C473.06328959 585.90649971 472.1284986 584.81135321 471.1953125 583.71484375 C467.62116583 579.51948892 464.02369989 575.34438523 460.42236328 571.17236328 C458.86355041 569.36607376 457.30632405 567.55843424 455.75 565.75 C455.2449292 565.16387939 454.7398584 564.57775879 454.21948242 563.97387695 C451.38797451 560.6722354 448.66115275 557.31690417 446 553.875 C437.00951315 542.65516478 427.02366838 534.65491252 415.1875 526.58984375 C377.72201856 500.95150812 377.72201856 500.95150812 373.125 481.25 C372.60606349 475.65211043 373.95189329 470.1856319 376 465 C377.5390625 463.2734375 377.5390625 463.2734375 379.1875 461.8125 C381.65399126 459.29811571 381.98993099 458.24053753 382.140625 454.640625 C382.08369632 453.28075591 382.01522422 451.92133912 381.9375 450.5625 C381.55977204 443.04612875 382.86391637 436.84602959 385.125 429.6875 C406.39459611 361.90014806 408.06039561 283.37369449 374.625 219.125 C368.23347847 207.23546979 360.32008852 196.75358101 351 187 C350.02740234 185.91525391 350.02740234 185.91525391 349.03515625 184.80859375 C321.47457852 155.23783952 271.80103515 137.5486029 232.00048828 135.8737793 C179.0026698 133.75634486 179.0026698 133.75634486 131.73046875 150.96875 C129.86262623 153.06724798 129.86262623 153.06724798 128.125 155.9375 C123.94110196 161.96723541 119.68096529 164.6494577 112.72265625 166.6015625 C109.68681327 167.0458322 107.27087581 166.73498414 104.25 166.25 C100.38701568 165.67167622 100.38701568 165.67167622 97.04296875 167.375 C95.49690814 169.18061823 94.22620969 170.96628637 93 173 C92.34 173.99 91.68 174.98 91 176 C87.0029687 176.51813369 84.88377921 176.67446308 81.625 174.1875 C78.04950916 169.37433925 78.59662662 163.74807069 79 158 C79.49514542 156.5120375 80.01452406 155.03182765 80.5625 153.5625 C81.42223996 150.21309639 81.12980138 149.22684039 79.375 146.16015625 C77.77827823 144.06445893 76.17144543 142.03024592 74.484375 140.01171875 C72.32220495 137.39059751 70.558822 134.84053528 68.8125 131.9375 C58.58834349 115.51688499 46.19586442 100.11253998 33 86 C32.12988281 85.06414062 31.25976562 84.12828125 30.36328125 83.1640625 C-15.28571417 35.19769805 -87.6627977 19.74719962 -151.42553711 17.9309082 C-216.85647942 17.29434759 -286.74422651 36.60867285 -340 75 Z M-857 301 C-857.62519531 301.44085938 -858.25039063 301.88171875 -858.89453125 302.3359375 C-883.23449368 321.1466813 -896.46554078 359.13881102 -904.875 387.375 C-905.16133301 388.32463623 -905.44766602 389.27427246 -905.74267578 390.25268555 C-909.28354218 402.60739227 -910.36922826 414.8718459 -910.3125 427.6875 C-910.31067719 428.34931274 -910.30885437 429.01112549 -910.30697632 429.69299316 C-910.21309069 450.19859238 -908.29799813 470.41085315 -902 490 C-901.74202637 490.80985352 -901.48405273 491.61970703 -901.21826172 492.45410156 C-898.20035023 501.78416187 -894.76024593 510.89830198 -890.8125 519.875 C-890.49176514 520.605979 -890.17103027 521.33695801 -889.84057617 522.09008789 C-886.41083243 530.24598977 -886.41083243 530.24598977 -879.6875 535.3125 C-875.58146676 534.96453108 -875.33542082 534.70281534 -872.73828125 531.84375 C-869.25422508 528.18998732 -865.56299737 525.17094722 -861.5 522.1875 C-860.46069336 521.41937988 -860.46069336 521.41937988 -859.40039062 520.63574219 C-847.43855091 511.86263994 -835.47607379 504.24205931 -822 498 C-820.87207031 497.46632813 -819.74414062 496.93265625 -818.58203125 496.3828125 C-792.39466612 484.53249252 -764.36806949 481.55085162 -736.04547119 479.11883545 C-729.78827143 478.58056807 -723.53245011 478.02687568 -717.27734375 477.46484375 C-716.27583471 477.37539427 -716.27583471 477.37539427 -715.25409317 477.28413773 C-705.23691657 476.38297632 -695.30950365 475.18217051 -685.37426758 473.6262207 C-676.79473061 472.31746552 -667.8929019 471.48336192 -659.25878906 472.49902344 C-658.45830139 472.59197693 -657.65781372 472.68493042 -656.83306885 472.78070068 C-656.22815613 472.85306946 -655.62324341 472.92543823 -655 473 C-655.02094727 471.68845947 -655.04189453 470.37691895 -655.06347656 469.02563477 C-655.66845321 427.354843 -653.17189231 386.42726102 -641.60253906 346.13305664 C-640.7310169 343.04776931 -640.22636311 341.16487819 -641 338 C-642.8212129 335.82353817 -644.77631405 333.92306925 -646.86328125 332 C-648.71445385 330.26727537 -650.246795 328.54603243 -651.8125 326.5625 C-655.14863555 322.57364228 -659.14543335 319.49267896 -663.19921875 316.26171875 C-665.74981913 314.2020289 -668.19538214 312.07484665 -670.625 309.875 C-674.06848075 306.78794971 -677.58770905 303.88263799 -681.2734375 301.08984375 C-683.39225294 299.46582332 -685.46865609 297.812815 -687.5390625 296.12890625 C-695.57698444 289.67862446 -703.8377198 284.07893297 -712.8125 279 C-713.7420752 278.4726123 -714.67165039 277.94522461 -715.62939453 277.40185547 C-759.91798528 252.94654499 -818.56651077 272.90208678 -857 301 Z " fill="#000000" transform="translate(1394,62)"/>
<path d="M0 0 C6.47036899 3.66758436 11.38943146 8.86333761 13.6875 16 C15.47190379 27.18908933 12.05660898 34.7673518 6.70849609 44.18798828 C5.3461678 46.60577895 4.10583941 49.07555469 2.875 51.5625 C2.39933594 52.51125 1.92367187 53.46 1.43359375 54.4375 C-0.45963768 58.30020036 -2.30246244 62.18487853 -4.14379883 66.07250977 C-19.93274612 99.34857886 -19.93274612 99.34857886 -30.3125 113 C-30.90675781 113.79019531 -31.50101563 114.58039063 -32.11328125 115.39453125 C-36.77921281 121.17599588 -42.27767623 124.65505874 -49.3125 127 C-57.66377656 127.88978593 -64.45370759 127.07697089 -71.3125 122 C-76.77611596 116.3776898 -79.59217002 110.64332223 -79.6875 102.75 C-79.46062984 92.5975604 -74.83029176 86.17419482 -69.50585938 77.82641602 C-60.81035713 64.02465212 -53.82909799 49.28259409 -47.125 34.4375 C-40.79232097 20.49069849 -34.67614621 7.17832755 -21.0625 -0.9375 C-13.82111967 -2.98922443 -6.94221912 -3.13246472 0 0 Z " fill="#000000" transform="translate(852.3125,81)"/>
<path d="M0 0 C2.35328365 2.0636831 4.79251825 4.01678991 7.23095703 5.97851562 C11.68967819 9.60770727 15.98142927 13.38480518 20.23095703 17.25585938 C22.20730075 19.04859008 24.20802433 20.8014679 26.23095703 22.54101562 C32.83273631 28.29572343 39.182351 34.33575426 45.54345703 40.35351562 C46.34525391 41.11148438 47.14705078 41.86945313 47.97314453 42.65039062 C57.29063689 51.70594545 65.37301367 60.65555637 66.98095703 73.97851562 C66.03868771 81.24745039 63.73376236 88.01719148 58.54345703 93.35351562 C50.88980058 99.13494692 44.07730864 100.2992911 34.54345703 99.35351562 C25.63278001 96.61271428 20.2513944 90.4967868 14.35595703 83.66601562 C7.68967456 75.94874268 0.34670647 68.71500488 -7.42138672 62.11132812 C-9.86482335 60.00087422 -12.21573118 57.80058684 -14.58154297 55.60351562 C-18.68998894 51.8468979 -22.9205424 48.37163979 -27.33154297 44.97851562 C-41.15191872 34.29463859 -55.40930786 23.0169513 -58.39404297 4.79101562 C-58.84532993 -1.27986849 -56.85260411 -6.31971581 -53.76904297 -11.45898438 C-36.32562533 -27.95951457 -14.3072856 -12.74304587 0 0 Z " fill="#000000" transform="translate(362.45654296875,131.646484375)"/>
<path d="M0 0 C1.86978386 0.41763351 3.73982272 0.83412688 5.61010742 1.24951172 C10.13411079 2.25904583 14.65306446 3.28929659 19.17053223 4.32763672 C21.31117551 4.81748844 23.45321366 5.30002242 25.59667969 5.77734375 C36.57184706 8.22506485 47.40990982 10.95122107 58.125 14.375 C59.38437378 14.76582764 59.38437378 14.76582764 60.66918945 15.16455078 C68.9441155 17.94055714 75.26545609 22.24649112 79.59765625 29.93359375 C82.86309481 36.50413207 83.49001297 42.24408256 81.4375 49.3125 C78.79807316 56.45233204 75.27874099 61.29616258 68.4375 64.8125 C57.92480903 69.64309787 49.77006858 67.39947986 39.27670288 63.72413635 C31.06826018 60.88443319 22.91824655 58.63832343 14.39909744 56.87586784 C12.34362346 56.45025854 10.29086737 56.01312086 8.2383728 55.57337952 C3.15286763 54.48599099 -1.93625422 53.41600083 -7.02587891 52.3480835 C-11.36189273 51.43785067 -15.69605065 50.51959639 -20.02803421 49.59036446 C-22.03204497 49.16381467 -24.03822927 48.74891641 -26.04476929 48.3344574 C-37.98158831 45.77850482 -48.86196229 42.25864385 -55.875 31.5625 C-58.7693843 25.78665276 -59.1541556 19.43422514 -57.4375 13.25 C-54.55637209 5.8842205 -49.47510153 0.81061129 -42.33203125 -2.43359375 C-28.79088084 -7.37541565 -13.47940184 -3.09545567 0 0 Z " fill="#000000" transform="translate(210.4375,339.125)"/>
<path d="M0 0 C4.80488578 0.1281207 9.6099538 0.23183512 14.41555595 0.32886028 C18.16149278 0.40729625 21.90702245 0.4988689 25.65256119 0.59430885 C27.424912 0.63785882 29.19736804 0.67734464 30.96990585 0.7124691 C54.33870805 1.1933538 54.33870805 1.1933538 63.15869141 9.62133789 C69.26727937 16.2660144 70.2151536 22.04024398 70.12353516 30.94555664 C69.5727673 38.02685762 66.22845561 43.07784113 61.02563477 47.81567383 C53.26889281 53.68262937 44.19359501 54.01019334 34.85009766 53.77368164 C33.58987793 53.75821289 32.3296582 53.74274414 31.03125 53.72680664 C27.44625408 53.68004086 23.86247422 53.60330478 20.27819824 53.51837158 C17.69057556 53.45742436 15.1028792 53.4010788 12.51513672 53.34545898 C5.01837177 53.18281933 -2.47824288 53.01773291 -9.97412109 52.81787109 C-30.21615366 52.04973984 -30.21615366 52.04973984 -50.39990234 53.21118164 C-51.14731689 53.29480957 -51.89473145 53.3784375 -52.66479492 53.46459961 C-58.28671714 54.17194975 -63.35797848 55.6768325 -68.68115234 57.62915039 C-75.09642166 59.79125856 -81.21847215 58.34536505 -87.14990234 55.46118164 C-93.3564606 51.21747485 -97.71435432 46.24634172 -99.89990234 38.96118164 C-100.74612323 30.49897281 -99.516028 23.27465862 -94.56005859 16.18774414 C-81.48352929 1.75656381 -59.43146642 0.65691899 -41.23147583 -0.38946533 C-27.51247833 -0.97983381 -13.71868489 -0.36650689 0 0 Z " fill="#000000" transform="translate(248.14990234375,540.538818359375)"/>
<path d="M0 0 C14.95747807 8.29943528 25.05952409 24.94355789 32.94042969 39.58691406 C36.87593586 46.86623503 41.13055249 53.93714595 45.4375 61 C45.80410736 61.60200226 46.17071472 62.20400452 46.5484314 62.82424927 C50.80672808 69.81265839 55.10626384 76.77443914 59.44165039 83.71533203 C65.26130346 93.04045168 70.83717789 102.4523871 76.02587891 112.14453125 C77.08703218 114.1169281 78.17312413 116.07390724 79.26171875 118.03125 C83.89017247 126.5395039 86.77372717 134.24603563 84.0625 143.875 C81.01926376 151.55882725 76.61209018 156.72125455 69.125 160.1875 C62.00026863 162.29642048 55.34119505 161.6534594 48.58984375 158.60546875 C37.7699266 152.38101562 32.14625941 140.647881 26.125 130.1875 C25.42407227 128.97368652 25.42407227 128.97368652 24.70898438 127.73535156 C22.83818848 124.49444995 20.96810843 121.25316584 19.10546875 118.00756836 C16.43643698 113.37715944 13.67263431 108.84961713 10.75 104.375 C4.53684952 94.84965124 -1.17415354 85.0255726 -6.875 75.1875 C-7.35179199 74.36604492 -7.82858398 73.54458984 -8.31982422 72.69824219 C-32.06185474 31.57259103 -32.06185474 31.57259103 -26.6015625 11.1875 C-24.66862339 5.86672136 -21.47045572 2.36896934 -16.875 -0.8125 C-10.9958157 -2.7722281 -5.68708079 -2.51247429 0 0 Z " fill="#000000" transform="translate(1659.875,807.8125)"/>
<path d="M0 0 C0.77859375 0.35521729 1.5571875 0.71043457 2.359375 1.07641602 C4.66402665 2.13942711 6.95874847 3.22094206 9.25 4.3125 C10.20422852 4.76399414 10.20422852 4.76399414 11.17773438 5.22460938 C19.36211604 9.15923511 25.8844833 13.84769447 32.25 20.3125 C32.90097656 20.96476563 33.55195312 21.61703125 34.22265625 22.2890625 C45.10044437 33.85927655 53.53978347 47.98754611 62.00244141 61.359375 C63.17270861 63.19149587 64.36846606 65.00361167 65.57421875 66.8125 C71.49948691 75.92492719 76.68751704 86.17174296 75.25 97.3125 C73.37370071 105.36886006 70.30493659 110.80627421 63.25 115.3125 C57.35385129 118.13239721 51.11980174 118.34983048 44.81640625 116.66015625 C33.20439748 111.97107818 25.45757661 101.59568346 19 91.3125 C18.03443971 89.80301071 17.06828232 88.29390321 16.1015625 86.78515625 C14.72816561 84.63177706 13.35540174 82.4779978 11.98339844 80.32373047 C6.75584674 72.15752683 1.19525756 64.49537505 -5.10888672 57.11694336 C-12.62379149 48.19695564 -16.97397994 38.93703 -20.5625 27.875 C-20.95630859 26.72451172 -21.35011719 25.57402344 -21.75585938 24.38867188 C-27.66129616 6.51029122 -27.66129616 6.51029122 -23.75 -1.6875 C-17.56208843 -9.22060974 -7.24787138 -3.3440058 0 0 Z " fill="#000000" transform="translate(1784.75,815.6875)"/>
<path d="M0 0 C12.96886513 6.9771706 21.81860395 17.3026401 29.1328125 29.8828125 C30.3522299 31.92746199 31.5723067 33.97171833 32.79296875 36.015625 C33.41574707 37.0665332 34.03852539 38.11744141 34.68017578 39.20019531 C45.29899904 57.08019789 56.50755283 74.49312233 68.11610413 91.74040222 C71.96667356 97.4656499 75.80185212 103.20075985 79.5703125 108.98046875 C80.28058594 110.06593994 80.99085937 111.15141113 81.72265625 112.26977539 C86.46245309 120.25565667 89.09322357 129.09577446 87.5703125 138.3828125 C85.43879896 145.46394642 82.01312747 149.4949205 75.75390625 153.32421875 C70.43824483 155.90122098 64.83108609 156.25445246 59.14453125 154.734375 C45.14246206 149.63875417 36.14677196 138.10537356 27.9453125 126.1953125 C27.34759033 125.33292969 26.74986816 124.47054687 26.1340332 123.58203125 C14.24472685 106.29528805 3.40049769 88.33206447 -7.41792297 70.36425781 C-9.56558056 66.8012568 -11.73833922 63.25501931 -13.9296875 59.71875 C-34.15062431 26.93361661 -34.15062431 26.93361661 -31.03515625 11.41796875 C-29.25764626 5.44324164 -25.47331729 1.89098241 -20.4296875 -1.6171875 C-13.42180443 -3.95314852 -6.65265478 -2.98222456 0 0 Z " fill="#000000" transform="translate(1510.4296875,814.6171875)"/>
<path d="M0 0 C6.37294012 5.56531094 11.00836907 11.46118876 15.54077148 18.57788086 C16.22824463 19.63410645 16.91571777 20.69033203 17.62402344 21.77856445 C26.26864948 35.12695838 34.40374916 48.76146732 42.47802734 62.45922852 C46.7465105 69.70023679 51.03782714 76.92725401 55.35327148 84.14038086 C55.98620117 85.19942627 56.61913086 86.25847168 57.27124023 87.34960938 C60.6822462 93.03059691 64.18718509 98.62149114 67.85327148 104.14038086 C72.5033109 111.30371841 75.99349372 118.37250198 74.60327148 127.14038086 C72.78250373 134.62937202 70.08737685 140.70135511 63.60327148 145.14038086 C56.41057765 148.99960228 49.54486471 150.26964861 41.60327148 148.14038086 C29.53734309 143.2531428 23.08133679 131.77984322 16.54077148 121.14038086 C15.89938232 120.1063916 15.25799316 119.07240234 14.59716797 118.00708008 C9.32253629 109.44440809 4.29761225 100.74702878 -0.69091797 92.015625 C-9.4979469 76.64721607 -18.79091038 61.56592303 -28.52172852 46.76538086 C-35.99577684 35.34066663 -42.51174409 24.18957706 -41.39672852 10.14038086 C-39.72355516 3.56981688 -36.8651555 -1.52250514 -30.95922852 -5.10961914 C-20.10621541 -10.44092382 -9.23447775 -7.1650216 0 0 Z " fill="#000000" transform="translate(1363.396728515625,825.859619140625)"/>
<path d="M0 0 C10.57113368 8.93536831 16.65860422 18.96231483 18.71875 32.7890625 C20.00785427 48.76474759 12.97851887 63.60594409 2.875 75.625 C-16.36517285 95.90518219 -44.97797171 105.47502395 -72.41064453 106.59594727 C-100.47515234 106.85685902 -128.07182534 96.42693444 -153.0625 84.5 C-154.65384766 83.74589844 -154.65384766 83.74589844 -156.27734375 82.9765625 C-166.51930762 77.77657523 -176.8004653 69.4595178 -181.0625 58.5 C-182.29754328 51.80849503 -181.97454362 47.03456665 -180.0625 40.5 C-179.72778826 37.87012201 -179.43766298 35.26155276 -179.1875 32.625 C-178.47678671 26.29457523 -177.32489246 21.00862988 -174.0625 15.5 C-173.61777344 14.74332031 -173.17304687 13.98664062 -172.71484375 13.20703125 C-159.82637096 -7.31141743 -135.66439609 -16.23857501 -113.0625 -21.5 C-112.37559082 -21.66516113 -111.68868164 -21.83032227 -110.98095703 -22.00048828 C-74.10585864 -30.53728985 -30.68817535 -22.66203718 0 0 Z M-151.0625 27.5 C-151.0625 28.49 -151.0625 29.48 -151.0625 30.5 C-149.88977539 30.8395874 -149.88977539 30.8395874 -148.69335938 31.18603516 C-140.44066583 33.64149344 -132.52848943 36.62103306 -124.5625 39.875 C-99.00296757 50.12406875 -73.7427211 57.95980298 -47.05078125 47.296875 C-42.1155684 44.96574307 -38.07136158 42.19237251 -34.0625 38.5 C-34.57406159 34.02383613 -36.05954045 31.81618215 -39.0625 28.5 C-41.21226764 26.88213363 -43.29251598 25.42002429 -45.5625 24 C-46.48518677 23.41690063 -46.48518677 23.41690063 -47.42651367 22.82202148 C-78.54888309 3.63930286 -120.45135577 10.3699226 -151.0625 27.5 Z " fill="#000000" transform="translate(1121.0625,879.5)"/>
<path d="M0 0 C5.28052383 3.96858252 9.18583178 8.50201246 13.0625 13.8125 C17.53466111 19.80708508 22.13220067 25.64433538 26.9375 31.375 C38.33503626 45.05172651 48.54931913 59.63296115 58.74267578 74.21679688 C59.84204642 75.77598195 60.96410876 77.31911703 62.08984375 78.859375 C69.49627767 89.03714415 75.27183407 99.15263269 74 112 C72.21569245 119.64865593 68.6081022 124.76283322 62 129 C55.73611154 132.26173651 49.82319623 132.66905877 43 131 C30.06067144 126.72006825 23.50310389 115.49036756 16.29638672 104.73925781 C10.17203191 95.64535845 3.50319814 86.9896558 -3.20507812 78.32226562 C-4.78517241 76.27794342 -6.35646218 74.2274453 -7.921875 72.171875 C-11.67504905 67.24884368 -15.48225492 62.3880064 -19.4375 57.625 C-40.00796742 32.55245519 -40.00796742 32.55245519 -39.4453125 17.9609375 C-38.34322771 10.63304038 -34.76225202 4.66247298 -28.875 0.18359375 C-19.65998542 -5.6333842 -9.28051706 -5.89289199 0 0 Z " fill="#000000" transform="translate(1898,982)"/>
<path d="M0 0 C9.70176443 6.26638555 16.18888098 14.773757 22.0625 24.5625 C22.61413818 25.46508545 23.16577637 26.3676709 23.73413086 27.29760742 C26.69724759 32.15411612 29.6189587 37.03476669 32.53125 41.921875 C41.50453226 56.92945076 50.79407938 71.06886935 62.99267578 83.66650391 C68.91414062 89.80887314 72.79017342 95.55366129 73.0703125 104.16015625 C72.65103116 111.15228921 70.12446785 117.82212245 65.171875 122.859375 C59.26116017 127.56002222 52.75903442 130.6425476 45.06640625 130.28125 C28.79913695 128.06717932 18.23204718 113.64552014 8.89306641 101.38232422 C-0.74021933 88.39735673 -9.02334322 74.45130201 -17.375 60.625 C-17.75350098 60.00150665 -18.13200195 59.37801331 -18.52197266 58.73562622 C-38.08160072 26.45617805 -38.08160072 26.45617805 -33.8125 8.3125 C-31.97399037 2.12997692 -29.3641036 -0.60935082 -23.8125 -3.875 C-15.50556274 -6.32622739 -7.50291246 -3.95520945 0 0 Z " fill="#000000" transform="translate(1772,1000)"/>
<path d="M0 0 C19.38273462 7.05698377 29.95828734 20.51302511 41.22021484 37.125 C45.86806761 43.95602991 50.7502302 50.62022177 55.61523438 57.29736328 C57.06437733 59.28783447 58.50813726 61.28208971 59.95068359 63.27734375 C64.37687324 69.37669128 68.89479615 75.37576715 73.57324219 81.28466797 C91.6278707 104.12336801 91.6278707 104.12336801 90.17333984 119.4375 C88.05220142 127.5259375 83.04393011 133.03773404 76.04833984 137.375 C69.21496596 139.83747708 60.89239119 139.52074726 54.23583984 136.75 C47.38827633 133.44193253 42.95147659 128.21871614 38.61083984 122.1875 C37.56100736 120.75711567 36.5101921 119.32745223 35.45849609 117.8984375 C34.9198291 117.16334961 34.38116211 116.42826172 33.82617188 115.67089844 C31.11831382 112.01189025 28.32894357 108.41631689 25.54833984 104.8125 C20.82093932 98.65706682 16.23491728 92.42222207 11.75927734 86.08203125 C9.8912656 83.43750409 7.99670903 80.8140877 6.08740234 78.19921875 C-23.32817025 37.90252642 -23.32817025 37.90252642 -21.82666016 17.4375 C-20.6253194 10.43307255 -18.11132982 5.25111275 -12.82666016 0.4375 C-8.68817172 -1.63174422 -4.32968612 -1.33327945 0 0 Z " fill="#000000" transform="translate(1474.82666015625,997.5625)"/>
<path d="M0 0 C9.62479561 7.77102142 17.03147833 16.63066451 23.7109375 26.984375 C24.62959091 28.38964447 24.62959091 28.38964447 25.56680298 29.82330322 C27.50873565 32.79509222 29.44256026 35.77203104 31.375 38.75 C43.86277343 58.02804597 43.86277343 58.02804597 57.70703125 76.33984375 C63.96285013 84.05806185 68.66911181 92.56452445 68 102.8125 C66.39722959 111.32430014 62.10595705 117.10390296 55 122 C48.60897666 125.14329743 40.64252975 125.13638923 33.875 123 C11.30019444 112.90443478 -3.50090569 81.55157061 -16.20703125 61.77783203 C-17.93510128 59.10054706 -19.68374303 56.43784978 -21.4375 53.77734375 C-29.96521803 40.73495147 -38.50377677 26.24078908 -37 10 C-35.5932247 4.38388924 -33.27576351 -0.00309063 -29 -4 C-19.28344242 -9.54392297 -8.5877218 -6.1319608 0 0 Z " fill="#000000" transform="translate(1627,1007)"/>
<path d="M0 0 C15.16956888 11.77305421 24.41996217 27.97774828 27.46484375 46.88671875 C29.28600996 62.54056317 24.68172701 77.96842218 16 91 C2.29957488 108.19565168 -16.08650023 118.32451456 -38 121 C-57.57162401 122.72203798 -79.14889235 114.87062588 -94.25 102.75 C-101.94691246 95.67506026 -106.86957868 85.48749249 -107.375 75 C-106.9987072 66.90152443 -104.1519959 60.15726339 -99 54 C-97.98486328 53.36964844 -97.98486328 53.36964844 -96.94921875 52.7265625 C-94.15458375 50.25115435 -94.00450455 47.93489172 -93.25 44.3125 C-90.51717555 32.64566235 -85.03452321 20.97745014 -77 12 C-76.37996094 11.27683594 -75.75992188 10.55367187 -75.12109375 9.80859375 C-56.31449276 -10.66046921 -23.53201363 -15.70132658 0 0 Z M-59 44 C-61.45979943 47.25312216 -63.76252958 50.59083649 -66 54 C-60.93474035 61.95969373 -56.91076016 65.39484117 -47.796875 67.51171875 C-41.29476167 68.56888053 -35.73471858 67.40203054 -30.171875 63.82421875 C-27.2690454 61.54845671 -25.30597186 59.43610073 -24 56 C-24.14041503 51.38282341 -25.332764 47.81551067 -28.25 44.25 C-29.61125 43.13625 -29.61125 43.13625 -31 42 C-31.928125 41.0925 -32.85625 40.185 -33.8125 39.25 C-42.40717825 33.1831683 -52.2432756 36.56586621 -59 44 Z " fill="#000000" transform="translate(989,1028)"/>
<path d="M0 0 C0.90105469 0.64324219 1.80210937 1.28648438 2.73046875 1.94921875 C26.51870522 20.10075039 36.64322022 49.64861625 40.6640625 78.30224609 C43.80417599 103.51900048 41.11178719 128.61520218 25.0625 149.25 C23.72327619 150.84599229 22.37004284 152.43038399 21 154 C20.46890625 154.62648438 19.9378125 155.25296875 19.390625 155.8984375 C10.4425038 165.68821366 -4.82964816 174.29236869 -18 176 C-17.7690564 177.61950562 -17.7690564 177.61950562 -17.53344727 179.27172852 C-16.8557499 184.71903708 -16.66502589 190.17000097 -16.46484375 195.65234375 C-16.42173065 196.77384323 -16.37861755 197.89534271 -16.334198 199.05082703 C-16.19706765 202.6795563 -16.06647434 206.30847217 -15.9375 209.9375 C-15.89297699 211.16821228 -15.84845398 212.39892456 -15.80258179 213.66693115 C-15.26655853 228.65187852 -14.80387511 243.6294148 -14.8125 258.625 C-14.8117749 259.94234131 -14.8110498 261.25968262 -14.81030273 262.61694336 C-14.84021032 267.58529936 -14.97464868 272.13403505 -16 277 C-3.12129552 276.78077935 9.75727454 276.55485309 22.63572788 276.32132149 C28.62160578 276.21296689 34.60750237 276.10657008 40.59350586 276.00537109 C82.10926215 275.3008906 123.60881967 274.34588514 165 270.875 C167.57459521 270.66734685 170.14922224 270.46008794 172.72387695 270.25317383 C187.90400904 269.02021161 203.06737695 267.63028947 218.22732162 266.17105103 C221.11381409 265.89372947 224.00049128 265.61841627 226.88723755 265.34375 C228.8200097 265.15969294 230.75277948 264.97561089 232.68554688 264.79150391 C233.64318373 264.70033924 234.60082058 264.60917458 235.58747673 264.51524734 C240.29342451 264.06566371 244.99840239 263.60850366 249.7019043 263.13397217 C268.35837477 261.25268161 286.9129154 259.65545806 305.67578125 259.58203125 C306.40276907 259.57536627 307.12975689 259.56870129 307.87877464 259.56183434 C324.44596304 259.4544584 341.27454362 261.42896266 354 273 C361.21179237 280.42390391 363.37833311 289.61637445 363.26339722 299.77278137 C363.22582809 301.11888741 363.22582809 301.11888741 363.1875 302.4921875 C363.161236 304.49551908 363.13537341 306.49885595 363.10986328 308.50219727 C363.08185638 310.05887619 363.08185638 310.05887619 363.05328369 311.64700317 C362.71755055 331.98616315 363.39794646 351.94063437 365.42138672 372.16650391 C366.29994442 380.95892783 367.11801979 389.75725011 367.94439697 398.55470276 C368.08190383 400.01815846 368.21941605 401.48161366 368.35693359 402.94506836 C368.42529671 403.67310071 368.49365982 404.40113306 368.56409454 405.151227 C368.97409822 409.50938471 369.39081559 413.86683381 369.81362629 418.22376728 C370.01499005 420.30247094 370.21453778 422.38134055 370.41343689 424.46028137 C370.65958517 427.0296031 370.90887536 429.59862652 371.16188049 432.1672821 C371.76203259 438.48002038 372.1310118 444.65885938 372 451 C373.00818787 450.96717422 373.00818787 450.96717422 374.03674316 450.9336853 C405.56701436 449.95614252 433.16460894 459.43590408 456.70263672 481.19775391 C469.91149847 493.91477416 476.76557138 510.92144115 479 529 C479.20109375 530.56234375 479.20109375 530.56234375 479.40625 532.15625 C482.5278164 563.08813524 469.95352596 596.13171192 451 620.3125 C449.6817041 621.8877079 448.34835137 623.45044116 447 625 C446.31421875 625.79535156 445.6284375 626.59070312 444.921875 627.41015625 C442.6559548 629.98173115 440.34244057 632.49793194 438 635 C437.33508545 635.71591309 437.33508545 635.71591309 436.65673828 636.44628906 C426.2524836 647.56395765 415.00852291 655.62165105 401.5625 662.75 C400.74144775 663.18578369 399.92039551 663.62156738 399.07446289 664.07055664 C391.59482516 667.9141279 383.83212543 670.96413965 376 674 C375.58666948 678.36971627 375.17802764 682.73984193 374.77319336 687.11035156 C374.63571893 688.58800252 374.49710017 690.06554759 374.35717773 691.54296875 C372.59839586 710.13399161 371.8133408 728.5777509 371.81469727 747.25634766 C371.81251669 750.59941469 371.79429849 753.94214738 371.77539062 757.28515625 C371.72345068 776.76809685 372.95330093 795.95695671 376.125 815.1875 C377.41853999 823.68015333 378.3921808 832.02763536 378.4375 840.625 C378.4473291 841.43477295 378.4571582 842.2445459 378.46728516 843.07885742 C378.32923062 852.64763748 375.6477515 861.00632478 369 868 C361.32565334 875.1400567 353.19604446 877.72811825 342.76538086 877.39746094 C338.83764305 876.98286215 335.34631996 876.00686795 331.6171875 874.7890625 C320.30614737 871.29544814 308.73624772 869.11731188 297.125 866.875 C295.99781555 866.65522491 294.8706311 866.43544983 293.70928955 866.20901489 C277.19208274 863.00027684 260.80556982 860.13716725 244 859 C242.91404541 858.91153809 241.82809082 858.82307617 240.70922852 858.73193359 C224.90031008 857.59034172 209.02915559 857.7553071 193.1875 857.75 C192.38040337 857.74941086 191.57330673 857.74882172 190.74175262 857.74821472 C157.50650451 857.73118253 124.39538678 858.84266975 91.21399879 860.66133118 C86.44205389 860.92285002 81.66969514 861.17498182 76.89697266 861.421875 C40.45641556 863.31411563 4.09014821 865.93566676 -32.28634644 868.79636765 C-64.50821729 871.32971686 -96.70661217 873.57506335 -129 875 C-130.12190735 875.05007202 -131.2438147 875.10014404 -132.39971924 875.1517334 C-140.47424365 875.51103883 -148.54928052 875.85614913 -156.625 876.1875 C-157.67615997 876.23065338 -158.72731995 876.27380676 -159.81033325 876.31826782 C-203.68620344 878.09175561 -245.07331653 873.31537936 -287.71826172 863.26269531 C-300.28026941 860.31398905 -312.80332922 857.89053733 -325.5625 856 C-326.28808105 855.88791199 -327.01366211 855.77582397 -327.76123047 855.66033936 C-349.75208224 852.30341201 -367.34325134 857.06750627 -387.37402344 865.93896484 C-403.79392036 873.15559232 -419.43116992 878.28480195 -437.01953125 872.25390625 C-445.02429681 868.88623948 -450.02112843 863.66547693 -454 856 C-456.6051416 848.62629758 -457.60167485 841.1849524 -458.3125 833.4375 C-459.12085994 825.4391076 -460.03121116 817.48256211 -461.2421875 809.53515625 C-464.77555956 786.27685467 -467.54781712 762.97432661 -470.04300308 739.58496094 C-470.3099168 737.08667844 -470.57876619 734.58861047 -470.84799194 732.09057617 C-474.50345313 698.09492062 -474.50345313 698.09492062 -475 682 C-475.86834473 682.06219727 -476.73668945 682.12439453 -477.63134766 682.18847656 C-505.99805694 683.88506071 -539.60301617 665.4843925 -561 648 C-561.86109375 647.30390625 -562.7221875 646.6078125 -563.609375 645.890625 C-583.40756973 629.04371396 -594.69774962 604.22519441 -596.8359375 578.52734375 C-596.89007812 577.69332031 -596.94421875 576.85929687 -597 576 C-597.05414062 575.21753906 -597.10828125 574.43507813 -597.1640625 573.62890625 C-598.26484784 541.55602423 -583.97908771 509.64401168 -562.546875 486.42578125 C-542.80934017 465.44218993 -518.20580627 450.0072223 -489.04296875 446.88671875 C-488.26514038 446.79950562 -487.48731201 446.71229248 -486.68591309 446.62243652 C-484.7910901 446.41060652 -482.89560852 446.20468133 -481 446 C-480.94148613 444.75236374 -480.94148613 444.75236374 -480.88179016 443.47952271 C-480.50466489 435.51046571 -480.10908826 427.54256177 -479.69445515 419.57536507 C-479.48206499 415.48260829 -479.27600642 411.38976882 -479.08618164 407.29589844 C-478.1618678 387.47883909 -476.57590444 368.37989307 -472 349 C-471.83045807 348.26255554 -471.66091614 347.52511108 -471.48623657 346.76531982 C-470.58133467 342.85798033 -469.57521539 338.988573 -468.5 335.125 C-468.09587891 333.59166016 -468.09587891 333.59166016 -467.68359375 332.02734375 C-462.95183333 314.66288343 -462.95183333 314.66288343 -457.85742188 308.34130859 C-455.41757868 305.26584905 -455.70204772 303.60475757 -456 299.75 C-456.25568677 291.03698166 -453.56990898 284.91308571 -447.7109375 278.50390625 C-441.72398265 273.24140027 -434.91726983 271.94642143 -427.18359375 271.5703125 C-425.78490311 271.49805819 -424.38622189 271.42562125 -422.98754883 271.35302734 C-422.2484024 271.31602722 -421.50925598 271.2790271 -420.74771118 271.24090576 C-410.67792205 270.73569369 -400.61863687 270.2238183 -390.5859375 269.203125 C-351.93780024 265.2919754 -313.48368067 266.66638314 -274.8248291 269.70196533 C-267.12116632 270.30224276 -259.41601338 270.88303058 -251.7109375 271.46484375 C-250.42527704 271.56194452 -250.42527704 271.56194452 -249.11364365 271.66100693 C-229.41202345 273.14772268 -209.70821208 274.60322871 -190 276 C-188.83831299 276.08268127 -187.67662598 276.16536255 -186.47973633 276.25054932 C-184.95352661 276.35783356 -184.95352661 276.35783356 -183.39648438 276.46728516 C-182.56354858 276.52590729 -181.73061279 276.58452942 -180.87243652 276.64492798 C-173.18922179 277.13735731 -165.51132826 277.50123451 -157.81518555 277.71459961 C-156.85503257 277.74123562 -155.89487959 277.76787163 -154.90563107 277.79531479 C-144.83411514 278.05647763 -134.76579444 278.10334206 -124.69140625 278.109375 C-122.77158585 278.11263978 -120.8517657 278.11605039 -118.9319458 278.11959839 C-99.95451447 278.14854583 -80.97720819 278.08828564 -62 278 C-62.08269638 277.40883392 -62.16539276 276.81766785 -62.25059509 276.20858765 C-63.85552517 264.6965223 -65.44334795 253.19613027 -66.5625 241.625 C-66.68471924 240.37130615 -66.80693848 239.1176123 -66.93286133 237.82592773 C-68.57821639 220.26217551 -69.24649668 202.62007318 -70 185 C-70.9170874 184.8860791 -71.8341748 184.7721582 -72.77905273 184.65478516 C-97.71840882 181.36229874 -119.57923239 168.0468895 -135.34570312 148.31591797 C-146.29186627 133.81104272 -151.87021455 117.75041292 -155 100 C-155.33837891 98.10121094 -155.33837891 98.10121094 -155.68359375 96.1640625 C-160.364808 65.88144891 -154.77127812 34.86872074 -136.6875 9.8125 C-123.53276248 -7.05939685 -106.88863421 -18.02544651 -85.6171875 -21.5625 C-56.76002972 -25.05278258 -23.62191408 -17.02641758 0 0 Z M-94 36 C-105.70275065 51.06029658 -106.91474612 71.28536244 -104.68652344 89.57275391 C-103.22755114 99.04114828 -100.83258422 107.23915707 -95 115 C-94.38125 115.9075 -93.7625 116.815 -93.125 117.75 C-90.08671099 120.9670119 -86.65021837 123.51214167 -83 126 C-81.95972656 126.85078125 -81.95972656 126.85078125 -80.8984375 127.71875 C-76.41430263 129.70095517 -72.34741794 128.92392632 -67.5625 128.375 C-66.63373047 128.29121094 -65.70496094 128.20742187 -64.74804688 128.12109375 C-59.49447823 127.57517131 -55.67335955 126.58864081 -51 124 C-46.16324406 122.8704128 -41.60611561 122.63172525 -36.8125 124 C-31.75900546 125.32550676 -28.36623661 125.27165097 -23.703125 122.765625 C-16.63920582 118.28719258 -12.72124514 113.99695988 -10.5390625 105.84375 C-7.21794781 88.32366672 -12.24223417 65.77847674 -22 51 C-31.79867263 37.52682514 -50.32885631 32.78201085 -66 30 C-76.98499251 28.37545885 -85.45465366 28.37118923 -94 36 Z M254.80072021 315.88650894 C250.56649806 316.29235088 246.33107121 316.68518628 242.09570312 317.07885742 C235.13447312 317.72699737 228.17373355 318.38012539 221.21337891 319.03759766 C133.57495158 327.31081965 133.57495158 327.31081965 90.47265625 328.51171875 C89.33278196 328.54369858 89.33278196 328.54369858 88.16987991 328.57632446 C69.07439613 329.10398543 49.97622944 329.30498231 30.875 329.5 C24.10152214 329.56947407 17.32808437 329.64176422 10.5546875 329.71875 C9.70768469 329.72821907 8.86068188 329.73768814 7.98801231 329.74744415 C-3.85221671 329.88302649 -15.68568415 330.12977197 -27.52230644 330.44750214 C-51.7897715 331.09334079 -76.05308407 331.22147594 -100.32836914 331.24023438 C-105.13866773 331.244616 -109.94878668 331.25854282 -114.7590332 331.28125 C-147.63236334 331.4327144 -180.22124131 330.51181049 -213 328 C-213.96312733 327.92694641 -214.92625465 327.85389282 -215.91856766 327.77862549 C-229.03089478 326.78279823 -242.13644499 325.71219365 -255.23999023 324.60736084 C-262.69527493 323.97971226 -270.15130883 323.36105263 -277.60742188 322.74333572 C-280.14471332 322.53219877 -282.68174546 322.31816007 -285.21875 322.10360718 C-298.70525881 320.9721045 -312.21613238 319.92269143 -325.75390625 319.7265625 C-326.59906799 319.71426102 -327.44422974 319.70195953 -328.31500244 319.68928528 C-331.06420379 319.65731746 -333.8131467 319.63830923 -336.5625 319.625 C-337.52457367 319.61977325 -338.48664734 319.61454651 -339.47787476 319.60916138 C-362.76209703 319.55206724 -385.80715734 321.79825406 -408.95204163 324.13641357 C-417.62519146 325.00008702 -426.29394577 325.59967799 -435 326 C-433.50045513 334.61263543 -431.69044387 343.13144278 -429.76757812 351.65820312 C-427.35331033 362.54793671 -426.80054103 372.87564729 -426.8125 384 C-426.81191086 385.1673317 -426.81191086 385.1673317 -426.81130981 386.35824585 C-426.81975333 400.5571931 -427.37677695 414.70359708 -428.20043945 428.87695312 C-429.9235996 458.65808427 -430.24176977 488.42737616 -430.25 518.25 C-430.25058914 519.23508545 -430.25117828 520.2201709 -430.25178528 521.23510742 C-430.26519833 553.1756192 -429.54748476 584.91333851 -427.45751953 616.79296875 C-426.99689153 623.89371529 -426.6104174 630.99767198 -426.23240852 638.10314941 C-424.25114204 675.20203418 -421.15750334 712.07252311 -417 749 C-416.7689038 751.07452877 -416.53794282 753.14907261 -416.30712891 755.22363281 C-414.0336957 775.56438583 -411.56388747 795.83788855 -408 816 C-403.85881205 815.43339883 -400.36966451 813.95536551 -396.56567383 812.32055664 C-372.76856479 802.1430161 -349.11241917 799.1737634 -323.5 802.625 C-322.84069489 802.71203186 -322.18138977 802.79906372 -321.50210571 802.88873291 C-300.99204923 805.61475888 -280.84281617 810.04681416 -260.72143555 814.80883789 C-252.52217102 816.71974504 -244.28682613 818.32924425 -236 819.8125 C-234.84870605 820.0194751 -233.69741211 820.2264502 -232.51123047 820.43969727 C-205.53317409 825.14609391 -177.99538254 824.21291524 -150.75928879 822.85810089 C-147.74590068 822.70981629 -144.73213949 822.56994413 -141.7183733 822.42959023 C-132.14402721 821.98271971 -122.57167642 821.50056787 -113 821 C-111.82175659 820.93856812 -110.64351318 820.87713623 -109.42956543 820.81384277 C-84.82989168 819.51749747 -60.29412265 817.65104055 -35.75 815.5625 C8.5207803 811.79565029 52.8150924 809.01832378 97.1875 806.8125 C98.46863993 806.74844027 98.46863993 806.74844027 99.77566147 806.6830864 C130.81401991 805.131663 161.85337604 803.77985207 192.9375 803.8125 C193.94540588 803.81277191 194.95331177 803.81304382 195.99176025 803.81332397 C214.39347903 803.8358367 232.66246441 804.47477959 251 806 C252.05928711 806.08056641 253.11857422 806.16113281 254.20996094 806.24414062 C277.41867322 808.08289851 300.22971489 813.34701786 323 818 C322.33652031 806.81295248 322.33652031 806.81295248 321.46484375 795.640625 C320.21050672 780.85356518 319.78410821 766.14712494 319.75 751.3125 C319.74491425 750.45523315 319.73982849 749.59796631 319.73458862 748.71472168 C319.59045205 718.51034372 322.44690083 688.38800147 325.19787598 658.33856201 C329.08292324 616.53255737 329.08292324 616.53255737 330.26074219 574.58520508 C330.24993427 572.4243589 330.2608591 570.26433953 330.2734375 568.10351562 C330.3232245 534.05246261 326.17761398 500.10031395 322.73752832 466.27624804 C311.87354324 359.45781437 311.87354324 359.45781437 310.75 330.6875 C310.67279912 328.91727717 310.59466509 327.14709479 310.515625 325.37695312 C310.33328297 321.25167397 310.16252052 317.12610543 310 313 C291.45695315 312.42740883 273.22840561 314.10854293 254.80072021 315.88650894 Z M376 484 C376.58973056 494.30207256 377.36851243 504.57195952 378.3008728 514.84832764 C381.27742134 547.94572265 381.51007308 580.79847298 380 614 C385.70663657 611.05530561 390.46866044 608.05296323 395.125 603.625 C395.63506592 603.14168213 396.14513184 602.65836426 396.6706543 602.16040039 C398.12093785 600.78109846 399.56081415 599.39087752 401 598 C401.68449219 597.36707031 402.36898437 596.73414063 403.07421875 596.08203125 C416.42708007 583.44932424 426.75274197 562.78261124 428.203125 544.4296875 C428.48392188 529.12625727 422.59726744 515.30623177 412.875 503.625 C403.2235465 493.64131058 389.69267295 486.15454067 376 484 Z M-519 517 C-519.91910156 517.825 -520.83820313 518.65 -521.78515625 519.5 C-536.01104296 532.96273736 -544.75165746 550.69877438 -545.3125 570.375 C-545.04886178 583.57241926 -540.61595568 594.58305519 -531.73046875 604.359375 C-519.95720898 615.52138201 -494.54904222 630 -478 630 C-478.12193892 626.60405056 -478.24803637 623.20826514 -478.375 619.8125 C-478.43880859 618.08942627 -478.43880859 618.08942627 -478.50390625 616.33154297 C-478.78336532 609.00612767 -479.10816817 601.68476298 -479.4765625 594.36328125 C-481.05112934 562.5823259 -481.6052656 530.81347905 -482 499 C-495.33133466 499 -509.4937 508.45767738 -519 517 Z " fill="#000000" transform="translate(678,1076)"/>
<path d="M0 0 C10.70660894 6.91495271 18.20601792 15.30385577 25.82226562 25.3203125 C28.4375828 28.70685689 31.1616099 32.00442689 33.875 35.3125 C37.82644575 40.14024411 41.68315274 45.01780643 45.4375 50 C50.36190519 56.45679708 55.75882352 62.34011104 61.3125 68.25 C70.24761092 77.78624988 75.81245103 84.62901528 75.6484375 98.078125 C74.92007662 104.95520681 71.91356888 110.33172993 66.5625 114.6875 C59.89923277 119.07976604 53.68218493 120.99939821 45.71484375 119.80859375 C37.13102271 117.81268089 31.5175076 112.23844436 25.3125 106.25 C24.47332031 105.45078125 23.63414063 104.6515625 22.76953125 103.828125 C16.78502745 98.00135231 11.47588892 91.80750393 6.3125 85.25 C5.42718991 84.13272804 4.54176896 83.01554392 3.65625 81.8984375 C-1.68973201 75.13611985 -6.9690099 68.32275744 -12.20703125 61.4765625 C-13.89661017 59.2707793 -15.6039066 57.0803277 -17.32421875 54.8984375 C-28.10214056 41.18944915 -39.80480069 23.32822943 -38.52734375 4.9453125 C-37.5371273 -0.14997604 -35.29853509 -3.22294247 -31.6875 -6.75 C-21.29568008 -12.76631679 -9.10907535 -5.37725818 0 0 Z " fill="#000000" transform="translate(1736.6875,1178.75)"/>
<path d="M0 0 C5.15225785 3.8286259 8.59251026 7.85540776 11.8125 13.375 C12.67827672 14.80475332 13.54416518 16.23443899 14.41015625 17.6640625 C14.84215332 18.38754883 15.27415039 19.11103516 15.71923828 19.85644531 C25.63033807 36.44421813 36.47579858 52.37965451 48.37890625 67.60546875 C52.26770782 72.60275339 55.99703263 77.72053981 59.73364258 82.83203125 C62.5275022 86.65363619 65.33576561 90.45622407 68.234375 94.19921875 C74.7038056 102.60728622 79.38370454 109.54845462 79.0625 120.5 C78.11722425 127.53484163 75.17731834 133.33689843 69.70703125 137.921875 C62.26307475 143.02213883 55.9714046 143.86125484 47 143 C33.2236664 139.18081841 25.31616895 124.5491176 17.4140625 113.671875 C14.65160465 109.87368613 11.82406784 106.14208544 8.9375 102.4375 C-41.38035824 37.34441422 -41.38035824 37.34441422 -39 11 C-37.19906118 5.13387149 -34.44871348 0.09585993 -29 -3 C-18.71267049 -7.86756346 -9.37551225 -6.1195204 0 0 Z " fill="#000000" transform="translate(1618,1177)"/>
<path d="M0 0 C7.20223579 5.10322354 12.6545799 12.11118651 18.2734375 18.83398438 C19.81261939 20.67173047 21.36573948 22.49635752 22.92578125 24.31640625 C28.06367477 30.32641454 28.06367477 30.32641454 29.50752258 32.13304138 C30.8914479 33.83234291 30.8914479 33.83234291 32.65885925 35.40419006 C38.63995628 41.57484187 38.74967292 47.85553473 38.68760681 55.98646545 C38.65187165 57.70713873 38.61535987 59.42779603 38.578125 61.1484375 C38.56505079 62.92917424 38.55509524 64.70993636 38.54811096 66.4907074 C38.52152822 71.15201729 38.45289312 75.81177269 38.37518311 80.47247314 C38.30326043 85.23859636 38.2715378 90.00497358 38.23632812 94.77148438 C38.16151031 104.10484543 38.0422177 113.43705851 37.89453125 122.76953125 C36.76842313 121.80831518 35.64288027 120.84643686 34.51757812 119.88427734 C33.8907312 119.34870209 33.26388428 118.81312683 32.61804199 118.26132202 C24.02781248 110.82601872 16.87615401 101.91919067 9.95703125 92.95703125 C9.3436792 92.16659424 8.73032715 91.37615723 8.09838867 90.56176758 C4.89052524 86.41213829 1.74887978 82.23070274 -1.29296875 77.95703125 C-5.46240111 72.13942584 -10.11224144 66.76853634 -14.76806641 61.34082031 C-17.53464554 58.09041811 -20.2206017 54.77431317 -22.90625 51.45703125 C-24.4221812 49.60452563 -25.96293758 47.77215232 -27.5234375 45.95703125 C-34.71051983 37.51543373 -39.5161567 29.49290834 -39.3125 18.19921875 C-38.62769836 10.16249003 -35.22622758 4.0053611 -29.10546875 -1.23046875 C-20.16851563 -6.75580491 -8.70881459 -5.08956697 0 0 Z " fill="#000000" transform="translate(2010.10546875,1179.23046875)"/>
<path d="M0 0 C9.66041254 5.46919515 15.58692661 13.22688037 22 22 C30.97514614 34.11659604 39.83565351 46.02575029 50.6640625 56.5703125 C51.42993935 57.31996529 51.42993935 57.31996529 52.21128845 58.08476257 C54.79698462 60.61334634 57.39717853 63.12274774 60.02856445 65.60375977 C67.29602834 72.57495831 71.89798337 78.85664711 72.4375 89.125 C72.04119728 97.29394955 69.03367095 103.47147359 63 109 C56.03832222 113.97262698 49.36219963 114.73685604 41 114 C32.41249196 112.26918443 26.71043233 106.66511846 20.6875 100.67724609 C18.87926209 98.87999574 17.04976349 97.10605722 15.21875 95.33203125 C7.96768988 88.25259922 1.21594061 81.01912339 -5 73 C-5.87738898 71.89982993 -6.75638035 70.80093642 -7.63671875 69.703125 C-14.05181296 61.67327827 -20.18357484 53.47419412 -26 45 C-26.59941406 44.12730469 -27.19882813 43.25460937 -27.81640625 42.35546875 C-34.12417969 32.569725 -37.404476 21.6640019 -36 10 C-34.77392277 4.85990698 -32.03825413 1.36521178 -28 -2 C-18.87983491 -6.39062002 -8.72563697 -4.39420567 0 0 Z " fill="#000000" transform="translate(1880,1186)"/>
<path d="M0 0 C21.52971053 19.21157211 32.339872 53.85328078 34.04467773 81.93432617 C34.84202912 102.44431392 31.39140678 122.30237249 17.33984375 138.15234375 C15.87315884 139.64388773 14.39511734 141.12441034 12.90234375 142.58984375 C12.36351562 143.19828125 11.8246875 143.80671875 11.26953125 144.43359375 C-2.84063021 160.03276722 -27.49034188 169.3399507 -48.15844727 170.72827148 C-78.534517 172.04560926 -103.13100274 159.71322461 -126.09765625 140.58984375 C-126.91878906 139.90792969 -127.73992188 139.22601562 -128.5859375 138.5234375 C-134.11159355 133.49404072 -137.45931422 127.83778451 -140.92797852 121.31616211 C-142.77949484 117.84788622 -144.48461493 114.83517814 -147.28515625 112.02734375 C-157.87780861 100.7011282 -161.39689236 77.60454294 -161.20458984 62.88867188 C-160.65124458 50.99301212 -158.15779781 39.37707962 -153.09765625 28.58984375 C-152.67871094 27.67203125 -152.25976562 26.75421875 -151.828125 25.80859375 C-142.47824568 7.05494531 -126.49909225 -4.47886173 -107.09765625 -11.41015625 C-101.86984876 -13.14775237 -96.58540633 -14.59360217 -91.23242188 -15.89013672 C-89.30052513 -16.36073828 -87.37804251 -16.86958095 -85.45703125 -17.3828125 C-55.56445308 -24.33833664 -23.90476825 -19.74516865 0 0 Z M-103.09765625 45.58984375 C-109.2184436 52.68995708 -109.82623333 62.38975493 -110.83105469 71.34130859 C-111.06241179 73.29258961 -111.37378463 75.23406274 -111.69921875 77.171875 C-112.05529142 80.39723094 -112.13671653 82.51010654 -111.09765625 85.58984375 C-107.52693188 89.27841381 -103.389878 91.81528485 -99.09765625 94.58984375 C-97.60917323 95.88943299 -96.14789088 97.22118743 -94.72265625 98.58984375 C-84.91179861 107.49426345 -70.58034767 117.52440872 -56.96875 117.609375 C-44.27624378 116.8440703 -32.45054189 114.02029148 -23.24609375 104.71875 C-17.09286403 97.70523461 -17.56643282 91.08977952 -17.9140625 82.07226562 C-18.97260143 67.759468 -24.01084197 50.00641927 -34.09765625 39.58984375 C-51.94624667 27.66323935 -86.93066714 31.67871358 -103.09765625 45.58984375 Z " fill="#000000" transform="translate(881.09765625,1491.41015625)"/>
<path d="M0 0 C3.53136285 2.82308097 6.79602085 5.81256463 10 9 C11.04607422 9.99386719 11.04607422 9.99386719 12.11328125 11.0078125 C24.45641281 23.61458376 30.89567235 43.29591771 31.25 60.6875 C30.87508672 88.05616937 21.36408868 112.65968307 2.75 132.6875 C-13.98888737 148.44864862 -36.73400215 158.77376066 -59.875 158.265625 C-77.45239527 157.41832145 -94.21520746 148.79638841 -107 137 C-107.90105469 136.17886719 -108.80210937 135.35773438 -109.73046875 134.51171875 C-121.73417319 123.07094666 -130.14105186 110.03690116 -134.1796875 93.8359375 C-135.38538834 89.66765744 -137.13500811 85.77587593 -138.9140625 81.82421875 C-145.11890299 65.68716957 -139.7395856 45.4172438 -133.40625 30.0859375 C-123.11619447 7.50498232 -108.22504621 -6.04480846 -85.48828125 -15.453125 C-57.97927485 -24.36140073 -23.1327525 -16.64095239 0 0 Z M-94.45166016 54.67675781 C-99.28412246 60.21865999 -99.28412246 60.21865999 -101 67 C-99.824375 67.474375 -98.64875 67.94875 -97.4375 68.4375 C-90.27794708 72.04248615 -86.67736199 78.85785265 -82.625 85.5 C-76.99831532 94.44755649 -70.14093083 101.46681137 -60 105 C-52.80109404 106.17800279 -45.63724358 103.22853337 -39.5390625 99.4921875 C-29.37658134 92.03507675 -24.27259587 83.09038346 -21.25 71 C-20.18442455 59.54831271 -20.18442455 59.54831271 -24 49 C-32.56808786 39.14850657 -43.93068981 35.64710754 -56.61328125 34.7421875 C-74.02103581 34.21733058 -83.41732618 41.93141544 -94.45166016 54.67675781 Z " fill="#000000" transform="translate(532,1522)"/>
<path d="M0 0 C0.93352295 -0.00064453 1.8670459 -0.00128906 2.82885742 -0.00195312 C9.84869959 0.0488609 16.76226502 0.55701946 23.75 1.1875 C37.03870014 2.33896118 50.29516009 2.38411849 63.625 2.375 C65.17569687 2.37608765 65.17569687 2.37608765 66.75772095 2.37719727 C77.66441593 2.37633147 88.49836148 2.19572308 99.37817383 1.42114258 C104.89833521 1.05878614 110.40688238 0.96539719 115.9375 0.9375 C116.99066406 0.916875 118.04382813 0.89625 119.12890625 0.875 C129.14920793 0.82483579 135.57707899 3.03772219 142.953125 10.01953125 C148.27682982 15.83578356 150.22304925 22.33489549 149.9375 30.1875 C148.68094842 38.16176966 145.24997672 44.42127033 139.1796875 49.72265625 C131.75514738 54.71602343 122.57011965 54.60147715 113.9375 55.1875 C112.72755371 55.27628418 111.51760742 55.36506836 110.27099609 55.45654297 C79.04327382 57.73237566 48.14951965 57.53015126 16.9375 55.1875 C15.84356934 55.10741699 14.74963867 55.02733398 13.62255859 54.94482422 C-17.68597241 52.58276782 -17.68597241 52.58276782 -29.0625 40.125 C-33.61212053 34.77700856 -34.53344034 29.84586425 -34.3671875 22.96484375 C-33.57576833 15.75075364 -29.77591585 11.2218012 -24.28515625 6.7265625 C-16.58170947 1.39236561 -9.15085814 -0.00681184 0 0 Z " fill="#000000" transform="translate(602.0625,1744.8125)"/>
</svg>
