<?xml version="1.0" encoding="UTF-8"?>
<svg version="1.1" xmlns="http://www.w3.org/2000/svg" width="2048" height="2048">
<path d="M0 0 C10.02134109 9.31533663 19.74534121 18.91626876 27.99609375 29.85546875 C28.39924805 30.37689453 28.80240234 30.89832031 29.21777344 31.43554688 C40.63256112 46.21568457 50.51121985 62.22511591 58.99609375 78.85546875 C62.62539359 78.32134538 65.64209575 77.19659797 68.9519043 75.63427734 C121.37913216 50.94459441 184.62946488 52.10574336 238.99609375 68.85546875 C240.35661865 69.26321533 240.35661865 69.26321533 241.74462891 69.67919922 C287.29641233 83.4060976 330.79002789 109.6545054 365.7421875 141.78515625 C367.19682022 143.12130069 368.66729504 144.44049411 370.15625 145.73828125 C383.02399405 156.99479835 395.73790487 169.14481398 405.99609375 182.85546875 C406.84608575 183.95333287 407.6963649 185.05097471 408.546875 186.1484375 C446.06191498 235.2385506 459.25586273 296.03898297 451.99609375 356.85546875 C448.0798825 384.02073695 440.80628513 410.25445021 431.87109375 436.16796875 C431.62333191 436.89852478 431.37557007 437.62908081 431.12030029 438.3817749 C428.39147554 446.37816601 425.65823419 453.42355389 419.99609375 459.85546875 C418.98725285 461.18212538 417.98505744 462.51392911 416.99609375 463.85546875 C418.0727832 463.96544189 419.14947266 464.07541504 420.25878906 464.1887207 C425.8620579 464.89146592 431.299462 466.2404994 436.79296875 467.5234375 C447.49039388 469.95887607 458.20921682 472.06610303 469.01171875 473.96875 C469.74402018 474.09785263 470.4763216 474.22695526 471.23081398 474.35997009 C474.2452648 474.89057412 477.25999723 475.41953847 480.27509785 475.94643784 C532.36934549 485.05061678 582.05175957 496.44926719 630.99609375 516.85546875 C631.64020203 517.12337219 632.2843103 517.39127563 632.94793701 517.66729736 C652.29017166 525.72508691 671.24035596 534.515925 689.99609375 543.85546875 C690.88200195 544.29375 691.76791016 544.73203125 692.68066406 545.18359375 C714.68410262 556.1364165 731.77090792 568.98260127 741.99609375 591.85546875 C745.89703936 604.79256947 744.32744697 620.75328744 738.00390625 632.55859375 C735.30917337 636.98340805 732.42431354 640.97974241 728.99609375 644.85546875 C728.35929687 645.67789063 727.7225 646.5003125 727.06640625 647.34765625 C719.78839623 656.16366084 709.69520628 661.28909791 698.99609375 664.85546875 C696.27254841 664.96558015 693.57558064 665.01924767 690.8515625 665.0234375 C690.02788177 665.02758163 689.20420105 665.03172577 688.3555603 665.03599548 C685.63152737 665.04578047 682.90764183 665.04562639 680.18359375 665.04296875 C679.24095673 665.04302917 678.2983197 665.0430896 677.32711792 665.04315186 C662.82172165 665.03000502 648.39433761 664.57100913 633.91723633 663.70336914 C632.32244183 663.60801051 630.72763366 663.51288043 629.1328125 663.41796875 C628.32767715 663.3700267 627.52254181 663.32208466 626.69300842 663.27268982 C618.21184817 662.78340709 609.72532432 662.49876182 601.2355957 662.2043457 C550.9591985 660.45666251 500.9284154 656.31782849 450.82635498 651.95080566 C406.00619779 648.04564204 361.16106104 644.59822084 316.28679466 641.37972927 C309.8444085 640.91741499 303.40262862 640.44725292 296.96096802 639.97492981 C283.20386118 638.9676434 269.44382269 638.01143509 255.68005371 637.09973145 C253.17844894 636.93386408 250.67690452 636.76708446 248.17541504 636.5994873 C178.31824607 631.92335333 108.37653995 628.67163153 38.45094299 625.21665955 C20.83886913 624.34626274 3.22739272 623.4661831 -14.3828125 622.55859375 C-45.29333432 620.96831384 -76.20469275 619.49628366 -107.13183975 618.26492691 C-108.72274775 618.20156799 -110.3136473 618.1379963 -111.9045372 618.07418442 C-122.21827231 617.66054288 -132.5327061 617.27852295 -142.84883118 616.92951584 C-144.94509966 616.85748931 -147.04121561 616.78198764 -149.1373291 616.70559692 C-184.59407589 615.43162551 -220.08734843 615.65651956 -255.5616436 615.66736889 C-258.14429109 615.66797234 -260.72693802 615.66801861 -263.30958557 615.66788483 C-309.23825855 615.66610114 -355.12635433 615.82841576 -401.03167725 617.43371582 C-412.28892081 617.82349864 -423.54719543 618.09049111 -434.80859375 618.328125 C-436.61654683 618.36652701 -438.42449971 618.4049385 -440.23245239 618.44335938 C-442.96416932 618.50132695 -445.69588674 618.55926991 -448.42760658 618.61709976 C-478.83927657 619.26337095 -509.23479991 620.13170453 -539.62890625 621.35546875 C-540.76592358 621.40080812 -540.76592358 621.40080812 -541.92591095 621.44706345 C-573.83218816 622.71969559 -605.68072994 624.49848862 -637.5123291 627.0296936 C-709.04244122 632.70654032 -709.04244122 632.70654032 -738.00390625 631.85546875 C-738.78572266 631.83613281 -739.56753906 631.81679688 -740.37304688 631.796875 C-759.9147764 631.24822198 -759.9147764 631.24822198 -768.00390625 625.85546875 C-768.00390625 625.19546875 -768.00390625 624.53546875 -768.00390625 623.85546875 C-768.66390625 623.85546875 -769.32390625 623.85546875 -770.00390625 623.85546875 C-770.00390625 623.19546875 -770.00390625 622.53546875 -770.00390625 621.85546875 C-770.99390625 621.52546875 -771.98390625 621.19546875 -773.00390625 620.85546875 C-777.90811761 613.84945253 -778.17667302 606.2028087 -777.00390625 597.85546875 C-776.0961071 595.80599677 -775.05535528 593.86893622 -773.984375 591.90039062 C-772.36780619 588.52878198 -771.89065307 585.01423622 -771.25390625 581.35546875 C-766.28743116 556.81074663 -750.13993198 542.08079949 -729.89648438 528.57226562 C-728.3718457 527.56776367 -728.3718457 527.56776367 -726.81640625 526.54296875 C-725.78837891 525.85396484 -724.76035156 525.16496094 -723.70117188 524.45507812 C-709.23232959 514.85546875 -709.23232959 514.85546875 -705.00390625 514.85546875 C-705.2148291 514.30947021 -705.42575195 513.76347168 -705.64306641 513.20092773 C-724.09156114 465.03764372 -732.57572001 413.23512355 -711.62890625 364.54296875 C-703.58295691 346.55646495 -692.04657015 331.5113557 -679.00390625 316.85546875 C-678.400625 316.17742187 -677.79734375 315.499375 -677.17578125 314.80078125 C-656.19295191 292.65223916 -626.03611926 276.34329182 -597.00390625 267.85546875 C-595.48990234 267.3759375 -595.48990234 267.3759375 -593.9453125 266.88671875 C-585.56582457 264.62708155 -577.26866001 264.54542096 -568.62890625 264.48046875 C-567.41565674 264.46653076 -566.20240723 264.45259277 -564.95239258 264.43823242 C-558.25613595 264.47384835 -553.08773851 265.00225709 -547.00390625 267.85546875 C-547.20886719 266.81648438 -547.41382813 265.7775 -547.625 264.70703125 C-560.01662624 201.03443171 -530.46804165 135.35730852 -495.48486328 83.28173828 C-490.64722302 76.20725563 -485.46902252 69.45434683 -480.00390625 62.85546875 C-479.54048828 62.2944043 -479.07707031 61.73333984 -478.59960938 61.15527344 C-466.68464958 46.8131922 -454.00284059 33.18308393 -440.00390625 20.85546875 C-439.50246094 20.40929199 -439.00101562 19.96311523 -438.484375 19.50341797 C-386.02043055 -26.97868785 -315.48299234 -57.98894188 -246.00390625 -66.14453125 C-245.18035645 -66.24749512 -244.35680664 -66.35045898 -243.50830078 -66.45654297 C-158.37191937 -76.72351371 -64.7182941 -58.89497111 0 0 Z M-394.00390625 44.85546875 C-394.67083496 45.3129248 -395.33776367 45.77038086 -396.02490234 46.24169922 C-416.57756695 60.40320856 -435.51545807 77.24885458 -451.00390625 96.85546875 C-451.86484578 97.91490819 -452.72686189 98.9734735 -453.58984375 100.03125 C-461.02950408 109.22490003 -467.63840609 118.89325741 -474.00390625 128.85546875 C-474.40319336 129.48001953 -474.80248047 130.10457031 -475.21386719 130.74804688 C-497.454403 165.89310868 -517.19373031 208.02605452 -517.18920898 250.25073242 C-517.19138381 252.51956279 -517.20954578 254.78789672 -517.22851562 257.05664062 C-517.25706341 264.62786558 -516.9768532 271.80975877 -515.46533203 279.26538086 C-514.23310956 286.18212596 -513.90821801 292.86946285 -518.00390625 298.85546875 C-521.06820401 300.38761763 -523.62047045 300.08485423 -527.00390625 299.85546875 C-529.75390625 298.41796875 -529.75390625 298.41796875 -532.00390625 296.85546875 C-532.99390625 296.52546875 -533.98390625 296.19546875 -535.00390625 295.85546875 C-535.00390625 296.51546875 -535.00390625 297.17546875 -535.00390625 297.85546875 C-538.45032685 299.33061615 -541.73249463 300.31610006 -545.40625 301.046875 C-575.01442003 307.21343499 -600.25484162 318.8208519 -623.00390625 338.85546875 C-623.5565918 339.34047852 -624.10927734 339.82548828 -624.67871094 340.32519531 C-628.19082697 343.42967417 -631.60954609 346.62206849 -635.00390625 349.85546875 C-636.40576172 351.16064453 -636.40576172 351.16064453 -637.8359375 352.4921875 C-652.72034623 366.75207558 -662.60914512 383.91029464 -668.00390625 403.85546875 C-668.2676001 404.82709961 -668.2676001 404.82709961 -668.53662109 405.81835938 C-675.67315851 433.6542699 -666.40968875 468.73443485 -654.06640625 493.98046875 C-651.8048462 499.17756369 -651.50948997 504.0118819 -651.44140625 509.60546875 C-651.4266626 510.39840332 -651.41191895 511.19133789 -651.39672852 512.00830078 C-651.52501626 519.3445159 -653.84704432 524.31779101 -658.5703125 529.875 C-659.55266256 530.82322334 -660.55236062 531.7537201 -661.56640625 532.66796875 C-662.12158936 533.17585937 -662.67677246 533.68375 -663.2487793 534.20703125 C-668.61489326 538.89483816 -674.55445057 542.2768974 -680.76831055 545.71020508 C-689.1123107 550.35481291 -696.57002443 555.88357057 -704.00390625 561.85546875 C-704.60493164 562.3354834 -705.20595703 562.81549805 -705.82519531 563.31005859 C-712.80212527 568.92260263 -719.51312068 574.72242406 -725.00390625 581.85546875 C-725.00390625 582.18546875 -725.00390625 582.51546875 -725.00390625 582.85546875 C-716.5716846 582.37799619 -708.19690232 581.58719178 -699.8046875 580.65625 C-647.239147 574.84024305 -594.38774643 569.8124728 -541.51763916 567.94503784 C-538.63644351 567.84237535 -535.75550138 567.73353035 -532.87451172 567.62524414 C-512.21358202 566.86533807 -491.5480566 566.38745402 -470.87890625 565.91796875 C-465.03618287 565.78504867 -459.19349124 565.65085926 -453.35083961 565.5148201 C-451.55206211 565.47321323 -449.75327302 565.43210437 -447.9544735 565.39146042 C-435.90200934 565.11882208 -423.85193627 564.79580153 -411.80229104 564.4196769 C-364.54707465 562.95111827 -317.33222607 562.53887512 -270.05560946 562.59833091 C-263.34133324 562.60589496 -256.62711591 562.60312163 -249.9128418 562.59472656 C-202.23543282 562.5367299 -154.64775782 563.00032525 -107.00390625 564.85546875 C-105.04605932 564.92968275 -103.08820457 565.00369101 -101.13034058 565.07745361 C-90.57893471 565.47824972 -80.03072819 565.93420912 -69.48326874 566.42750168 C-66.88761438 566.54838461 -64.29187372 566.66725321 -61.69610596 566.78567505 C-9.37976696 569.17530355 42.92217096 571.88532754 95.22349548 574.58071899 C95.93769443 574.61752458 96.65189337 574.65433017 97.38773471 574.69225109 C98.09737422 574.72882198 98.80701373 574.76539287 99.53815746 574.80307198 C100.24300632 574.83939492 100.94785517 574.87571785 101.67406309 574.91314149 C103.08388527 574.9857939 104.49370718 575.05845161 105.90352881 575.13111472 C115.25755997 575.61311506 124.61179604 576.09089714 133.96630859 576.56347656 C213.013328 580.55705607 291.97724501 585.35327926 370.86491394 591.7946167 C380.66418784 592.59346971 390.46552714 593.35920873 400.26953125 594.09765625 C401.58376068 594.19681335 402.89799011 594.29597046 404.25204468 594.39813232 C406.89298089 594.59726351 409.53392123 594.79634001 412.17486572 594.99536133 C431.0990203 596.42253908 450.01276822 597.92204001 468.91796875 599.58203125 C470.64782106 599.73375069 472.37767437 599.88545861 474.10752869 600.03715515 C474.96895509 600.11271039 475.83038149 600.18826563 476.71791172 600.26611042 C506.28441079 602.85896204 535.84003397 605.35064456 565.46982574 607.10663986 C567.50165775 607.2270934 569.53339253 607.34909461 571.56512451 607.47122192 C587.52112585 608.41841565 603.46936261 609.06517528 619.44558716 609.50801086 C630.33776751 609.81290522 641.19741145 610.35392544 652.07006836 611.0559082 C657.04361714 611.37262667 662.01679952 611.64660227 666.99609375 611.85546875 C667.79702454 611.88985046 668.59795532 611.92423218 669.42315674 611.95965576 C671.88629115 612.05283463 674.34815791 612.11336253 676.8125 612.1640625 C677.57159164 612.19403824 678.33068329 612.22401398 679.11277771 612.25489807 C682.77754186 612.29597432 684.60428267 612.17049445 687.50756836 609.83618164 C687.99878174 609.18254639 688.48999512 608.52891113 688.99609375 607.85546875 C685.25075245 603.75855327 681.49284466 601.15935602 676.62109375 598.54296875 C675.55411255 597.95950684 675.55411255 597.95950684 674.46557617 597.36425781 C673.00201082 596.56580178 671.53643369 595.77102206 670.06884766 594.97998047 C668.24587088 593.99097799 666.43802515 592.97419186 664.6328125 591.953125 C609.38452384 561.24520428 547.92460494 543.15607171 486.078125 531.9296875 C485.01593246 531.73685495 485.01593246 531.73685495 483.93228149 531.5401268 C476.77306678 530.24204728 469.61212883 528.95433948 462.44654083 527.69188976 C447.85586247 525.11946256 433.32070685 522.38663569 418.84375 519.23046875 C417.56320236 518.95263046 416.28265472 518.67479218 414.96330261 518.38853455 C350.04934608 503.99272846 350.04934608 503.99272846 332.99609375 481.10546875 C329.77767605 475.87553999 328.70370624 472.09250306 328.68359375 465.91796875 C328.66683594 464.73332031 328.65007812 463.54867188 328.6328125 462.328125 C329.03057434 458.52586399 330.13708091 456.16404097 331.99609375 452.85546875 C332.32609375 451.86546875 332.65609375 450.87546875 332.99609375 449.85546875 C334.80078125 448.80078125 334.80078125 448.80078125 336.99609375 447.85546875 C337.65867187 447.50226563 338.32125 447.1490625 339.00390625 446.78515625 C349.90460095 441.35492088 358.82556579 444.35236867 369.99609375 447.85546875 C371.32764774 448.19584039 372.66064308 448.53072209 373.99609375 448.85546875 C374.00302246 447.96770752 374.00995117 447.07994629 374.01708984 446.1652832 C374.34705758 436.43249913 376.41410984 428.34648468 379.80050659 419.25341797 C381.21873587 415.43307572 382.56358522 411.58689335 383.9140625 407.7421875 C384.31804008 406.59730362 384.31804008 406.59730362 384.73017883 405.42929077 C391.51751472 386.06225861 395.75023061 366.09182152 398.99609375 345.85546875 C399.10880615 345.15309082 399.22151855 344.45071289 399.33764648 343.72705078 C405.30541666 301.9365739 392.5760721 255.88878408 367.58203125 222.25390625 C359.92600909 212.13884946 351.42539369 203.08986684 342.49609375 194.10546875 C342.01153717 193.6155545 341.52698059 193.12564026 341.02774048 192.62088013 C334.36403926 185.90142868 327.40475486 179.74474132 319.99609375 173.85546875 C318.76377482 172.83190833 317.53417822 171.80505206 316.30859375 170.7734375 C297.00159359 154.75157741 274.58436833 142.61121707 251.99609375 131.85546875 C250.93003906 131.345 249.86398437 130.83453125 248.765625 130.30859375 C230.77090662 122.15507945 211.3017265 116.84900119 191.99609375 112.85546875 C190.26359375 112.48615234 190.26359375 112.48615234 188.49609375 112.109375 C167.46798137 108.37276189 145.78412797 110.97425647 124.99609375 114.85546875 C124.16223145 115.01031738 123.32836914 115.16516602 122.46923828 115.32470703 C107.13692289 118.28748914 83.13697347 123.36438191 73.90625 136.92578125 C71.91144267 140.82152263 70.37815032 144.70929904 68.99609375 148.85546875 C68.33609375 148.85546875 67.67609375 148.85546875 66.99609375 148.85546875 C66.403125 149.61214844 65.81015625 150.36882812 65.19921875 151.1484375 C61.15910768 156.11261653 55.34253931 159.14277952 49.00390625 160.18212891 C40.88018976 160.9389374 33.97675599 160.37236785 26.99609375 155.85546875 C26.00609375 155.52546875 25.01609375 155.19546875 23.99609375 154.85546875 C23.99609375 154.19546875 23.99609375 153.53546875 23.99609375 152.85546875 C23.33609375 152.85546875 22.67609375 152.85546875 21.99609375 152.85546875 C21.72796875 152.15421875 21.45984375 151.45296875 21.18359375 150.73046875 C20.07262241 147.83505195 20.07262241 147.83505195 18.4375 145.27734375 C16.54935136 140.79490958 16.6278376 137.03462484 16.74609375 132.23046875 C16.75382813 130.96203125 16.75382813 130.96203125 16.76171875 129.66796875 C16.84087679 123.394694 16.84087679 123.394694 17.58789062 120.79956055 C18.31559027 117.33384745 16.25362658 114.34471829 14.74609375 111.29296875 C14.38620361 110.54990479 14.02631348 109.80684082 13.65551758 109.04125977 C3.8734668 89.21467766 -7.94956072 70.8951034 -22.65820312 54.39208984 C-24.01416334 52.84375646 -25.31961769 51.26222755 -26.62109375 49.66796875 C-28.576559 47.35987862 -30.45072006 45.41947593 -32.75390625 43.48046875 C-34.87690803 41.67710106 -36.9819858 39.87573882 -39.02734375 37.984375 C-107.61787132 -25.3789934 -220.04707573 -24.90423506 -394.00390625 44.85546875 Z " fill="#000000" transform="translate(814.00390625,159.14453125)"/>
<path d="M0 0 C1.43776291 0.00406357 1.43776291 0.00406357 2.90457153 0.00820923 C22.94467141 0.09383555 41.36843452 2.7814664 60.76928711 7.79174805 C66.66378955 9.24763623 72.25213881 9.79988852 78.3125 9.9375 C90.42520855 10.26923589 99.44909702 13.55223159 108.22265625 22.18359375 C114.24450833 28.67818936 118.09278508 35.12728743 118.41015625 44.2421875 C117.90312756 53.17083899 114.91952403 59.79706582 108.34765625 65.89453125 C102.66272907 70.2046008 97.05741204 71.65708842 89.98046875 71.53515625 C88.91465576 71.52105713 87.84884277 71.50695801 86.75073242 71.49243164 C85.54380737 71.46524048 85.54380737 71.46524048 84.3125 71.4375 C83.9628418 72.0680127 83.61318359 72.69852539 83.25292969 73.34814453 C69.60599764 97.81169635 54.98248382 122.43134143 36.3125 143.4375 C35.86181152 143.94764648 35.41112305 144.45779297 34.94677734 144.98339844 C32.28763462 147.974571 29.57246758 150.90924246 26.82714844 153.82128906 C25.14492703 155.61630933 23.48235657 157.42847401 21.8203125 159.2421875 C13.36850439 168.42284879 4.55021962 177.05245105 -4.6875 185.4375 C-6.06228516 186.70207031 -6.06228516 186.70207031 -7.46484375 187.9921875 C-17.73470535 197.36972305 -28.69513274 205.9303181 -39.6875 214.4375 C-40.42645508 215.01306641 -41.16541016 215.58863281 -41.92675781 216.18164062 C-83.7901966 248.68248314 -152.4560912 293.4375 -207.6875 293.4375 C-207.71328125 293.994375 -207.7390625 294.55125 -207.765625 295.125 C-208.40703467 303.75487553 -211.5224196 310.2724196 -217.6875 316.4375 C-222.61404132 319.81309312 -226.78138186 321.52874974 -232.6875 322.4375 C-232.67662354 323.2207666 -232.66574707 324.0040332 -232.65454102 324.81103516 C-232.59182182 332.86179025 -232.98072168 340.79052541 -233.625 348.8125 C-234.86493954 365.32333094 -235.59862881 381.79825526 -235.95272827 398.3502655 C-236.47868206 422.76956939 -237.298475 446.81864174 -241.4375 470.9375 C-241.55193451 471.63559784 -241.66636902 472.33369568 -241.78427124 473.052948 C-243.37465604 482.59341952 -245.35017216 492.8018247 -252.98291016 499.43115234 C-260.5745552 504.83357882 -267.49532468 506.09801559 -276.6875 505.4375 C-281.55219563 504.31487793 -285.43995378 501.98602773 -289.6875 499.4375 C-289.6875 498.7775 -289.6875 498.1175 -289.6875 497.4375 C-290.3475 497.4375 -291.0075 497.4375 -291.6875 497.4375 C-293.52734375 495.12890625 -293.52734375 495.12890625 -295.625 492 C-296.31464844 490.99066406 -297.00429687 489.98132812 -297.71484375 488.94140625 C-301.93957898 481.94673723 -303.18968903 474.53305219 -303.8125 466.5 C-303.93141602 465.13246582 -303.93141602 465.13246582 -304.05273438 463.73730469 C-304.65281161 456.59836936 -305.05628541 449.45474337 -305.34375 442.296875 C-305.52812668 438.85834493 -305.94951888 435.48530106 -306.42158508 432.07530212 C-307.94066416 420.74161135 -308.02532658 409.45865967 -308.00317383 398.03686523 C-308.00001468 394.640786 -308.02356011 391.2455817 -308.04882812 387.84960938 C-308.08474656 375.14268445 -307.32623583 362.97404014 -305.04623413 350.46817017 C-304.51616851 347.46765156 -304.10046429 344.45616153 -303.6875 341.4375 C-304.74324219 341.82421875 -305.79898437 342.2109375 -306.88671875 342.609375 C-330.96654307 351.18408788 -357.13707302 354.72481615 -382.6875 353.4375 C-383.82856201 353.38384277 -383.82856201 353.38384277 -384.99267578 353.32910156 C-409.71459884 352.0281976 -432.11711808 345.36908684 -454.6875 335.4375 C-455.53505859 335.06753906 -456.38261719 334.69757813 -457.25585938 334.31640625 C-470.90444887 328.29204904 -483.82625 320.97383812 -496.6875 313.4375 C-497.5120166 312.95490723 -498.3365332 312.47231445 -499.18603516 311.97509766 C-521.5106892 298.82369605 -542.03127593 283.42782672 -560.6875 265.4375 C-561.27305664 264.87385742 -561.85861328 264.31021484 -562.46191406 263.72949219 C-569.30446744 257.10636863 -575.79012648 250.40425932 -581.69921875 242.91796875 C-583.51011495 240.65879569 -585.40070081 238.55311745 -587.375 236.4375 C-628.327947 190.75293761 -651.18790647 133.23360028 -648.35546875 72.01171875 C-648.26747449 69.9793163 -648.18042514 67.94687478 -648.09344482 65.91442871 C-648.0016679 63.91140175 -647.89090051 61.90927386 -647.77978516 59.90722656 C-647.47854933 53.05742432 -647.5675634 48.52019756 -650.6875 42.4375 C-651.91772142 33.52864652 -651.05691079 25.78654205 -645.6875 18.4375 C-643.55873875 16.05039394 -641.34152363 14.21429898 -638.6875 12.4375 C-638.12675781 12.04820313 -637.56601563 11.65890625 -636.98828125 11.2578125 C-613.73029855 -2.56580412 -572.8249755 8.3299715 -548.6875 14.4375 C-536.62325803 17.54033687 -524.64172489 20.93723094 -512.6875 24.4375 C-511.94999512 24.65319641 -511.21249023 24.86889282 -510.45263672 25.09112549 C-476.05017921 35.18861599 -443.05485738 48.2214923 -410.64318848 63.51501465 C-408.70438657 64.42953472 -406.76395397 65.34051766 -404.82324219 66.25097656 C-349.04844734 92.46356907 -300.24942443 123.67662543 -260.6875 171.4375 C-260.31165771 170.70768921 -260.31165771 170.70768921 -259.92822266 169.96313477 C-241.29605331 133.8944659 -218.32289031 100.3758643 -185.6875 75.4375 C-184.44970444 74.46066903 -183.21279222 73.48271812 -181.9765625 72.50390625 C-166.3950416 60.26847686 -149.86888066 49.29574151 -132.6875 39.4375 C-131.65858643 38.84291992 -131.65858643 38.84291992 -130.60888672 38.23632812 C-107.05411127 24.67977498 -82.69790887 14.2032401 -56.4375 7.0625 C-55.26791748 6.74079834 -54.09833496 6.41909668 -52.89331055 6.08764648 C-35.3644075 1.50651763 -18.08116399 -0.12072622 0 0 Z M-94.6875 80.4375 C-95.36393555 80.78973633 -96.04037109 81.14197266 -96.73730469 81.50488281 C-115.47436351 91.2962821 -133.24985959 103.15001258 -149.6875 116.4375 C-150.54085937 117.08847656 -151.39421875 117.73945312 -152.2734375 118.41015625 C-166.4584807 129.46426649 -179.25508714 142.79786258 -189.6875 157.4375 C-190.10402832 158.015 -190.52055664 158.5925 -190.94970703 159.1875 C-207.86061671 182.85109744 -220.46960157 210.80788288 -219.6875 240.4375 C-163.39028876 234.64993623 -105.11706475 198.17169489 -62.49609375 162.92578125 C-60.90339164 161.61515597 -59.29650623 160.32180708 -57.6875 159.03125 C-51.42833222 154.00935957 -45.53086859 148.67868117 -39.671875 143.203125 C-37.41227369 141.09547695 -35.1092242 139.05876663 -32.75 137.0625 C-24.45349502 129.87807973 -16.46796197 121.89345713 -9.4140625 113.484375 C-8.13177313 111.96419484 -6.80693687 110.47969449 -5.4609375 109.015625 C1.25875028 101.50419153 6.91794569 93.37042026 12.5 85 C13.06625595 84.1544606 13.06625595 84.1544606 13.64395142 83.2918396 C19.25895901 74.88237572 24.39380503 66.26847108 29.3125 57.4375 C-5.79251632 39.06050277 -63.23493832 63.73361874 -94.6875 80.4375 Z M-593.6875 61.4375 C-594.95392408 65.34844089 -594.86722547 69.29329028 -594.890625 73.359375 C-594.89632507 74.13702209 -594.90202515 74.91466919 -594.90789795 75.71588135 C-594.91733794 77.36672616 -594.92387796 79.01758973 -594.92773438 80.66845703 C-594.9373058 83.1374051 -594.96827949 85.60547074 -595 88.07421875 C-595.10044817 102.71847608 -593.00653592 116.08897553 -588 129.9375 C-587.65259766 130.91452881 -587.30519531 131.89155762 -586.94726562 132.89819336 C-583.83075959 141.44542174 -580.07026909 149.47651765 -575.6875 157.4375 C-575.37345215 158.02257324 -575.0594043 158.60764648 -574.73583984 159.21044922 C-566.5597225 174.42370122 -556.4912142 188.10627648 -545.43188477 201.32861328 C-544.15489863 202.87243501 -542.89465294 204.43014566 -541.64428711 205.99560547 C-536.27589523 212.68911047 -530.58494194 218.89081045 -524.5 224.9375 C-523.58017334 225.85313721 -522.66034668 226.76877441 -521.71264648 227.7121582 C-514.74571003 234.5645129 -507.60642463 240.730512 -499.6875 246.4375 C-498.59912639 247.25369833 -497.51189856 248.0714266 -496.42578125 248.890625 C-455.32084207 279.5040178 -404.61517167 305.85279529 -352.125 298.1875 C-334.51266882 295.31973659 -317.30729441 289.86612232 -302.6875 279.4375 C-302.03652344 279.00566406 -301.38554688 278.57382813 -300.71484375 278.12890625 C-297.6662013 275.93071252 -296.7464969 274.7324845 -296 271 C-295.896875 269.824375 -295.79375 268.64875 -295.6875 267.4375 C-294.73355164 265.41512948 -293.74214649 263.4092304 -292.6875 261.4375 C-292.6875 260.7775 -292.6875 260.1175 -292.6875 259.4375 C-292.0275 259.4375 -291.3675 259.4375 -290.6875 259.4375 C-290.1925 258.715625 -289.6975 257.99375 -289.1875 257.25 C-285.67881584 253.30273032 -281.45163348 251.57408658 -276.6875 249.4375 C-277.299931 244.99947262 -279.01890209 241.39640785 -281.125 237.5 C-281.65516724 236.51592163 -281.65516724 236.51592163 -282.19604492 235.51196289 C-286.12531473 228.39832068 -290.76946715 221.89366808 -295.6875 215.4375 C-296.12465332 214.8614502 -296.56180664 214.28540039 -297.01220703 213.69189453 C-300.17033548 209.55226363 -303.40174759 205.4764497 -306.6875 201.4375 C-307.14850098 200.87063477 -307.60950195 200.30376953 -308.08447266 199.71972656 C-320.1187649 185.04416879 -333.31671339 171.61293381 -348.6875 160.4375 C-349.69683594 159.695 -350.70617188 158.9525 -351.74609375 158.1875 C-393.67988694 128.2729469 -443.30094321 105.79132838 -491.6875 88.4375 C-492.85812988 88.01581543 -494.02875977 87.59413086 -495.23486328 87.15966797 C-513.22081449 80.75523823 -531.44748037 75.42195848 -549.875 70.4375 C-550.90715637 70.15796478 -551.93931274 69.87842957 -553.00274658 69.59042358 C-573.0618378 63.5832196 -573.0618378 63.5832196 -593.6875 61.4375 Z " fill="#000000" transform="translate(1819.6875,1336.5625)"/>
<path d="M0 0 C3.04928502 1.82181859 5.90427934 3.81651188 8.5 6.25 C8.5 6.91 8.5 7.57 8.5 8.25 C9.16 8.25 9.82 8.25 10.5 8.25 C10.87125 8.95125 11.2425 9.6525 11.625 10.375 C13.75753447 13.64488618 15.97999251 15.26284045 19.171875 17.4296875 C25.94683418 22.72688713 30.33932987 28.68264349 34.5625 36.125 C35.11558838 37.07898682 35.66867676 38.03297363 36.23852539 39.01586914 C40.98581758 47.24144144 45.58180605 55.55247979 50.19750977 63.85229492 C61.72393974 84.48331483 74.5321029 104.35225383 87.33984375 124.203125 C96.23463386 138.00974984 104.84731063 151.9602597 113.33288574 166.01963806 C117.08092178 172.22326345 120.8821472 178.39390047 124.6875 184.5625 C129.68864564 192.67424832 134.67276749 200.79578815 139.625 208.9375 C140.19645752 209.87650146 140.76791504 210.81550293 141.35668945 211.78295898 C144.21954224 216.48995833 147.07534914 221.20107742 149.921875 225.91796875 C163.4891246 248.36647466 177.7816342 270.31210618 192.38964844 292.09179688 C194.35808975 295.03762713 196.31153495 297.99261944 198.2578125 300.953125 C205.44902236 311.87538897 212.96936374 322.47309899 220.79296875 332.95019531 C223.58511693 336.71192814 226.3247095 340.51111338 229.0625 344.3125 C229.59713867 345.0535498 230.13177734 345.79459961 230.68261719 346.55810547 C233.3425611 350.24710814 235.9953016 353.9411254 238.640625 357.640625 C244.48731321 365.79997109 250.45067035 373.84939027 256.5625 381.8125 C262.52489342 389.58159315 268.27930779 397.46083688 273.87109375 405.5 C276.20023575 408.84597208 278.61933394 412.11153318 281.0625 415.375 C287.17446643 423.87584312 288.59813203 430.79964466 287.5 441.25 C286.57874454 444.28305643 285.30965977 446.66205998 283.5 449.25 C282.96375 450.11625 282.4275 450.9825 281.875 451.875 C275.61474895 458.13525105 269.82174936 460.85544171 261 460.9375 C251.57957397 460.73717469 245.19194862 457.98347686 238.25 451.5625 C234.93454004 448.01588248 232.55042388 444.25374603 230.16015625 440.046875 C224.08062216 429.80464816 216.39849159 420.41637134 209.24267578 410.91870117 C204.53218638 404.65676451 199.91573735 398.33375412 195.34448242 391.96972656 C191.43647575 386.53301894 187.47981513 381.13432667 183.5 375.75 C163.22590509 348.28929709 143.59179009 320.29718458 125.71142578 291.20605469 C123.86473493 288.2242556 121.98266484 285.26512434 120.10351562 282.30371094 C113.78982902 272.35305278 107.6166886 262.32264535 101.5 252.25 C99.27157388 248.58288275 97.04231473 244.91627305 94.8125 241.25 C94.22654053 240.28634521 93.64058105 239.32269043 93.03686523 238.32983398 C87.94660365 229.9664278 82.81349056 221.62977958 77.6730957 213.29711914 C74.18196745 207.6312034 70.7084122 201.95554397 67.26953125 196.2578125 C58.53121098 181.78318599 49.60129108 167.45898152 40.43310547 153.25048828 C37.23149666 148.28108032 34.05176527 143.29781344 30.875 138.3125 C30.31917236 137.44318848 29.76334473 136.57387695 29.19067383 135.67822266 C25.5259344 129.92770959 21.98037412 124.11386048 18.5 118.25 C18.22392892 127.19470314 19.16826876 135.9336145 20.0958252 144.81530762 C21.52185168 158.52873149 22.83107925 172.24274718 23.75 186 C23.82976074 187.16176758 23.90952148 188.32353516 23.99169922 189.52050781 C25.52787451 213.78001502 25.52787451 213.78001502 18.3125 224.5 C12.61452793 230.07135046 5.92412871 233.35426682 -2.0625 233.625 C-9.74326351 233.52308396 -15.0086064 231.27151269 -20.79296875 226.265625 C-28.44257967 218.40700831 -29.84701268 209.26684704 -30.52734375 198.62890625 C-30.60108215 197.62699753 -30.67482056 196.62508881 -30.75079346 195.59281921 C-30.90783284 193.44645958 -31.05997838 191.29973713 -31.20761108 189.15270996 C-31.60007066 183.4504021 -32.02856712 177.75077375 -32.453125 172.05078125 C-32.53825851 170.8954892 -32.62339203 169.74019714 -32.71110535 168.54989624 C-33.68769605 155.43971276 -34.92725822 142.35658982 -36.19311523 129.27172852 C-36.27333923 128.43559525 -36.35356323 127.59946198 -36.43621826 126.73799133 C-36.58160984 125.22613144 -36.72890029 123.71445167 -36.87896729 122.20304871 C-38.19142223 108.60023347 -38.69377178 95.07394069 -38.7734375 81.41796875 C-38.77876118 80.55056879 -38.78408485 79.68316883 -38.78956985 78.78948402 C-38.81602729 74.21326212 -38.83550159 69.63706513 -38.85009766 65.06079102 C-38.86350177 61.3027346 -38.89151218 57.54521277 -38.93212891 53.78735352 C-38.98160308 49.20530381 -39.00623195 44.62374243 -39.01332474 40.04143715 C-39.01999587 38.31080048 -39.03510863 36.58017301 -39.05921555 34.84969139 C-39.18410417 25.35796086 -39.09721909 17.36285565 -33.5 9.25 C-32.84 8.26 -32.18 7.27 -31.5 6.25 C-30.84 6.25 -30.18 6.25 -29.5 6.25 C-29.5 5.59 -29.5 4.93 -29.5 4.25 C-28.06429734 3.43432826 -26.62636566 2.62257907 -25.1875 1.8125 C-24.38699219 1.36003906 -23.58648438 0.90757812 -22.76171875 0.44140625 C-16.10140992 -3.06704659 -6.80332717 -3.31710981 0 0 Z M16.5 115.25 C17.5 117.25 17.5 117.25 17.5 117.25 Z " fill="#000000" transform="translate(847.5,861.75)"/>
<path d="M0 0 C13.05021439 -0.7161703 18.7488728 1.67537867 28.41015625 10.1953125 C35.29636235 17.6527725 39.86320806 26.23899826 44.25204468 35.31741333 C45.86643225 38.65262756 47.51181134 41.97249419 49.15625 45.29296875 C49.64728462 46.28592201 49.64728462 46.28592201 50.14823914 47.29893494 C54.80912238 56.69052766 59.86944099 65.8585634 65 75 C65.69609375 76.24740967 65.69609375 76.24740967 66.40625 77.52001953 C75.54417883 93.863586 85.32470068 109.81634342 95.09295654 125.78692627 C97.60702516 129.89755631 100.11837212 134.00982784 102.625 138.125 C102.97839447 138.7050882 103.33178894 139.28517639 103.69589233 139.88284302 C109.39338084 149.24652454 114.90136348 158.71119461 120.34521484 168.22460938 C125.20076732 176.68258619 130.22226503 185.03253204 135.306427 193.35412598 C141.2640644 203.10582239 147.12040186 212.91387576 152.9375 222.75 C158.05798619 231.40507409 163.18842619 240.04598701 168.57250977 248.54077148 C171.76163453 253.57949119 174.82270345 258.68994166 177.875 263.8125 C182.37188625 271.35613182 186.985546 278.81447338 191.72802734 286.20629883 C195.66398108 292.36827928 199.34763103 298.66645864 203 305 C202.90984119 265.3537533 202.90984119 265.3537533 196.875 226.4375 C194.85328804 218.49506018 196.66023205 212.29387448 200 205 C201.51171875 202.66796875 201.51171875 202.66796875 203 201 C203.66 201 204.32 201 205 201 C205 200.34 205 199.68 205 199 C206.43570266 198.18432826 207.87363434 197.37257907 209.3125 196.5625 C210.11300781 196.11003906 210.91351562 195.65757812 211.73828125 195.19140625 C217.27907843 192.27267889 222.87967324 192.21096833 229 193 C233.22946901 194.63921793 237.10665999 196.6805634 241 199 C241 199.66 241 200.32 241 201 C241.66 201 242.32 201 243 201 C243 201.66 243 202.32 243 203 C243.66 203 244.32 203 245 203 C250.07694533 210.96665321 252.01999297 217.68610735 253 227 C253.15714591 228.410473 253.31497082 229.82087047 253.47338867 231.23120117 C254.65530388 241.91667061 255.52974504 252.57581164 256.0625 263.3125 C256.1035788 264.10906006 256.14465759 264.90562012 256.1869812 265.72631836 C257.10073398 283.72520976 257.40728225 301.73654554 257.65844727 319.75512695 C257.82175995 331.14246067 258.1162751 342.50239351 258.65538025 353.87834167 C259.02091732 361.82570343 259.15449726 369.75701773 259.13037109 377.7121582 C259.12487621 379.8609077 259.13044927 382.00945871 259.13671875 384.15820312 C259.15322747 409.33400357 259.15322747 409.33400357 250.84375 418.3359375 C242.97580502 425.60067337 236.54824292 426.5611068 226.11328125 426.30859375 C218.38125129 425.89069305 214.14065872 422.44744365 208.86425781 417.08959961 C205.54594024 413.37018106 202.89107757 409.23912443 200.1875 405.0625 C199.27303101 403.6693457 199.27303101 403.6693457 198.34008789 402.24804688 C193.56576224 394.94680212 188.89925213 387.58141055 184.32763672 380.15185547 C182.84183239 377.74363933 181.34524239 375.34231259 179.84765625 372.94140625 C174.89472839 364.99036624 169.96997396 357.02945877 165.25 348.9375 C155.8012085 332.74746543 146.07922535 316.70296763 135.9375 300.9375 C130.13394561 291.90762481 124.62748512 282.72209405 119.18481445 273.47094727 C114.23514709 265.06194407 109.20323182 256.70692478 104.125 248.375 C99.26724577 240.40075212 94.43730539 232.41388732 89.72924805 224.35009766 C86.18375649 218.28542158 82.56134713 212.26810799 78.9375 206.25 C73.71466879 197.57437107 68.56451976 188.86054908 63.46224976 180.11373901 C58.28542908 171.23974976 53.07281323 162.39912851 47.625 153.6875 C29.35373194 124.42331379 12.19411294 94.57110855 -3.3125 63.75 C-3.67966125 63.02371399 -4.04682251 62.29742798 -4.42510986 61.5491333 C-10.22043936 50.05563562 -14.53451466 40.63492828 -14.5 27.5625 C-14.52835938 26.58990234 -14.55671875 25.61730469 -14.5859375 24.61523438 C-14.60545374 17.3112806 -12.76297112 12.22751232 -9 6 C-8.34 6 -7.68 6 -7 6 C-6.67 5.01 -6.34 4.02 -6 3 C-4.02 2.67 -2.04 2.34 0 2 C0 1.34 0 0.68 0 0 Z " fill="#000000" transform="translate(981,848)"/>
<path d="M0 0 C22.80690156 0.56592808 22.80690156 0.56592808 31 9 C32.49297517 11.2813449 33.7401192 13.57356291 35 16 C30.93982236 17.35339255 27.90458391 16.40726251 24 15 C21.20506708 13.55793355 18.61115782 11.87427174 16 10.125 C10.79908539 6.70174175 5.61883899 3.69654103 0 1 C0 0.67 0 0.34 0 0 Z " fill="#000000" transform="translate(2012,1855)"/>
<path d="" fill="#000000" transform="translate(0,0)"/>
</svg>
