<svg width="370" height="370" xmlns="http://www.w3.org/2000/svg" xmlns:xlink="http://www.w3.org/1999/xlink" xml:space="preserve" overflow="hidden"><g transform="translate(-50 -174)"><g><g><g><g><path d="M300.743 324.155C304.334 327.532 306.476 332.965 306.692 337.838 306.789 341.439 306.463 344.85 305.648 348.356 305.6 348.56 305.553 348.763 305.505 348.972 304.997 351.124 304.394 353.245 303.776 355.367 303.652 355.797 303.529 356.226 303.405 356.656 303.067 357.831 302.727 359.005 302.386 360.18 296.041 381.107 296.041 381.107 292.076 402.562 292.055 402.734 292.034 402.906 292.012 403.083 290.685 413.983 293.02 425.575 299.835 434.363 300.854 435.649 301.922 436.879 303.067 438.057 303.165 438.159 303.264 438.261 303.365 438.366 304.697 439.743 306.056 441.024 307.571 442.201 307.821 442.399 308.07 442.598 308.32 442.797 320.97 452.827 335.002 456.309 350.813 457.335 350.944 457.344 351.074 457.353 351.208 457.362 353.965 457.547 356.722 457.559 359.484 457.561 359.605 457.561 359.725 457.561 359.849 457.561 363.989 457.564 368.096 457.434 372.216 457.016 372.608 456.976 373 456.937 373.392 456.899 375.181 456.722 376.961 456.502 378.741 456.254 378.873 456.236 379.005 456.218 379.141 456.199 386.033 455.237 392.836 453.727 399.641 452.291 399.842 452.248 399.842 452.248 400.047 452.205 402.794 451.625 405.54 451.042 408.285 450.454 408.484 450.411 408.683 450.369 408.887 450.325 409.862 450.116 410.836 449.903 411.808 449.682 411.995 449.64 412.183 449.598 412.377 449.554 412.727 449.475 413.077 449.395 413.427 449.314 414.381 449.1 415.239 449.008 416.217 449.047 416.24 451.11 416.206 453.168 416.138 455.23 416.131 455.456 416.124 455.683 416.117 455.916 416.109 456.131 416.102 456.346 416.094 456.568 416.087 456.759 416.081 456.95 416.074 457.148 416.037 457.701 415.951 458.231 415.857 458.777 413.833 459.462 411.77 459.902 409.683 460.345 409.308 460.425 408.933 460.506 408.558 460.586 407.772 460.754 406.986 460.922 406.2 461.089 405.216 461.299 404.232 461.509 403.249 461.72 390.629 464.429 390.629 464.429 384.517 465.398 384.36 465.424 384.202 465.449 384.04 465.475 376.157 466.735 368.258 467.353 360.276 467.315 359.789 467.313 359.302 467.311 358.816 467.31 353.79 467.298 348.792 467.19 343.787 466.705 343.536 466.681 343.536 466.681 343.281 466.657 337.525 466.113 331.858 465.33 326.309 463.642 326.173 463.601 326.038 463.56 325.898 463.518 323.444 462.773 321.091 461.782 318.742 460.759 318.602 460.698 318.462 460.637 318.318 460.574 315.967 459.542 313.749 458.271 311.535 456.975 311.358 456.871 311.18 456.768 310.998 456.661 308.622 455.262 306.342 453.78 304.148 452.11 304.034 452.024 303.92 451.937 303.803 451.848 302.254 450.664 300.757 449.421 299.283 448.146 299.136 448.02 298.989 447.893 298.838 447.763 296.717 445.898 294.705 443.895 292.977 441.66 292.819 441.464 292.661 441.269 292.503 441.073 287.432 434.788 284.204 427.258 282.662 419.352 282.635 419.213 282.607 419.073 282.579 418.929 282.493 418.459 282.418 417.989 282.347 417.517 282.314 417.307 282.282 417.098 282.249 416.882 281.919 414.544 281.915 412.205 281.919 409.848 281.919 409.528 281.919 409.528 281.919 409.202 281.927 405.27 282.159 401.41 282.707 397.517 282.734 397.32 282.734 397.32 282.762 397.119 283.413 392.506 284.48 387.983 285.59 383.463 285.628 383.306 285.667 383.149 285.706 382.987 287.585 375.319 289.813 367.747 292.014 360.167 296.946 346.672 296.946 346.672 295.139 333.194 293.861 330.929 291.976 329.692 289.52 328.893 284.119 327.619 277.705 330.29 273.158 333.014 272.214 333.621 271.328 334.293 270.455 334.996 270.28 335.133 270.106 335.27 269.926 335.411 268.776 336.329 267.689 337.314 266.614 338.318 266.283 338.626 265.95 338.931 265.618 339.236 264.083 340.643 264.083 340.643 262.683 342.181 262.206 342.724 261.69 343.227 261.176 343.735 260.44 344.463 259.726 345.195 259.055 345.985 258.669 346.434 258.267 346.868 257.865 347.304 257.132 348.108 256.437 348.935 255.754 349.782 255.267 350.377 254.765 350.957 254.262 351.538 253.367 352.575 252.514 353.637 251.674 354.718 251.258 355.254 250.833 355.783 250.406 356.311 249.115 357.908 247.885 359.549 246.66 361.196 246.315 361.658 245.968 362.119 245.621 362.579 244.447 364.136 243.288 365.702 242.151 367.286 241.312 368.453 240.45 369.604 239.585 370.752 238.795 371.801 238.013 372.856 237.235 373.914 236.447 374.987 235.654 376.055 234.853 377.118 234.398 377.725 233.949 378.337 233.501 378.948 232.463 380.36 231.418 381.765 230.341 383.148 230.062 383.507 229.784 383.866 229.506 384.226 228.19 385.929 226.852 387.611 225.487 389.276 225.257 389.557 225.029 389.839 224.8 390.121 223.443 391.792 222.051 393.436 220.603 395.028 220.077 395.606 219.58 396.197 219.094 396.808 218.218 397.894 217.26 398.897 216.295 399.904 216.175 400.031 216.054 400.157 215.93 400.287 215.821 400.4 215.713 400.513 215.601 400.629 215.287 400.963 215.287 400.963 214.961 401.481 214.842 401.481 214.723 401.481 214.6 401.481 214.564 401.576 214.527 401.672 214.49 401.77 214.134 402.386 213.637 402.845 213.133 403.338 213.024 403.446 212.914 403.554 212.802 403.666 212.452 404.012 212.102 404.357 211.751 404.702 211.403 405.045 211.055 405.389 210.707 405.733 210.491 405.947 210.274 406.16 210.057 406.373 209.427 406.996 208.855 407.642 208.294 408.328 208.097 408.511 207.895 408.688 207.686 408.857 206.916 409.511 206.212 410.223 205.502 410.94 204.709 411.74 203.919 412.527 203.059 413.254 202.613 413.635 202.183 414.033 201.752 414.431 200.947 415.164 200.121 415.859 199.274 416.543 198.679 417.03 198.099 417.531 197.517 418.035 196.377 419.019 195.203 419.955 194.012 420.878 193.604 421.195 193.197 421.515 192.791 421.835 189.708 424.264 186.608 426.665 183.43 428.969 183.311 429.056 183.191 429.143 183.068 429.232 176.929 433.661 170.546 437.734 163.971 441.48 163.835 441.558 163.699 441.636 163.558 441.716 153.722 447.346 143.518 451.722 132.801 455.354 132.681 455.394 132.56 455.435 132.437 455.477 117.851 460.417 102.64 463.044 85.2334 464.588 85.0983 464.599 84.9631 464.611 84.8226 464.624 80.1776 465.03 75.5778 465.297 70.913 465.297 70.277 465.297 69.641 465.299 69.0049 465.302 68.3888 465.305 67.7744 465.304 67.1581 465.305 66.9329 465.306 66.7059 465.307 66.4735 465.309 65.3348 465.306 64.3402 465.244 63.2519 464.903 63.2483 463.572 63.2447 462.241 63.2429 460.91 63.2411 460.457 63.2411 460.003 63.2393 459.55 63.2375 458.9 63.2357 458.251 63.2357 457.601 63.2339 457.397 63.2339 457.193 63.2321 456.982 63.2321 456.795 63.2321 456.608 63.2321 456.414 63.2321 456.248 63.2321 456.082 63.2303 455.911 63.2519 455.534 63.2519 455.534 63.4321 455.354 63.8771 455.369 64.315 455.396 64.7582 455.43 66.4987 455.545 68.232 455.577 69.9761 455.579 70.1383 455.579 70.2986 455.579 70.4662 455.579 74.3219 455.575 78.1507 455.321 81.9902 454.993 82.2749 454.969 82.2749 454.969 82.565 454.944 99.6096 453.486 116.22 450.506 151.046 437.132 151.457 436.926 151.87 436.724 152.283 436.523 154.42 435.478 156.492 434.336 158.553 433.149 159.125 432.821 159.698 432.495 160.271 432.17 165.831 429.004 171.228 425.48 176.415 421.732 176.804 421.451 177.194 421.173 177.583 420.894 179.197 419.739 180.783 418.556 182.349 417.336 182.638 417.114 182.927 416.893 183.216 416.671 184.343 415.807 185.462 414.933 186.577 414.054 186.998 413.722 187.421 413.391 187.845 413.063 189.04 412.135 190.207 411.182 191.35 410.191 191.978 409.647 192.613 409.118 193.261 408.598 194.226 407.815 195.132 406.976 196.04 406.128 196.583 405.622 197.141 405.136 197.703 404.652 198.167 404.235 198.597 403.787 199.025 403.334 199.286 403.103 199.286 403.103 199.646 403.103 199.646 402.984 199.646 402.865 199.646 402.742 199.904 402.488 199.904 402.488 200.264 402.19 201.126 401.457 201.923 400.672 202.72 399.871 202.858 399.734 202.995 399.597 203.137 399.456 203.885 398.707 204.598 397.941 205.289 397.139 205.785 396.578 206.318 396.058 206.853 395.535 207.617 394.779 208.363 394.021 209.058 393.201 209.392 392.813 209.737 392.438 210.085 392.064 210.953 391.129 211.774 390.172 212.574 389.178 212.995 388.669 213.433 388.183 213.88 387.698 214.612 386.901 215.303 386.082 215.982 385.24 216.349 384.79 216.724 384.348 217.102 383.908 218.058 382.795 218.958 381.648 219.843 380.479 220.48 379.637 221.131 378.81 221.796 377.991 222.705 376.865 223.567 375.709 224.42 374.541 225.231 373.431 226.061 372.336 226.897 371.245 227.759 370.12 228.608 368.988 229.426 367.83 230.36 366.507 231.328 365.209 232.291 363.906 232.716 363.331 233.141 362.754 233.566 362.178 233.775 361.894 233.984 361.609 234.194 361.325 234.723 360.608 235.251 359.891 235.777 359.172 237.078 357.399 238.397 355.642 239.739 353.899 239.987 353.577 240.235 353.254 240.482 352.931 240.922 352.357 241.364 351.784 241.807 351.212 241.885 351.11 241.964 351.009 242.045 350.905 243.025 349.639 244.026 348.395 245.066 347.178 245.549 346.613 246.02 346.041 246.48 345.457 247.802 343.792 249.207 342.194 250.636 340.62 250.959 340.262 251.277 339.899 251.593 339.534 253.373 337.498 255.256 335.567 257.168 333.656 257.585 333.238 258 332.82 258.415 332.401 259.791 331.02 261.166 329.706 262.707 328.51 262.901 328.348 263.094 328.185 263.285 328.021 273.511 319.297 289.666 314.516 300.743 324.155Z" stroke="#FF87E0" stroke-width="0.180157" stroke-linecap="butt" stroke-linejoin="miter" stroke-miterlimit="4" stroke-opacity="1" fill="#FF87E0" fill-rule="nonzero" fill-opacity="1"/><path d="M307.179 220.708C307.798 220.709 308.417 220.707 309.036 220.704 313.146 220.682 317.18 220.836 321.264 221.305 321.516 221.333 321.516 221.333 321.772 221.362 322.652 221.463 323.529 221.581 324.406 221.711 324.596 221.738 324.596 221.738 324.79 221.767 333.596 223.061 342.339 225.366 350.453 229.053 350.634 229.134 350.814 229.216 351 229.3 355.68 231.436 359.988 234.075 363.966 237.341 364.109 237.456 364.109 237.456 364.254 237.573 365.764 238.791 367.152 240.129 368.527 241.496 368.692 241.66 368.858 241.824 369.029 241.993 370.12 243.089 371.117 244.233 372.074 245.449 372.179 245.58 372.283 245.712 372.391 245.848 374.586 248.637 376.465 251.543 378.2 254.638 378.269 254.76 378.339 254.882 378.41 255.007 384.16 265.153 386.439 276.971 386.388 288.53 386.387 288.935 386.386 289.34 386.385 289.745 386.375 294.371 386.157 298.95 385.638 303.549 385.59 303.983 385.543 304.416 385.497 304.85 385.152 308.049 384.687 311.231 384.213 314.413 384.192 314.556 384.171 314.7 384.149 314.847 384.083 315.288 384.017 315.729 383.952 316.17 383.93 316.318 383.908 316.466 383.885 316.618 383.863 316.767 383.841 316.915 383.818 317.068 383.785 317.291 383.785 317.291 383.751 317.519 383.706 317.819 383.662 318.119 383.617 318.418 382.947 322.913 382.331 327.4 381.984 331.933 381.966 332.15 381.949 332.366 381.93 332.589 381.356 340.011 382.565 346.811 386.128 353.374 386.229 353.562 386.331 353.75 386.435 353.943 387.787 356.347 389.43 358.433 391.353 360.401 391.452 360.504 391.551 360.607 391.653 360.713 395.556 364.716 401.068 367.317 406.307 369.049 406.457 369.099 406.608 369.149 406.762 369.201 409.29 370.032 411.856 370.673 414.446 371.272 414.571 371.301 414.697 371.331 414.826 371.361 415.169 371.441 415.512 371.52 415.856 371.599 416.397 371.752 416.397 371.752 416.938 372.112 417.003 372.518 417.003 372.518 416.999 373.03 416.999 373.221 416.999 373.412 416.999 373.609 416.996 373.816 416.993 374.023 416.991 374.236 416.99 374.448 416.989 374.659 416.988 374.877 416.985 375.555 416.978 376.232 416.972 376.909 416.969 377.368 416.966 377.826 416.964 378.285 416.958 379.41 416.949 380.536 416.938 381.662 416.072 381.677 415.292 381.657 414.442 381.476 414.149 381.414 414.149 381.414 413.851 381.351 413.643 381.305 413.436 381.259 413.222 381.211 413.002 381.163 412.782 381.115 412.555 381.065 402.013 378.708 392.269 374.917 384.326 367.428 384.185 367.296 384.044 367.165 383.898 367.029 382.706 365.884 381.713 364.601 380.722 363.284 380.646 363.183 380.57 363.082 380.491 362.979 374.881 355.561 371.937 346.514 371.995 337.248 371.996 337.065 371.996 336.881 371.997 336.691 372.013 332.56 372.333 328.47 372.795 324.366 372.818 324.155 372.818 324.155 372.842 323.941 373.179 320.975 373.618 318.023 374.065 315.072 374.243 313.895 374.42 312.717 374.596 311.539 374.616 311.407 374.636 311.276 374.657 311.14 375.386 306.272 375.97 301.404 376.364 296.496 376.395 296.124 376.426 295.751 376.458 295.378 376.617 293.32 376.622 291.261 376.623 289.198 376.624 289.006 376.624 288.815 376.624 288.617 376.621 285.606 376.516 282.661 376.038 279.682 376.006 279.481 375.974 279.28 375.941 279.073 374.93 272.882 373.242 266.936 370.452 261.304 370.376 261.149 370.3 260.994 370.221 260.834 368.094 256.558 365.384 252.569 362.055 249.14 361.801 248.868 361.564 248.588 361.329 248.3 360.978 247.881 360.643 247.533 360.227 247.183 359.85 246.862 359.474 246.541 359.11 246.205 354.622 242.069 348.944 238.911 343.246 236.8 343.136 236.759 343.026 236.718 342.912 236.676 334.745 233.657 326.316 231.77 317.661 230.854 317.517 230.839 317.372 230.823 317.224 230.807 314.253 230.49 311.3 230.429 308.314 230.438 307.963 230.438 307.963 230.438 307.605 230.439 304.014 230.447 300.504 230.574 296.941 231.035 296.674 231.067 296.408 231.099 296.142 231.131 288.007 232.111 280.035 233.857 272.257 236.44 272.007 236.522 271.758 236.604 271.509 236.686 266.102 238.472 260.86 240.555 255.68 242.926 255.572 242.976 255.464 243.025 255.353 243.076 250.617 245.244 245.95 247.509 241.447 250.133 241.299 250.218 241.151 250.303 240.999 250.391 236.95 252.722 233.089 255.412 229.375 258.241 229.236 258.347 229.097 258.452 228.954 258.561 227.375 259.767 225.825 261 224.318 262.294 223.825 262.715 223.325 263.126 222.821 263.534 220.966 265.046 219.176 266.63 217.419 268.254 216.668 268.944 215.897 269.611 215.125 270.278 214.444 270.869 213.789 271.469 213.159 272.115 213.037 272.235 212.914 272.356 212.788 272.48 212.149 273.11 211.523 273.74 210.941 274.423 210.389 275.068 209.798 275.663 209.195 276.259 208.499 276.947 207.829 277.643 207.195 278.388 206.831 278.806 206.456 279.21 206.078 279.615 205.181 280.575 204.325 281.552 203.502 282.577 202.988 283.204 202.455 283.813 201.92 284.423 200.909 285.581 199.949 286.771 199.01 287.988 198.725 288.356 198.437 288.723 198.15 289.089 196.322 291.418 194.562 293.794 192.837 296.199 191.753 297.708 190.639 299.191 189.508 300.665 188.768 301.633 188.045 302.608 187.343 303.603 186.409 304.925 185.442 306.223 184.479 307.525 184.154 307.966 183.829 308.407 183.505 308.848 182.247 310.558 180.982 312.261 179.706 313.957 179.483 314.253 179.262 314.55 179.041 314.847 178.087 316.127 177.108 317.385 176.118 318.637 175.862 318.961 175.607 319.286 175.353 319.611 174.464 320.748 173.567 321.877 172.65 322.99 172.39 323.306 172.131 323.622 171.874 323.939 171.024 324.986 170.156 326.013 169.275 327.034 168.73 327.667 168.198 328.308 167.676 328.96 166.848 329.981 165.954 330.933 165.055 331.891 164.631 332.343 164.218 332.803 163.813 333.273 163.34 333.822 162.839 334.331 162.321 334.838 161.999 335.166 161.699 335.505 161.4 335.854 160.771 336.577 160.112 337.26 159.434 337.936 159.315 338.055 159.196 338.174 159.074 338.296 158.824 338.546 158.575 338.795 158.325 339.043 157.947 339.421 157.57 339.799 157.193 340.177 156.949 340.421 156.705 340.665 156.461 340.909 156.35 341.02 156.239 341.131 156.125 341.245 155.449 341.918 154.753 342.556 154.031 343.177 153.498 343.641 152.987 344.128 152.474 344.613 151.573 345.455 150.654 346.258 149.691 347.028 149.256 347.38 148.831 347.742 148.408 348.109 142.184 353.483 134.945 358.066 127.756 362.022 127.559 362.131 127.363 362.24 127.161 362.351 111.361 371.056 94.7935 373.834 77.1993 368.903 64.8303 365.302 64.8303 365.302 61.9907 361.662 61.8466 361.137 61.8033 360.609 61.7565 360.068 61.7385 359.91 61.7223 359.752 61.706 359.589 61.67 359.251 61.6358 358.912 61.6033 358.573 61.5187 357.694 61.4214 356.816 61.3259 355.937 61.306 355.764 61.288 355.59 61.2682 355.411 61.0268 353.268 60.6358 351.159 60.189 349.05 60.8268 349.147 61.2412 349.282 61.7547 349.671 61.879 349.763 62.0033 349.856 62.1312 349.951 62.2628 350.051 62.3961 350.151 62.5312 350.255 64.351 351.6 66.2194 352.863 68.1167 354.095 68.2356 354.173 68.3545 354.251 68.4789 354.331 76.3471 359.453 86.4874 361.572 95.7737 361.549 95.9304 361.549 96.0854 361.549 96.2457 361.549 98.997 361.541 101.633 361.323 104.332 360.761 104.525 360.722 104.718 360.682 104.916 360.641 117.613 357.959 129.743 350.153 139.827 342.203 140.03 342.047 140.233 341.89 140.435 341.734 142.498 340.141 144.462 338.433 146.39 336.679 146.692 336.405 146.995 336.131 147.299 335.859 148.849 334.458 150.329 332.99 151.805 331.511 152.228 331.087 152.652 330.664 153.076 330.241 153.349 329.967 153.623 329.694 153.896 329.42 154.021 329.296 154.145 329.171 154.274 329.043 154.978 328.336 155.651 327.61 156.302 326.853 156.763 326.321 157.249 325.813 157.732 325.3 158.565 324.41 159.357 323.5 160.119 322.548 160.643 321.907 161.185 321.284 161.73 320.661 162.506 319.771 163.263 318.873 163.993 317.946 164.356 317.488 164.726 317.036 165.097 316.584 166.645 314.696 168.166 312.788 169.646 310.847 169.966 310.428 170.286 310.011 170.606 309.593 171.736 308.12 172.861 306.646 173.932 305.129 174.866 303.806 175.834 302.508 176.797 301.205 177.327 300.488 177.856 299.769 178.385 299.051 178.595 298.765 178.806 298.48 179.016 298.194 179.435 297.627 179.853 297.058 180.271 296.49 181.475 294.852 182.689 293.222 183.911 291.598 184.551 290.746 185.18 289.888 185.795 289.017 186.74 287.679 187.738 286.382 188.74 285.085 188.988 284.762 189.236 284.438 189.483 284.113 190.59 282.661 191.735 281.242 192.892 279.829 193.125 279.545 193.356 279.259 193.587 278.973 195.123 277.076 196.73 275.237 198.37 273.43 198.615 273.158 198.86 272.886 199.103 272.613 201.322 270.122 203.643 267.727 206.005 265.372 206.408 264.97 206.81 264.567 207.212 264.164 207.473 263.903 207.734 263.641 207.996 263.38 208.113 263.263 208.231 263.145 208.352 263.023 209.044 262.334 209.756 261.678 210.497 261.041 210.963 260.637 211.412 260.216 211.864 259.795 212.711 259.012 213.586 258.275 214.486 257.552 214.947 257.171 215.388 256.777 215.828 256.372 216.626 255.644 217.461 254.98 218.314 254.319 219.052 253.745 219.769 253.152 220.479 252.543 221.547 251.63 222.653 250.779 223.789 249.953 223.909 249.866 224.028 249.779 224.15 249.69 224.972 249.092 225.797 248.497 226.623 247.905 227.006 247.63 227.388 247.353 227.769 247.075 230.984 244.753 234.392 242.713 237.843 240.764 237.973 240.69 238.104 240.616 238.238 240.54 239.182 240.005 240.132 239.48 241.086 238.962 241.304 238.844 241.304 238.844 241.527 238.723 246.578 235.996 251.823 233.597 257.122 231.395 257.233 231.349 257.344 231.302 257.458 231.255 264.134 228.478 271.013 226.144 278.022 224.368 278.139 224.338 278.257 224.308 278.377 224.278 283.223 223.049 288.11 222.155 293.067 221.53 293.282 221.503 293.282 221.503 293.501 221.475 294.526 221.346 295.552 221.232 296.58 221.125 296.817 221.099 296.817 221.099 297.059 221.073 300.43 220.722 303.795 220.703 307.179 220.708Z" stroke="#FF87E0" stroke-width="0.180157" stroke-linecap="butt" stroke-linejoin="miter" stroke-miterlimit="4" stroke-opacity="1" fill="#FF87E0" fill-rule="nonzero" fill-opacity="1"/><path d="M318.741 251.755C318.997 251.779 319.252 251.802 319.507 251.825 331.221 252.893 342.755 254.886 351.708 263.145 352.052 263.474 352.052 263.474 352.434 263.646 352.434 263.765 352.434 263.884 352.434 264.007 352.531 264.044 352.628 264.081 352.728 264.119 353.328 264.468 353.76 264.952 354.225 265.46 354.326 265.57 354.428 265.681 354.533 265.796 360.83 272.763 363.029 281.168 363.965 290.312 363.981 290.458 363.997 290.603 364.013 290.752 364.184 292.498 364.175 294.242 364.176 295.994 364.176 296.339 364.177 296.685 364.178 297.03 364.179 297.756 364.179 298.482 364.179 299.207 364.179 299.934 364.18 300.66 364.183 301.386 364.205 307.972 364.117 314.571 363.391 321.123 363.352 321.488 363.313 321.855 363.274 322.221 362.593 328.506 361.673 334.755 360.685 340.998 360.225 343.909 359.803 346.82 359.461 349.748 359.443 349.902 359.425 350.056 359.406 350.215 358.254 360.162 359.356 368.816 365.587 376.977 365.711 377.139 365.711 377.139 365.837 377.305 369.73 382.319 374.805 385.923 380.361 388.869 380.477 388.93 380.593 388.992 380.712 389.055 384.587 391.094 388.646 392.702 392.793 394.094 392.94 394.143 393.087 394.193 393.238 394.244 400.276 396.593 408.564 397.302 415.917 396.337 416.749 396.235 417.542 396.215 418.378 396.256 418.722 396.6 418.582 397.106 418.584 397.564 418.583 397.723 418.583 397.882 418.583 398.046 418.583 398.209 418.583 398.373 418.583 398.541 418.583 398.889 418.583 399.236 418.582 399.584 418.581 400.111 418.582 400.637 418.583 401.164 418.583 401.502 418.583 401.84 418.583 402.178 418.583 402.412 418.583 402.412 418.584 402.65 418.58 403.711 418.502 404.751 418.378 405.805 409.687 408.702 396.655 405.955 388.289 403.103 388.121 403.046 387.954 402.99 387.781 402.932 380.883 400.605 374.031 397.258 368.109 393.013 367.99 392.928 367.87 392.843 367.747 392.755 365.867 391.413 364.176 389.94 362.524 388.328 362.343 388.154 362.343 388.154 362.158 387.976 360.617 386.493 359.178 384.986 357.909 383.262 357.638 382.894 357.363 382.53 357.087 382.165 355.679 380.28 354.442 378.332 353.335 376.256 353.228 376.056 353.228 376.056 353.118 375.851 351.211 372.212 349.959 368.247 349.371 364.185 349.338 363.964 349.306 363.743 349.272 363.515 348.642 358.214 349.132 352.8 349.765 347.527 349.793 347.284 349.793 347.284 349.823 347.037 350.233 343.612 350.746 340.204 351.279 336.796 352.411 329.552 353.446 322.309 354.022 314.997 354.038 314.798 354.038 314.798 354.053 314.595 354.389 310.24 354.454 305.873 354.459 301.507 354.46 300.974 354.463 300.441 354.467 299.909 354.544 289.655 353.565 278.955 346.058 271.32 338.763 264.129 328.704 262.673 318.933 261.687 318.748 261.668 318.563 261.65 318.373 261.631 315.063 261.301 311.764 261.082 308.437 261.079 308.23 261.079 308.23 261.079 308.018 261.079 297.983 261.092 288.223 263.499 279.103 267.61 278.935 267.686 278.767 267.761 278.594 267.838 273.615 270.088 268.901 272.987 264.485 276.195 264.161 276.43 263.835 276.661 263.507 276.891 261.09 278.592 258.744 280.382 256.508 282.317 256.21 282.573 255.91 282.827 255.61 283.08 253.311 285.022 251.144 287.085 249.013 289.209 248.774 289.447 248.774 289.447 248.53 289.689 247.734 290.488 246.963 291.297 246.228 292.153 245.824 292.62 245.403 293.07 244.982 293.522 244.213 294.354 243.486 295.211 242.775 296.094 242.282 296.698 241.775 297.289 241.266 297.88 240.491 298.779 239.734 299.689 238.986 300.61 238.489 301.213 237.981 301.804 237.471 302.395 236.738 303.245 236.026 304.106 235.33 304.986 234.886 305.539 234.428 306.079 233.969 306.618 233.26 307.451 232.567 308.294 231.887 309.15 230.838 310.468 229.76 311.76 228.669 313.044 228.012 313.819 227.368 314.604 226.726 315.393 226.271 315.946 225.807 316.49 225.343 317.035 224.642 317.856 223.967 318.693 223.304 319.546 222.65 320.389 221.975 321.199 221.257 321.989 220.724 322.588 220.224 323.213 219.718 323.835 219.256 324.4 218.788 324.958 218.316 325.514 218.233 325.612 218.15 325.71 218.065 325.81 217.726 326.21 217.386 326.609 217.047 327.008 216.794 327.306 216.541 327.604 216.289 327.902 216.206 328 216.123 328.097 216.037 328.198 215.529 328.799 215.028 329.407 214.532 330.019 213.696 331.046 212.828 332.044 211.958 333.042 211.378 333.709 210.804 334.38 210.23 335.052 209.477 335.934 208.712 336.802 207.933 337.66 207.61 338.018 207.292 338.381 206.976 338.746 206.159 339.683 205.312 340.592 204.466 341.502 204.263 341.72 204.061 341.938 203.859 342.157 202.059 344.102 200.211 345.995 198.337 347.868 197.868 348.338 197.401 348.808 196.934 349.279 196.635 349.578 196.337 349.877 196.038 350.176 195.899 350.317 195.759 350.457 195.616 350.602 195.487 350.73 195.359 350.858 195.227 350.99 195.114 351.102 195.001 351.215 194.885 351.332 194.6 351.572 194.6 351.572 194.24 351.572 194.24 351.691 194.24 351.81 194.24 351.933 193.977 352.194 193.977 352.194 193.613 352.497 192.815 353.175 192.058 353.889 191.301 354.613 190.296 355.565 189.283 356.476 188.199 357.337 187.735 357.713 187.294 358.107 186.853 358.509 186.077 359.216 185.274 359.878 184.458 360.537 183.989 360.925 183.539 361.328 183.091 361.741 182.343 362.422 181.561 363.046 180.755 363.656 180.118 364.138 179.492 364.63 178.872 365.133 174.77 368.457 170.393 371.425 165.952 374.274 165.809 374.367 165.665 374.459 165.517 374.554 158.31 379.178 150.893 383.486 143.275 387.398 142.473 387.81 141.675 388.229 140.88 388.655 129.414 394.778 117.272 398.306 104.498 400.431 103.781 400.551 103.064 400.675 102.346 400.801 90.0351 402.959 77.2913 403.303 65.0537 400.467 64.9024 400.433 64.7528 400.398 64.5961 400.362 64.2051 400.265 63.8195 400.155 63.4321 400.04 63.2231 399.986 63.0159 399.933 62.8015 399.878 62.2646 399.426 62.2664 399.311 62.1943 398.635 62.1799 398.202 62.1727 397.77 62.1709 397.337 62.1673 397.036 62.1637 396.735 62.1601 396.434 62.1511 395.399 62.1547 394.363 62.1601 393.328 62.1601 392.965 62.1619 392.601 62.1619 392.238 62.1637 391.355 62.1673 390.472 62.1709 389.589 63.0988 389.692 63.9745 389.84 64.8808 390.077 65.1204 390.139 65.3582 390.2 65.596 390.261 65.7798 390.309 65.7798 390.309 65.969 390.358 81.8119 394.457 97.7412 392.207 129.557 383.103 129.843 382.975 129.843 382.975 130.137 382.845 132.531 381.772 134.877 380.636 137.187 379.393 137.946 378.99 138.708 378.599 139.47 378.207 141.437 377.193 143.392 376.167 145.316 375.074 145.65 374.885 145.984 374.696 146.319 374.507 150.578 372.106 154.761 369.591 158.884 366.962 159.3 366.698 159.717 366.437 160.135 366.176 164.396 363.516 168.47 360.596 172.438 357.518 172.551 357.431 172.663 357.344 172.779 357.255 174.221 356.14 175.627 354.989 177.012 353.804 177.506 353.381 178.001 352.961 178.497 352.541 178.595 352.458 178.692 352.375 178.793 352.289 179.396 351.778 180.008 351.279 180.625 350.784 181.529 350.05 182.381 349.268 183.227 348.47 183.76 347.967 184.299 347.475 184.852 346.995 185.623 346.324 186.369 345.63 187.112 344.928 187.246 344.802 187.38 344.675 187.518 344.545 188.338 343.771 189.141 342.984 189.932 342.181 190.394 341.726 190.883 341.307 191.375 340.884 192.162 340.19 192.881 339.441 193.564 338.645 194.172 337.938 194.828 337.285 195.491 336.631 196.088 336.039 196.647 335.425 197.193 334.785 197.488 334.45 197.796 334.137 198.114 333.825 198.87 333.078 199.556 332.279 200.246 331.472 200.518 331.152 200.791 330.833 201.064 330.514 201.157 330.405 201.251 330.295 201.347 330.182 201.893 329.545 202.447 328.916 203.012 328.296 203.688 327.551 204.324 326.779 204.957 325.996 205.488 325.353 206.034 324.724 206.582 324.095 207.392 323.166 208.183 322.226 208.958 321.268 209.449 320.672 209.951 320.086 210.456 319.501 211.374 318.434 212.27 317.35 213.158 316.258 214.455 314.67 215.761 313.092 217.1 311.541 217.723 310.818 218.322 310.08 218.914 309.331 219.355 308.783 219.808 308.246 220.264 307.711 220.997 306.848 221.72 305.979 222.435 305.101 223.004 304.404 223.577 303.709 224.149 303.015 224.841 302.175 225.533 301.335 226.221 300.492 226.491 300.162 226.761 299.832 227.032 299.501 227.124 299.389 227.216 299.277 227.31 299.161 228.512 297.693 229.722 296.234 230.961 294.797 231.631 294.02 232.282 293.229 232.93 292.432 233.629 291.578 234.344 290.738 235.06 289.897 235.32 289.591 235.579 289.284 235.838 288.977 236.988 287.618 238.179 286.305 239.4 285.01 239.922 284.457 240.431 283.895 240.939 283.331 241.845 282.34 242.785 281.387 243.732 280.437 243.875 280.292 244.019 280.148 244.166 279.999 244.931 279.236 245.711 278.502 246.53 277.797 246.965 277.422 247.386 277.032 247.808 276.642 248.603 275.918 249.416 275.227 250.253 274.552 250.673 274.214 251.088 273.87 251.501 273.523 254.322 271.162 257.287 269.025 260.338 266.971 260.681 266.739 261.022 266.505 261.363 266.27 272.06 258.945 284.4 253.641 297.3 251.935 297.495 251.908 297.69 251.881 297.891 251.853 304.713 250.936 311.902 251.062 318.741 251.755Z" stroke="#FF87E0" stroke-width="0.180157" stroke-linecap="butt" stroke-linejoin="miter" stroke-miterlimit="4" stroke-opacity="1" fill="#FF87E0" fill-rule="nonzero" fill-opacity="1"/><path d="M318.201 285.087C318.325 285.139 318.449 285.19 318.578 285.243 320.787 286.175 322.663 287.344 324.507 288.871 324.626 288.968 324.745 289.065 324.868 289.164 324.984 289.26 325.1 289.356 325.219 289.455 325.324 289.541 325.43 289.628 325.538 289.717 325.768 289.952 325.768 289.952 325.768 290.312 325.871 290.355 325.974 290.398 326.081 290.442 326.919 290.916 327.492 291.751 328.11 292.475 328.228 292.608 328.345 292.742 328.466 292.88 331.638 296.638 333.667 301.471 334.236 306.348 334.266 306.561 334.266 306.561 334.296 306.779 335.315 315.423 332.254 323.193 328.651 330.852 328.598 330.965 328.545 331.078 328.49 331.194 328.412 331.36 328.412 331.36 328.333 331.528 324.67 339.317 322.199 346.787 321.264 355.356 321.231 355.646 321.231 355.646 321.198 355.942 320.608 361.472 320.372 367.536 321.444 373.013 321.489 373.254 321.489 373.254 321.535 373.5 322.219 377.084 323.277 380.66 325.05 383.862 325.227 384.183 325.398 384.507 325.569 384.832 326.934 387.377 328.821 389.5 330.813 391.571 330.898 391.66 330.982 391.748 331.069 391.84 332.089 392.902 333.148 393.87 334.3 394.786 334.744 395.148 335.159 395.526 335.576 395.918 337.016 397.228 338.613 398.351 340.182 399.499 340.381 399.645 340.381 399.645 340.584 399.794 355.585 410.757 372.761 413.237 393.694 414.093 393.918 414.101 393.918 414.101 394.146 414.109 398.874 414.276 398.874 414.276 403.604 414.273 403.842 414.27 403.842 414.27 404.085 414.267 407.778 414.204 411.542 413.891 415.188 413.272 416.073 413.166 416.947 413.178 417.838 413.192 417.796 414.462 417.751 415.732 417.704 417.002 417.688 417.434 417.673 417.866 417.659 418.298 417.638 418.919 417.615 419.539 417.592 420.16 417.585 420.353 417.58 420.547 417.573 420.746 417.566 420.926 417.559 421.107 417.552 421.292 417.543 421.53 417.543 421.53 417.534 421.773 417.474 422.232 417.366 422.532 417.117 422.922 416.736 423.061 416.736 423.061 416.259 423.129 416.081 423.156 415.902 423.182 415.718 423.21 415.526 423.234 415.334 423.258 415.135 423.282 414.941 423.307 414.747 423.332 414.547 423.357 413.914 423.432 413.281 423.499 412.647 423.564 412.439 423.586 412.232 423.609 412.019 423.632 408.759 423.97 405.483 424.04 402.208 424.037 402.035 424.037 401.863 424.037 401.685 424.037 384.061 424.014 364.974 423.599 345.407 414.454 345.265 414.383 345.122 414.312 344.976 414.238 337.206 410.34 330.228 404.759 323.966 398.778 323.797 398.617 323.628 398.455 323.453 398.288 322.395 397.255 321.456 396.158 320.543 394.995 320.361 394.77 320.179 394.546 319.997 394.321 318.447 392.384 317.197 390.339 316.039 388.148 315.965 388.011 315.892 387.874 315.816 387.733 308.627 374.141 309.654 354.662 313.989 340.277 315.338 335.966 317.163 331.905 319.105 327.838 322.674 320.352 326.227 312.598 323.576 304.244 322.044 300.03 319.054 296.421 314.958 294.495 312.675 293.571 310.344 293.424 307.931 293.803 307.724 293.835 307.517 293.867 307.305 293.9 293.144 296.237 278.829 302.226 267.391 310.853 267.261 310.951 267.131 311.049 266.997 311.149 266.102 311.825 265.214 312.508 264.328 313.195 264.216 313.282 264.103 313.368 263.987 313.458 261.803 315.148 259.704 316.921 257.662 318.78 257.361 319.051 257.061 319.321 256.761 319.591 256.548 319.783 256.548 319.783 256.332 319.978 256.045 320.236 255.757 320.492 255.468 320.747 254.21 321.859 253.021 323.033 251.836 324.222 251.501 324.558 251.165 324.893 250.829 325.228 249.86 326.196 248.9 327.162 248.011 328.206 247.588 328.701 247.139 329.172 246.693 329.647 245.89 330.511 245.128 331.397 244.389 332.317 243.907 332.909 243.409 333.485 242.91 334.061 242.097 335.002 241.32 335.964 240.558 336.946 240 337.662 239.424 338.36 238.833 339.05 238.078 339.932 237.354 340.834 236.642 341.75 235.972 342.609 235.283 343.449 234.588 344.286 233.54 345.552 232.529 346.84 231.536 348.149 231.236 348.54 230.936 348.93 230.635 349.32 230.485 349.515 230.335 349.711 230.185 349.906 229.284 351.077 228.383 352.248 227.482 353.419 227.408 353.516 227.334 353.612 227.257 353.712 227.106 353.908 226.956 354.104 226.805 354.299 226.438 354.776 226.072 355.253 225.706 355.73 225.248 356.326 224.789 356.922 224.329 357.518 224.234 357.641 224.14 357.764 224.042 357.89 222.817 359.477 221.58 361.052 220.31 362.604 219.668 363.389 219.04 364.184 218.417 364.984 217.77 365.815 217.099 366.615 216.391 367.395 216.009 367.824 215.648 368.265 215.286 368.711 214.345 369.871 213.365 370.995 212.384 372.12 212.078 372.471 211.774 372.824 211.47 373.176 210.437 374.374 209.395 375.56 208.326 376.726 207.994 377.09 207.669 377.459 207.348 377.833 206.446 378.87 205.497 379.866 204.555 380.867 204.258 381.185 203.963 381.505 203.67 381.826 201.684 383.988 199.606 386.059 197.53 388.134 196.996 388.668 196.464 389.203 195.931 389.739 195.518 390.153 195.105 390.567 194.691 390.981 194.494 391.178 194.297 391.376 194.101 391.574 193.829 391.848 193.556 392.12 193.282 392.392 193.128 392.547 192.973 392.702 192.813 392.862 192.438 393.193 192.438 393.193 192.078 393.193 192.078 393.312 192.078 393.431 192.078 393.553 191.829 393.798 191.829 393.798 191.475 394.088 190.511 394.908 189.632 395.805 188.744 396.706 187.767 397.698 186.791 398.672 185.733 399.578 185.241 400.008 184.786 400.472 184.33 400.94 183.641 401.649 182.927 402.31 182.179 402.957 181.568 403.493 180.979 404.053 180.389 404.612 167.289 416.939 152.47 426.54 102.71 438.777 102.509 438.796 102.307 438.814 102.098 438.833 93.8638 439.554 85.3631 439.36 77.1255 438.777 76.9237 438.764 76.9237 438.764 76.7201 438.75 66.6501 438.058 66.6501 438.058 63.6123 435.714 63.4862 435.207 63.4862 435.207 63.4682 434.592 63.4592 434.366 63.4501 434.141 63.443 433.908 63.4393 433.672 63.4357 433.435 63.4321 433.192 63.4267 432.963 63.4231 432.734 63.4177 432.499 63.4087 431.81 63.4069 431.122 63.4105 430.433 63.4087 430.197 63.4087 429.96 63.4069 429.717 63.4069 429.493 63.4087 429.269 63.4087 429.039 63.4087 428.837 63.4087 428.635 63.4087 428.427 63.4321 427.967 63.4321 427.967 63.6123 427.787 63.9961 427.794 64.3781 427.816 64.7618 427.843 64.8826 427.851 65.0033 427.86 65.1276 427.869 66.0501 427.938 66.9708 428.034 67.8915 428.136 69.8716 428.352 71.8553 428.493 73.8427 428.633 74.5472 428.683 75.2535 428.736 75.958 428.788 91.5918 429.954 106.588 429.119 122.71 425.444 122.912 425.398 122.912 425.398 123.119 425.351 138.991 421.733 153.564 414.405 167.807 402.463 168.118 402.198 168.43 401.935 168.741 401.671 170.001 400.602 171.229 399.506 172.438 398.38 172.902 397.948 173.373 397.523 173.846 397.101 175.528 395.592 177.189 394.054 178.77 392.441 179.094 392.122 179.429 391.827 179.775 391.532 180.549 390.859 181.27 390.141 181.988 389.409 182.228 389.165 182.468 388.921 182.708 388.677 182.813 388.571 182.917 388.465 183.024 388.355 183.351 388.043 183.682 387.752 184.026 387.46 185.266 386.381 186.408 385.195 187.568 384.033 187.83 383.771 188.091 383.51 188.353 383.249 188.899 382.703 189.445 382.156 189.991 381.61 190.687 380.912 191.384 380.216 192.082 379.519 192.622 378.98 193.161 378.441 193.7 377.901 193.957 377.645 194.214 377.388 194.471 377.131 196.175 375.443 196.175 375.443 197.78 373.661 198.26 373.095 198.776 372.562 199.285 372.022 200.143 371.106 200.992 370.185 201.807 369.229 201.965 369.046 202.122 368.862 202.28 368.678 202.554 368.359 202.827 368.04 203.1 367.721 203.777 366.93 204.458 366.142 205.14 365.356 206.817 363.423 208.485 361.488 210.095 359.5 210.277 359.277 210.458 359.054 210.64 358.831 211.24 358.094 211.839 357.356 212.438 356.617 212.529 356.504 212.621 356.39 212.716 356.273 213.859 354.859 214.978 353.428 216.079 351.981 216.693 351.174 217.315 350.374 217.944 349.579 218.634 348.707 219.307 347.824 219.971 346.933 221.064 345.466 222.185 344.022 223.312 342.582 223.584 342.234 223.855 341.887 224.126 341.539 225.091 340.304 226.071 339.085 227.062 337.871 227.687 337.104 228.303 336.329 228.912 335.548 229.967 334.196 231.06 332.876 232.153 331.556 232.532 331.098 232.907 330.637 233.282 330.176 233.947 329.362 234.624 328.559 235.305 327.759 235.823 327.15 236.329 326.532 236.829 325.908 237.663 324.883 238.562 323.924 239.466 322.961 239.861 322.539 240.247 322.113 240.624 321.674 242.31 319.732 244.112 317.898 245.928 316.078 246.016 315.989 246.105 315.899 246.196 315.808 247.122 314.878 248.055 313.966 249.052 313.112 249.552 312.681 250.03 312.227 250.511 311.776 251.389 310.958 252.292 310.187 253.228 309.437 253.692 309.055 254.135 308.658 254.576 308.251 255.408 307.495 256.284 306.809 257.18 306.131 257.659 305.768 258.133 305.4 258.605 305.029 262.14 302.245 265.832 299.638 269.724 297.375 269.982 297.224 270.24 297.073 270.498 296.92 281.087 290.66 293.118 286.338 305.228 284.187 305.439 284.148 305.439 284.148 305.654 284.109 309.695 283.395 314.374 283.491 318.201 285.087Z" stroke="#FF87E0" stroke-width="0.180157" stroke-linecap="butt" stroke-linejoin="miter" stroke-miterlimit="4" stroke-opacity="1" fill="#FF87E0" fill-rule="nonzero" fill-opacity="1"/></g></g></g></g></g></svg>