<svg width="136" height="135" xmlns="http://www.w3.org/2000/svg" xmlns:xlink="http://www.w3.org/1999/xlink" xml:space="preserve" overflow="hidden"><defs><clipPath id="clip0"><rect x="50" y="30" width="136" height="135"/></clipPath><clipPath id="clip1"><rect x="50" y="30" width="136" height="135"/></clipPath><clipPath id="clip2"><rect x="51" y="31" width="135" height="134"/></clipPath><clipPath id="clip3"><rect x="51" y="31" width="135" height="134"/></clipPath><clipPath id="clip4"><rect x="51" y="31" width="135" height="134"/></clipPath></defs><g clip-path="url(#clip0)" transform="translate(-50 -30)"><g clip-path="url(#clip1)"><g clip-path="url(#clip2)"><g clip-path="url(#clip3)"><g clip-path="url(#clip4)"><path d="M54.4375 134C51.7277 134.014 49.2934 132.345 48.329 129.812L37.9021 102.698C37.475 101.594 36.6016 100.72 35.4969 100.293L8.375 89.8585C5.00137 88.5638 3.31613 84.7791 4.61094 81.4055 5.27546 79.674 6.64357 78.306 8.375 77.6415L35.4891 67.2146C36.5938 66.7875 37.4671 65.9141 37.8943 64.8094L48.329 37.6875C49.6237 34.3139 53.4084 32.6287 56.782 33.9235 58.5135 34.588 59.8815 35.956 60.546 37.6875L70.9729 64.8016C71.4 65.9063 72.2734 66.7796 73.3781 67.2068L100.335 77.5787C102.969 78.5551 104.709 81.0771 104.688 83.8861 104.647 86.5467 102.987 88.9132 100.5 89.8585L73.3859 100.285C72.2812 100.713 71.4079 101.586 70.9807 102.691L60.546 129.812C59.5816 132.345 57.1473 134.014 54.4375 134ZM23.0312 46.0625C21.4431 46.0625 20.0189 45.0845 19.4483 43.6023L15.0357 32.1286C14.8423 31.6211 14.4415 31.2202 13.9339 31.0268L2.46016 26.6142C0.481358 25.8522-0.505039 23.6303 0.256978 21.6515 0.646984 20.6387 1.44739 19.8383 2.46016 19.4483L13.9339 15.0357C14.4409 14.8414 14.8414 14.4409 15.0357 13.9339L19.4091 2.56223C19.9117 1.19794 21.1271 0.223152 22.568 0.0287891 24.3145-0.183526 25.9818 0.818381 26.6142 2.46016L31.0268 13.9339C31.221 14.4409 31.6216 14.8414 32.1286 15.0357L43.6023 19.4483C45.5812 20.2103 46.5676 22.4322 45.8055 24.411 45.4155 25.4238 44.6152 26.2242 43.6023 26.6142L32.1286 31.0268C31.6211 31.2202 31.2202 31.6211 31.0268 32.1286L26.6142 43.6023C26.0437 45.0845 24.6194 46.0625 23.0312 46.0625ZM104.688 67C102.955 66.9995 101.402 65.9319 100.78 64.3148L94.8024 48.7765C94.5896 48.2227 94.1523 47.7854 93.5985 47.5726L78.0602 41.595C75.9021 40.7635 74.827 38.34 75.6584 36.1818 76.0837 35.0779 76.9563 34.2053 78.0602 33.78L93.5985 27.8024C94.1523 27.5896 94.5896 27.1523 94.8024 26.5985L100.736 11.1702C101.288 9.68365 102.612 8.62083 104.182 8.40379 106.088 8.17308 107.907 9.26793 108.595 11.0602L114.573 26.5985C114.785 27.1523 115.223 27.5896 115.777 27.8024L131.315 33.78C133.473 34.6115 134.548 37.035 133.717 39.1932 133.291 40.2971 132.419 41.1697 131.315 41.595L115.777 47.5726C115.223 47.7854 114.785 48.2227 114.573 48.7765L108.595 64.3148C107.973 65.9319 106.42 66.9995 104.688 67Z" stroke="#FF87E0" stroke-width="0.261732" stroke-linecap="butt" stroke-linejoin="miter" stroke-miterlimit="4" stroke-opacity="1" fill="#FF87E0" fill-rule="nonzero" fill-opacity="1" transform="matrix(1.00746 0 0 1 51 31)"/></g></g></g></g></g></svg>